<svg width="150" height="150" viewBox="0 0 150 150" fill="none" xmlns="http://www.w3.org/2000/svg">
<g clip-path="url(#clip0)">
<path d="M49.25 60C51.475 60 53.6501 59.3402 55.5002 58.104C57.3502 56.8679 58.7922 55.1109 59.6436 53.0552C60.4951 50.9995 60.7179 48.7375 60.2838 46.5552C59.8498 44.3729 58.7783 42.3684 57.205 40.795C55.6316 39.2217 53.6271 38.1503 51.4448 37.7162C49.2625 37.2821 47.0005 37.5049 44.9448 38.3564C42.8891 39.2078 41.1321 40.6498 39.896 42.4998C38.6598 44.3499 38 46.525 38 48.75C38 51.7337 39.1853 54.5952 41.295 56.705C43.4048 58.8147 46.2663 60 49.25 60V60ZM49.25 45C49.9917 45 50.7167 45.2199 51.3334 45.632C51.9501 46.044 52.4307 46.6297 52.7145 47.3149C52.9984 48.0002 53.0726 48.7542 52.9279 49.4816C52.7833 50.209 52.4261 50.8772 51.9016 51.4016C51.3772 51.9261 50.709 52.2833 49.9816 52.4279C49.2542 52.5726 48.5002 52.4984 47.8149 52.2145C47.1297 51.9307 46.544 51.4501 46.132 50.8334C45.7199 50.2167 45.5 49.4917 45.5 48.75C45.5 47.7554 45.8951 46.8016 46.5984 46.0984C47.3016 45.3951 48.2554 45 49.25 45ZM120.5 22.5H30.5C28.5109 22.5 26.6032 23.2902 25.1967 24.6967C23.7902 26.1032 23 28.0109 23 30V120C23 121.989 23.7902 123.897 25.1967 125.303C26.6032 126.71 28.5109 127.5 30.5 127.5H120.5C122.489 127.5 124.397 126.71 125.803 125.303C127.21 123.897 128 121.989 128 120V30C128 28.0109 127.21 26.1032 125.803 24.6967C124.397 23.2902 122.489 22.5 120.5 22.5ZM120.5 120H30.5V101.25H120.5V120ZM42.9687 93.75L55.1562 77.5008L64.5312 90L61.7187 93.75H42.9687ZM71.0937 93.75L88.9063 70.0008L106.719 93.75H71.0937ZM120.5 93.75H116.094L91.9062 61.5023C90.4859 59.6109 87.3219 59.6109 85.9016 61.5023L69.2164 83.7469L58.1562 69.0023C56.7359 67.1109 53.5719 67.1109 52.1516 69.0023L33.5891 93.75H30.5V30H120.5V93.75Z" fill="black"/>
</g>
<defs>
<clipPath id="clip0">
<rect width="105" height="120" fill="white" transform="translate(23 15)"/>
</clipPath>
</defs>
</svg>
