<svg xmlns="http://www.w3.org/2000/svg" width="24" height="24" viewBox="0 0 24 24"><rect width="24" height="24" fill="none"/><g transform="translate(5568 7669.002) rotate(180)"><path d="M9.7,6.29a1,1,0,0,0-1.419,0l-5,5a1,1,0,0,0,0,1.419l5,5A1,1,0,1,0,9.7,16.28l-4.3-4.286L9.7,7.708a1,1,0,0,0,0-1.419Z" transform="translate(5567.994 7653.006) rotate(90)" fill="#fff"/><path d="M9.7,6.29a1,1,0,0,0-1.419,0l-5,5a1,1,0,0,0,0,1.419l5,5A1,1,0,1,0,9.7,16.28l-4.3-4.286L9.7,7.708a1,1,0,0,0,0-1.419Z" transform="translate(5567.994 7648.006) rotate(90)" fill="#fff"/></g></svg>