<svg width="370" height="370" viewBox="0 0 370 370" fill="none" xmlns="http://www.w3.org/2000/svg">
<path d="M185 370C287.173 370 370 287.173 370 185C370 82.8273 287.173 0 185 0C82.8273 0 0 82.8273 0 185C0 287.173 82.8273 370 185 370Z" fill="#627EEA"/>
<path d="M190.758 46.25V148.809L277.442 187.544L190.758 46.25Z" fill="white" fill-opacity="0.602"/>
<path d="M190.758 46.25L104.062 187.544L190.758 148.809V46.25Z" fill="white"/>
<path d="M190.758 254.005V323.692L277.5 203.685L190.758 254.005Z" fill="white" fill-opacity="0.602"/>
<path d="M190.758 323.692V253.994L104.062 203.685L190.758 323.692Z" fill="white"/>
<path d="M190.758 237.875L277.442 187.544L190.758 148.833V237.875Z" fill="white" fill-opacity="0.2"/>
<path d="M104.062 187.544L190.758 237.875V148.833L104.062 187.544Z" fill="white" fill-opacity="0.602"/>
</svg>
