<?xml version="1.0" encoding="utf-8"?>
<!-- Generator: Adobe Illustrator 25.2.3, SVG Export Plug-In . SVG Version: 6.00 Build 0)  -->
<svg version="1.1" id="Layer_1" xmlns="http://www.w3.org/2000/svg" xmlns:xlink="http://www.w3.org/1999/xlink" x="0px" y="0px"
	 viewBox="0 0 512 512" style="enable-background:new 0 0 512 512;" xml:space="preserve">
<style type="text/css">
	.st0{fill:#183054;}
	.st1{fill:#00BA96;}
	.st2{fill:#FFFFFF;}
	.st3{fill:#5434AA;}
</style>
<g>
	<g>
		<path class="st1" d="M452.02,236.72h-13.42v14.04h-8.83v-14.04h-13.42v-8.48h13.42v-13.95h8.83v13.95h13.42V236.72z"/>
	</g>
	<path class="st3" d="M214.55,244.36l-19.35,52.46h-11.79l-13.56-36.15l-13.75,36.15h-11.79l-19.26-52.46h11.59l13.85,38.71
		l14.44-38.71h10.32l14.15,38.9l14.25-38.9H214.55z"/>
	<path class="st3" d="M259.11,249.32c4.09,3.7,6.14,9.28,6.14,16.75v30.75h-11.59v-6.39c-1.51,2.29-3.65,4.05-6.44,5.26
		c-2.78,1.21-6.14,1.82-10.07,1.82c-3.93,0-7.37-0.67-10.32-2.01c-2.95-1.34-5.22-3.21-6.83-5.6c-1.61-2.39-2.41-5.09-2.41-8.11
		c0-4.72,1.75-8.5,5.26-11.35c3.5-2.85,9.02-4.27,16.55-4.27h13.56v-0.79c0-3.67-1.1-6.48-3.29-8.45c-2.2-1.96-5.45-2.95-9.78-2.95
		c-2.95,0-5.85,0.46-8.69,1.38c-2.85,0.92-5.26,2.19-7.22,3.83l-4.81-8.94c2.75-2.1,6.06-3.7,9.92-4.82
		c3.86-1.11,7.96-1.67,12.28-1.67C249.1,243.77,255.01,245.62,259.11,249.32z M247.91,286.46c2.39-1.41,4.08-3.42,5.06-6.04v-6.09
		h-12.67c-7.07,0-10.61,2.32-10.61,6.98c0,2.23,0.88,4,2.65,5.3c1.77,1.31,4.22,1.96,7.37,1.96
		C242.78,288.57,245.51,287.87,247.91,286.46z"/>
	<path class="st3" d="M276.64,223.92h12.28v72.9h-12.28V223.92z"/>
	<path class="st3" d="M299.85,223.92h12.28v72.9h-12.28V223.92z"/>
	<path class="st3" d="M373.47,274.52h-41.16c0.72,3.87,2.6,6.93,5.65,9.19c3.05,2.26,6.83,3.39,11.35,3.39
		c5.76,0,10.51-1.9,14.25-5.7l6.58,7.57c-2.36,2.82-5.34,4.95-8.94,6.38c-3.6,1.44-7.66,2.16-12.18,2.16
		c-5.76,0-10.84-1.15-15.23-3.44c-4.39-2.29-7.78-5.48-10.17-9.58c-2.39-4.09-3.59-8.73-3.59-13.9c0-5.11,1.16-9.71,3.49-13.8
		c2.32-4.09,5.55-7.29,9.68-9.58c4.13-2.29,8.78-3.44,13.95-3.44c5.11,0,9.68,1.13,13.71,3.39c4.03,2.26,7.17,5.44,9.43,9.53
		c2.26,4.09,3.39,8.83,3.39,14.2C373.67,271.74,373.6,272.95,373.47,274.52z M337.17,257.08c-2.72,2.32-4.37,5.42-4.96,9.28h29.77
		c-0.52-3.8-2.13-6.88-4.81-9.24c-2.69-2.36-6.03-3.54-10.02-3.54C343.21,253.59,339.89,254.76,337.17,257.08z"/>
	<path class="st3" d="M415.7,293.97c-1.44,1.18-3.19,2.06-5.26,2.65c-2.06,0.59-4.24,0.89-6.53,0.89c-5.76,0-10.22-1.51-13.36-4.52
		c-3.14-3.01-4.72-7.4-4.72-13.17v-25.25h-8.65v-9.82h8.65v-11.98h12.28v11.98h14.05v9.82h-14.05v24.96c0,2.55,0.62,4.5,1.87,5.85
		c1.24,1.34,3.05,2.01,5.4,2.01c2.75,0,5.04-0.72,6.88-2.16L415.7,293.97z"/>
	<g>
		<path class="st1" d="M114.07,289.71c0-5.23,3.52-8.05,8.56-8.05c5.03,0,8.36,2.82,8.36,8.05c0,5.13-3.32,7.95-8.36,7.95
			C117.6,297.66,114.07,294.84,114.07,289.71"/>
		<path class="st0" d="M83.75,241.62c-6.27,0-12.09,0.93-16.72,2.24l0,0c-1.44,0.39-2.51,1.7-2.51,3.27h0v10.19
			c4.43-1.81,9.87-3.02,16.31-3.02c8.56,0,11.98,2.72,11.98,9.16v3.02c-3.83-1.21-7.55-1.71-12.79-1.71
			c-12.39,0-20.04,6.34-20.04,16.72c0,9.97,6.55,16.21,17.52,16.21c7.25,0,12.79-2.11,16.92-5.64l0.81,4.03h12.49v-31.52
			C107.71,248.57,101.27,241.62,83.75,241.62 M92.81,282.6c-2.82,2.72-6.24,4.23-10.57,4.23c-4.33,0-7.45-1.71-7.45-6.04
			c0-4.33,3.22-6.34,8.76-6.34c3.02,0,6.24,0.5,9.26,1.41V282.6z"/>
	</g>
</g>
</svg>
