<svg width="238" height="42" viewBox="0 0 238 42" fill="none" xmlns="http://www.w3.org/2000/svg">
<path d="M17.08 9.7201C20.0133 9.7201 22.2533 10.3601 23.8 11.6401C25.3733 12.8934 26.16 14.8268 26.16 17.4401V32.0001H22L20.84 29.0401H20.68C19.7467 30.2134 18.76 31.0668 17.72 31.6001C16.68 32.1334 15.2533 32.4001 13.44 32.4001C11.4933 32.4001 9.87999 31.8401 8.59999 30.7201C7.31999 29.5734 6.67999 27.8268 6.67999 25.4801C6.67999 23.1601 7.49332 21.4534 9.11999 20.3601C10.7467 19.2401 13.1867 18.6268 16.44 18.5201L20.24 18.4001V17.4401C20.24 16.2934 19.9333 15.4534 19.32 14.9201C18.7333 14.3868 17.9067 14.1201 16.84 14.1201C15.7733 14.1201 14.7333 14.2801 13.72 14.6001C12.7067 14.8934 11.6933 15.2668 10.68 15.7201L8.71999 11.6801C9.89332 11.0668 11.1867 10.5868 12.6 10.2401C14.04 9.89343 15.5333 9.7201 17.08 9.7201ZM17.92 21.9601C16 22.0134 14.6667 22.3601 13.92 23.0001C13.1733 23.6401 12.8 24.4801 12.8 25.5201C12.8 26.4268 13.0667 27.0801 13.6 27.4801C14.1333 27.8534 14.8267 28.0401 15.68 28.0401C16.96 28.0401 18.04 27.6668 18.92 26.9201C19.8 26.1468 20.24 25.0668 20.24 23.6801V21.8801L17.92 21.9601ZM39.1806 32.4001C36.754 32.4001 34.7673 31.4534 33.2206 29.5601C31.7006 27.6401 30.9406 24.8268 30.9406 21.1201C30.9406 17.3868 31.714 14.5601 33.2606 12.6401C34.8073 10.7201 36.834 9.7601 39.3406 9.7601C40.914 9.7601 42.2073 10.0668 43.2206 10.6801C44.234 11.2934 45.034 12.0534 45.6206 12.9601H45.8206C45.7406 12.5334 45.6473 11.9201 45.5406 11.1201C45.434 10.2934 45.3806 9.45343 45.3806 8.6001V1.6001H51.3406V32.0001H46.7806L45.6206 29.1601H45.3806C44.794 30.0668 44.0073 30.8401 43.0206 31.4801C42.034 32.0934 40.754 32.4001 39.1806 32.4001ZM41.2606 27.6401C42.914 27.6401 44.074 27.1601 44.7406 26.2001C45.4073 25.2134 45.754 23.7468 45.7806 21.8001V21.1601C45.7806 19.0268 45.4473 17.4001 44.7806 16.2801C44.1406 15.1601 42.9406 14.6001 41.1806 14.6001C39.874 14.6001 38.8473 15.1734 38.1006 16.3201C37.354 17.4401 36.9806 19.0668 36.9806 21.2001C36.9806 23.3334 37.354 24.9468 38.1006 26.0401C38.8473 27.1068 39.9006 27.6401 41.2606 27.6401ZM83.2131 9.7601C85.6931 9.7601 87.5598 10.4001 88.8131 11.6801C90.0931 12.9334 90.7331 14.9601 90.7331 17.7601V32.0001H84.7731V19.2401C84.7731 16.0934 83.6798 14.5201 81.4931 14.5201C79.9198 14.5201 78.7998 15.0801 78.1331 16.2001C77.4665 17.3201 77.1331 18.9334 77.1331 21.0401V32.0001H71.1731V19.2401C71.1731 16.0934 70.0798 14.5201 67.8931 14.5201C66.2398 14.5201 65.0931 15.1468 64.4531 16.4001C63.8398 17.6268 63.5331 19.4001 63.5331 21.7201V32.0001H57.5731V10.1601H62.1331L62.9331 12.9601H63.2531C63.9198 11.8401 64.8265 11.0268 65.9731 10.5201C67.1465 10.0134 68.3598 9.7601 69.6131 9.7601C71.2131 9.7601 72.5731 10.0268 73.6931 10.5601C74.8131 11.0668 75.6665 11.8668 76.2531 12.9601H76.7731C77.4398 11.8401 78.3598 11.0268 79.5331 10.5201C80.7331 10.0134 81.9598 9.7601 83.2131 9.7601Z" fill="#5EAFF3"/>
<path d="M110 32.4001C106.747 32.4001 104.227 31.5068 102.44 29.7201C100.68 27.9068 99.8 25.0668 99.8 21.2001C99.8 18.5334 100.253 16.3601 101.16 14.6801C102.067 13.0001 103.32 11.7601 104.92 10.9601C106.547 10.1601 108.413 9.7601 110.52 9.7601C112.013 9.7601 113.307 9.90677 114.4 10.2001C115.52 10.4934 116.493 10.8401 117.32 11.2401L115.56 15.8401C114.627 15.4668 113.747 15.1601 112.92 14.9201C112.12 14.6801 111.32 14.5601 110.52 14.5601C107.427 14.5601 105.88 16.7601 105.88 21.1601C105.88 23.3468 106.28 24.9601 107.08 26.0001C107.907 27.0401 109.053 27.5601 110.52 27.5601C111.773 27.5601 112.88 27.4001 113.84 27.0801C114.8 26.7334 115.733 26.2668 116.64 25.6801V30.7601C115.733 31.3468 114.773 31.7601 113.76 32.0001C112.773 32.2668 111.52 32.4001 110 32.4001ZM127.627 32.0001H121.667V1.6001H127.627V32.0001ZM136.854 1.6001C137.734 1.6001 138.494 1.81343 139.134 2.2401C139.774 2.6401 140.094 3.4001 140.094 4.5201C140.094 5.61343 139.774 6.37343 139.134 6.8001C138.494 7.22677 137.734 7.4401 136.854 7.4401C135.948 7.4401 135.174 7.22677 134.534 6.8001C133.921 6.37343 133.614 5.61343 133.614 4.5201C133.614 3.4001 133.921 2.6401 134.534 2.2401C135.174 1.81343 135.948 1.6001 136.854 1.6001ZM139.814 10.1601V32.0001H133.854V10.1601H139.814ZM155.042 9.7601C158.055 9.7601 160.442 10.6268 162.202 12.3601C163.962 14.0668 164.842 16.5068 164.842 19.6801V22.5601H150.762C150.815 24.2401 151.309 25.5601 152.242 26.5201C153.202 27.4801 154.522 27.9601 156.202 27.9601C157.615 27.9601 158.895 27.8268 160.042 27.5601C161.189 27.2668 162.375 26.8268 163.602 26.2401V30.8401C162.535 31.3734 161.402 31.7601 160.202 32.0001C159.029 32.2668 157.602 32.4001 155.922 32.4001C153.735 32.4001 151.802 32.0001 150.122 31.2001C148.442 30.3734 147.122 29.1334 146.162 27.4801C145.202 25.8268 144.722 23.7468 144.722 21.2401C144.722 18.6801 145.149 16.5601 146.002 14.8801C146.882 13.1734 148.095 11.8934 149.642 11.0401C151.189 10.1868 152.989 9.7601 155.042 9.7601ZM155.082 14.0001C153.935 14.0001 152.975 14.3734 152.202 15.1201C151.455 15.8668 151.015 17.0268 150.882 18.6001H159.242C159.215 17.2668 158.869 16.1734 158.202 15.3201C157.535 14.4401 156.495 14.0001 155.082 14.0001ZM182.075 9.7601C184.421 9.7601 186.301 10.4001 187.715 11.6801C189.128 12.9334 189.835 14.9601 189.835 17.7601V32.0001H183.875V19.2401C183.875 17.6668 183.595 16.4934 183.035 15.7201C182.475 14.9201 181.581 14.5201 180.355 14.5201C178.541 14.5201 177.301 15.1468 176.635 16.4001C175.968 17.6268 175.635 19.4001 175.635 21.7201V32.0001H169.675V10.1601H174.235L175.035 12.9601H175.355C176.048 11.8401 176.995 11.0268 178.195 10.5201C179.421 10.0134 180.715 9.7601 182.075 9.7601ZM205.164 27.6401C205.83 27.6401 206.47 27.5734 207.084 27.4401C207.697 27.3068 208.31 27.1468 208.924 26.9601V31.4001C208.284 31.6668 207.484 31.8934 206.524 32.0801C205.59 32.2934 204.564 32.4001 203.444 32.4001C202.137 32.4001 200.964 32.1868 199.924 31.7601C198.91 31.3334 198.097 30.6001 197.484 29.5601C196.897 28.4934 196.604 27.0268 196.604 25.1601V14.6401H193.764V12.1201L197.044 10.1201L198.764 5.5201H202.564V10.1601H208.684V14.6401H202.564V25.1601C202.564 25.9868 202.804 26.6134 203.284 27.0401C203.764 27.4401 204.39 27.6401 205.164 27.6401ZM222.308 9.7601C225.321 9.7601 227.708 10.6268 229.468 12.3601C231.228 14.0668 232.108 16.5068 232.108 19.6801V22.5601H218.028C218.081 24.2401 218.574 25.5601 219.508 26.5201C220.468 27.4801 221.788 27.9601 223.468 27.9601C224.881 27.9601 226.161 27.8268 227.308 27.5601C228.454 27.2668 229.641 26.8268 230.868 26.2401V30.8401C229.801 31.3734 228.668 31.7601 227.468 32.0001C226.294 32.2668 224.868 32.4001 223.188 32.4001C221.001 32.4001 219.068 32.0001 217.388 31.2001C215.708 30.3734 214.388 29.1334 213.428 27.4801C212.468 25.8268 211.988 23.7468 211.988 21.2401C211.988 18.6801 212.414 16.5601 213.268 14.8801C214.148 13.1734 215.361 11.8934 216.908 11.0401C218.454 10.1868 220.254 9.7601 222.308 9.7601ZM222.348 14.0001C221.201 14.0001 220.241 14.3734 219.468 15.1201C218.721 15.8668 218.281 17.0268 218.148 18.6001H226.508C226.481 17.2668 226.134 16.1734 225.468 15.3201C224.801 14.4401 223.761 14.0001 222.348 14.0001Z" fill="#0C2769"/>
</svg>
