<svg xmlns="http://www.w3.org/2000/svg" width="159.961" height="28" viewBox="0 0 159.961 28"><g transform="translate(-260.187 -609.618)"><path d="M463.3,631.359a6.7,6.7,0,0,0-4.682,1.713l-1.83-1.256h-.1a1.9,1.9,0,0,0-1.9,1.9V646.8h4.225V636.326a4.412,4.412,0,0,1,3.141-1.37c1.713,0,2.655.885,2.655,2.969V646.8h4.225v-9.192C469.034,633.5,467.236,631.359,463.3,631.359Z" transform="translate(-130.719 -14.604)" fill="#fff"/><path d="M402.478,639.409c0-4.882,3-8.05,7.879-8.05,4.825,0,7.736,2.969,7.736,7.851s-3,8.022-7.851,8.022C405.361,647.232,402.478,644.263,402.478,639.409Zm11.362-.114c0-2.8-1.342-4.339-3.54-4.339-2.227,0-3.568,1.542-3.568,4.339s1.342,4.34,3.568,4.34C412.5,643.635,413.84,642.093,413.84,639.3Z" transform="translate(-95.58 -14.604)" fill="#fff"/><path d="M595.408,639.723c0-4.85,2.921-7.97,7.658-7.97,4.708,0,7.573,3.007,7.573,7.8,0,4.85-2.95,7.97-7.687,7.97C598.244,647.523,595.408,644.545,595.408,639.723Zm11.686-.085c0-3.12-1.56-4.879-4.084-4.879-2.5,0-4.084,1.787-4.084,4.879,0,3.12,1.589,4.879,4.084,4.879C605.534,644.517,607.094,642.73,607.094,639.638Z" transform="translate(-225.176 -14.869)" fill="#00ba96"/><path d="M645.861,613.172a2.314,2.314,0,1,1,2.3,2.213A2.107,2.107,0,0,1,645.861,613.172Zm.539,5.049h3.517v14.891H646.4Z" transform="translate(-259.066 -0.882)" fill="#00ba96"/><path d="M723.61,637.133v2.893a11.282,11.282,0,0,1-4.169.681c-3.716,0-5.219-1.929-5.219-5.758v-6.382h-2.269v-3.091h2.354l.936-3.744h2.468v3.744h5.616v3.091h-5.616v6.013c0,2.269.766,3.149,2.865,3.149A8.482,8.482,0,0,0,723.61,637.133Z" transform="translate(-303.462 -8.137)" fill="#00ba96"/><g transform="translate(342.673 628.235)"><path d="M511.458,670.126c0-2.468,1.661-3.8,4.034-3.8s3.939,1.329,3.939,3.8c0,2.42-1.566,3.749-3.939,3.749S511.458,672.546,511.458,670.126Z" transform="translate(-511.458 -666.329)" fill="#00ba96"/></g><path d="M557.041,631.753a6.769,6.769,0,0,0-4.85,1.872l-1.333-1.418h-.066a1.9,1.9,0,0,0-1.862,1.9v18.383h3.517v-5.275a14.854,14.854,0,0,0,3.091.312c5.191,0,7.63-3.375,7.63-8.14C563.167,634.646,560.9,631.753,557.041,631.753Zm-1.588,12.764a10.387,10.387,0,0,1-3.007-.426v-7.573a4.9,4.9,0,0,1,3.687-1.759c2.269,0,3.517,1.674,3.517,4.765C559.65,642.5,558.345,644.517,555.453,644.517Z" transform="translate(-193.955 -14.869)" fill="#00ba96"/><path d="M674.737,631.753a6.843,6.843,0,0,0-4.822,1.844l-1.264-1.39h-.07a1.9,1.9,0,0,0-1.9,1.9h0V647.1H670.2V636.49a4.97,4.97,0,0,1,3.688-1.73c1.985,0,3.063,1.078,3.063,3.46V647.1h3.517v-9.161C680.467,633.909,678.651,631.753,674.737,631.753Z" transform="translate(-273.052 -14.869)" fill="#00ba96"/><path d="M266.924,631.359a17.736,17.736,0,0,0-4.741.636h0a.961.961,0,0,0-.712.926h0v2.89a12.153,12.153,0,0,1,4.625-.856c2.426,0,3.4.771,3.4,2.6v.856a11.381,11.381,0,0,0-3.625-.485c-3.511,0-5.681,1.8-5.681,4.739,0,2.826,1.856,4.6,4.967,4.6a7.132,7.132,0,0,0,4.8-1.6l.228,1.142h3.54v-8.935C273.719,633.329,271.892,631.359,266.924,631.359Zm2.569,11.619a4.134,4.134,0,0,1-3,1.2c-1.227,0-2.112-.486-2.112-1.713s.913-1.8,2.484-1.8a9.3,9.3,0,0,1,2.626.4Z" transform="translate(0 -14.604)" fill="#fff"/><path d="M309.882,639.3c0-2.74,1.485-4.339,4.282-4.339a7.7,7.7,0,0,1,3.283.656v-2.925a.96.96,0,0,0-.689-.916v0a10.973,10.973,0,0,0-3.022-.411c-5.11,0-8.108,3.283-8.108,8.022,0,4.8,2.684,7.851,7.765,7.851a10.5,10.5,0,0,0,4.14-.771v-3.625a8.007,8.007,0,0,1-3.569.8C311.282,643.635,309.882,642.007,309.882,639.3Z" transform="translate(-30.524 -14.604)" fill="#fff"/><path d="M348.022,639.3c0-2.74,1.484-4.339,4.282-4.339a7.7,7.7,0,0,1,3.283.656v-2.925a.96.96,0,0,0-.689-.916v0a10.973,10.973,0,0,0-3.022-.411c-5.11,0-8.107,3.283-8.107,8.022,0,4.8,2.683,7.851,7.765,7.851a10.5,10.5,0,0,0,4.14-.771v-3.625a8.005,8.005,0,0,1-3.568.8C349.42,643.635,348.022,642.007,348.022,639.3Z" transform="translate(-56.143 -14.604)" fill="#fff"/><path d="M385.806,609.618a2.507,2.507,0,1,0,2.712,2.512A2.416,2.416,0,0,0,385.806,609.618ZM383.693,632.2h4.225V617.212h-4.225Z" transform="translate(-82.578)" fill="#fff"/></g></svg>