<svg width="238" height="42" viewBox="0 0 238 42" fill="none" xmlns="http://www.w3.org/2000/svg">
<g clip-path="url(#clip0)">
<path d="M17.08 9.72C20.0133 9.72 22.2533 10.36 23.8 11.64C25.3733 12.8933 26.16 14.8267 26.16 17.44V32H22L20.84 29.04H20.68C19.7467 30.2133 18.76 31.0667 17.72 31.6C16.68 32.1333 15.2533 32.4 13.44 32.4C11.4933 32.4 9.88 31.84 8.6 30.72C7.32 29.5733 6.68 27.8267 6.68 25.48C6.68 23.16 7.49333 21.4533 9.12 20.36C10.7467 19.24 13.1867 18.6267 16.44 18.52L20.24 18.4V17.44C20.24 16.2933 19.9333 15.4533 19.32 14.92C18.7333 14.3867 17.9067 14.12 16.84 14.12C15.7733 14.12 14.7333 14.28 13.72 14.6C12.7067 14.8933 11.6933 15.2667 10.68 15.72L8.72 11.68C9.89333 11.0667 11.1867 10.5867 12.6 10.24C14.04 9.89333 15.5333 9.72 17.08 9.72ZM17.92 21.96C16 22.0133 14.6667 22.36 13.92 23C13.1733 23.64 12.8 24.48 12.8 25.52C12.8 26.4267 13.0667 27.08 13.6 27.48C14.1333 27.8533 14.8267 28.04 15.68 28.04C16.96 28.04 18.04 27.6667 18.92 26.92C19.8 26.1467 20.24 25.0667 20.24 23.68V21.88L17.92 21.96ZM39.1806 32.4C36.754 32.4 34.7673 31.4533 33.2206 29.56C31.7006 27.64 30.9406 24.8267 30.9406 21.12C30.9406 17.3867 31.714 14.56 33.2606 12.64C34.8073 10.72 36.834 9.76 39.3406 9.76C40.914 9.76 42.2073 10.0667 43.2206 10.68C44.234 11.2933 45.034 12.0533 45.6206 12.96H45.8206C45.7406 12.5333 45.6473 11.92 45.5406 11.12C45.434 10.2933 45.3806 9.45333 45.3806 8.6V1.6H51.3406V32H46.7806L45.6206 29.16H45.3806C44.794 30.0667 44.0073 30.84 43.0206 31.48C42.034 32.0933 40.754 32.4 39.1806 32.4ZM41.2606 27.64C42.914 27.64 44.074 27.16 44.7406 26.2C45.4073 25.2133 45.754 23.7467 45.7806 21.8V21.16C45.7806 19.0267 45.4473 17.4 44.7806 16.28C44.1406 15.16 42.9406 14.6 41.1806 14.6C39.874 14.6 38.8473 15.1733 38.1006 16.32C37.354 17.44 36.9806 19.0667 36.9806 21.2C36.9806 23.3333 37.354 24.9467 38.1006 26.04C38.8473 27.1067 39.9006 27.64 41.2606 27.64ZM83.2131 9.76C85.6931 9.76 87.5598 10.4 88.8131 11.68C90.0931 12.9333 90.7331 14.96 90.7331 17.76V32H84.7731V19.24C84.7731 16.0933 83.6798 14.52 81.4931 14.52C79.9198 14.52 78.7998 15.08 78.1331 16.2C77.4665 17.32 77.1331 18.9333 77.1331 21.04V32H71.1731V19.24C71.1731 16.0933 70.0798 14.52 67.8931 14.52C66.2398 14.52 65.0931 15.1467 64.4531 16.4C63.8398 17.6267 63.5331 19.4 63.5331 21.72V32H57.5731V10.16H62.1331L62.9331 12.96H63.2531C63.9198 11.84 64.8265 11.0267 65.9731 10.52C67.1465 10.0133 68.3598 9.76 69.6131 9.76C71.2131 9.76 72.5731 10.0267 73.6931 10.56C74.8131 11.0667 75.6665 11.8667 76.2531 12.96H76.7731C77.4398 11.84 78.3598 11.0267 79.5331 10.52C80.7331 10.0133 81.9598 9.76 83.2131 9.76Z" fill="#5EAFF3"/>
<path d="M110 32.4C106.747 32.4 104.227 31.5067 102.44 29.72C100.68 27.9067 99.8 25.0667 99.8 21.2C99.8 18.5333 100.253 16.36 101.16 14.68C102.067 13 103.32 11.76 104.92 10.96C106.547 10.16 108.413 9.76 110.52 9.76C112.013 9.76 113.307 9.90667 114.4 10.2C115.52 10.4933 116.493 10.84 117.32 11.24L115.56 15.84C114.627 15.4667 113.747 15.16 112.92 14.92C112.12 14.68 111.32 14.56 110.52 14.56C107.427 14.56 105.88 16.76 105.88 21.16C105.88 23.3467 106.28 24.96 107.08 26C107.907 27.04 109.053 27.56 110.52 27.56C111.773 27.56 112.88 27.4 113.84 27.08C114.8 26.7333 115.733 26.2667 116.64 25.68V30.76C115.733 31.3467 114.773 31.76 113.76 32C112.773 32.2667 111.52 32.4 110 32.4ZM127.627 32H121.667V1.6H127.627V32ZM136.854 1.6C137.734 1.6 138.494 1.81333 139.134 2.24C139.774 2.64 140.094 3.4 140.094 4.52C140.094 5.61333 139.774 6.37333 139.134 6.8C138.494 7.22667 137.734 7.44 136.854 7.44C135.948 7.44 135.174 7.22667 134.534 6.8C133.921 6.37333 133.614 5.61333 133.614 4.52C133.614 3.4 133.921 2.64 134.534 2.24C135.174 1.81333 135.948 1.6 136.854 1.6ZM139.814 10.16V32H133.854V10.16H139.814ZM155.042 9.76C158.055 9.76 160.442 10.6267 162.202 12.36C163.962 14.0667 164.842 16.5067 164.842 19.68V22.56H150.762C150.815 24.24 151.309 25.56 152.242 26.52C153.202 27.48 154.522 27.96 156.202 27.96C157.615 27.96 158.895 27.8267 160.042 27.56C161.189 27.2667 162.375 26.8267 163.602 26.24V30.84C162.535 31.3733 161.402 31.76 160.202 32C159.029 32.2667 157.602 32.4 155.922 32.4C153.735 32.4 151.802 32 150.122 31.2C148.442 30.3733 147.122 29.1333 146.162 27.48C145.202 25.8267 144.722 23.7467 144.722 21.24C144.722 18.68 145.149 16.56 146.002 14.88C146.882 13.1733 148.095 11.8933 149.642 11.04C151.189 10.1867 152.989 9.76 155.042 9.76ZM155.082 14C153.935 14 152.975 14.3733 152.202 15.12C151.455 15.8667 151.015 17.0267 150.882 18.6H159.242C159.215 17.2667 158.869 16.1733 158.202 15.32C157.535 14.44 156.495 14 155.082 14ZM182.075 9.76C184.421 9.76 186.301 10.4 187.715 11.68C189.128 12.9333 189.835 14.96 189.835 17.76V32H183.875V19.24C183.875 17.6667 183.595 16.4933 183.035 15.72C182.475 14.92 181.581 14.52 180.355 14.52C178.541 14.52 177.301 15.1467 176.635 16.4C175.968 17.6267 175.635 19.4 175.635 21.72V32H169.675V10.16H174.235L175.035 12.96H175.355C176.048 11.84 176.995 11.0267 178.195 10.52C179.421 10.0133 180.715 9.76 182.075 9.76ZM205.164 27.64C205.83 27.64 206.47 27.5733 207.084 27.44C207.697 27.3067 208.31 27.1467 208.924 26.96V31.4C208.284 31.6667 207.484 31.8933 206.524 32.08C205.59 32.2933 204.564 32.4 203.444 32.4C202.137 32.4 200.964 32.1867 199.924 31.76C198.91 31.3333 198.097 30.6 197.484 29.56C196.897 28.4933 196.604 27.0267 196.604 25.16V14.64H193.764V12.12L197.044 10.12L198.764 5.52H202.564V10.16H208.684V14.64H202.564V25.16C202.564 25.9867 202.804 26.6133 203.284 27.04C203.764 27.44 204.39 27.64 205.164 27.64ZM222.308 9.76C225.321 9.76 227.708 10.6267 229.468 12.36C231.228 14.0667 232.108 16.5067 232.108 19.68V22.56H218.028C218.081 24.24 218.574 25.56 219.508 26.52C220.468 27.48 221.788 27.96 223.468 27.96C224.881 27.96 226.161 27.8267 227.308 27.56C228.454 27.2667 229.641 26.8267 230.868 26.24V30.84C229.801 31.3733 228.668 31.76 227.468 32C226.294 32.2667 224.868 32.4 223.188 32.4C221.001 32.4 219.068 32 217.388 31.2C215.708 30.3733 214.388 29.1333 213.428 27.48C212.468 25.8267 211.988 23.7467 211.988 21.24C211.988 18.68 212.414 16.56 213.268 14.88C214.148 13.1733 215.361 11.8933 216.908 11.04C218.454 10.1867 220.254 9.76 222.308 9.76ZM222.348 14C221.201 14 220.241 14.3733 219.468 15.12C218.721 15.8667 218.281 17.0267 218.148 18.6H226.508C226.481 17.2667 226.134 16.1733 225.468 15.32C224.801 14.44 223.761 14 222.348 14Z" fill="white"/>
</g>
<defs>
<clipPath id="clip0">
<rect width="238" height="42" fill="white"/>
</clipPath>
</defs>
</svg>
