<svg xmlns="http://www.w3.org/2000/svg" width="274.219" height="48" viewBox="0 0 274.219 48"><g transform="translate(-260.187 -609.618)"><path d="M469.373,631.359a11.483,11.483,0,0,0-8.026,2.936l-3.137-2.153h-.167a3.254,3.254,0,0,0-3.254,3.254v22.438h7.243V639.874a7.564,7.564,0,0,1,5.384-2.349c2.936,0,4.551,1.517,4.551,5.09v15.22h7.243V642.077C479.209,635.029,476.127,631.359,469.373,631.359Z" transform="translate(-85.088 -9.506)" fill="#183054"/><path d="M402.478,645.16c0-8.369,5.139-13.8,13.507-13.8,8.271,0,13.263,5.09,13.263,13.458s-5.139,13.752-13.458,13.752C407.421,658.569,402.478,653.479,402.478,645.16Zm19.478-.2c0-4.8-2.3-7.439-6.068-7.439-3.817,0-6.117,2.643-6.117,7.439s2.3,7.439,6.117,7.439C419.656,652.4,421.956,649.76,421.956,644.964Z" transform="translate(-62.215 -9.506)" fill="#183054"/><path d="M595.408,645.416c0-8.315,5.008-13.663,13.128-13.663,8.071,0,12.982,5.154,12.982,13.371,0,8.315-5.057,13.663-13.177,13.663C600.27,658.787,595.408,653.682,595.408,645.416Zm20.033-.146c0-5.349-2.674-8.363-7-8.363-4.279,0-7,3.063-7,8.363,0,5.348,2.723,8.363,7,8.363C612.766,653.634,615.441,650.57,615.441,645.271Z" transform="translate(-146.572 -9.678)" fill="#00ba96"/><path d="M645.861,614.772a3.965,3.965,0,0,1,7.925,0c0,2.431-1.653,3.793-3.987,3.793A3.613,3.613,0,0,1,645.861,614.772Zm.924,8.655h6.029v25.527h-6.029Z" transform="translate(-168.632 -0.574)" fill="#00ba96"/><path d="M731.937,648.133v4.959a19.341,19.341,0,0,1-7.147,1.167c-6.37,0-8.947-3.306-8.947-9.871v-10.94h-3.89v-5.3h4.036l1.6-6.418h4.23v6.418h9.628v5.3h-9.628v10.308c0,3.89,1.313,5.4,4.911,5.4A14.541,14.541,0,0,0,731.937,648.133Z" transform="translate(-197.53 -5.296)" fill="#00ba96"/><g transform="translate(401.592 641.533)"><path d="M511.458,672.838c0-4.23,2.848-6.509,6.915-6.509s6.752,2.279,6.752,6.509c0,4.149-2.684,6.427-6.752,6.427S511.458,676.987,511.458,672.838Z" transform="translate(-511.458 -666.329)" fill="#00ba96"/></g><path d="M562.835,631.753a11.6,11.6,0,0,0-8.315,3.209l-2.285-2.432h-.114a3.253,3.253,0,0,0-3.192,3.252V667.3h6.029v-9.044a25.463,25.463,0,0,0,5.3.535c8.9,0,13.08-5.786,13.08-13.955C573.337,636.713,569.448,631.753,562.835,631.753Zm-2.723,21.881a17.806,17.806,0,0,1-5.154-.73V639.922a8.394,8.394,0,0,1,6.321-3.015c3.89,0,6.029,2.869,6.029,8.168C567.308,650.181,565.071,653.634,560.112,653.634Z" transform="translate(-126.25 -9.678)" fill="#00ba96"/><path d="M680.491,631.753a11.731,11.731,0,0,0-8.266,3.16l-2.168-2.383h-.12a3.254,3.254,0,0,0-3.254,3.254h0v22.273h6.029V639.873a8.521,8.521,0,0,1,6.321-2.966c3.4,0,5.251,1.848,5.251,5.932v15.219h6.029v-15.7C690.313,635.449,687.2,631.753,680.491,631.753Z" transform="translate(-177.736 -9.678)" fill="#00ba96"/><path d="M271.737,631.359a30.4,30.4,0,0,0-8.127,1.09v0a1.647,1.647,0,0,0-1.221,1.588h0v4.955a20.833,20.833,0,0,1,7.928-1.468c4.159,0,5.823,1.321,5.823,4.454v1.468a19.508,19.508,0,0,0-6.215-.832c-6.019,0-9.739,3.083-9.739,8.124,0,4.845,3.181,7.879,8.516,7.879a12.226,12.226,0,0,0,8.222-2.741l.391,1.957h6.069V642.517C283.384,634.736,280.252,631.359,271.737,631.359Zm4.4,19.918A7.087,7.087,0,0,1,271,653.333c-2.1,0-3.621-.832-3.621-2.937s1.566-3.083,4.258-3.083a15.953,15.953,0,0,1,4.5.685Z" transform="translate(0 -9.506)" fill="#183054"/><path d="M312.921,644.964c0-4.7,2.545-7.439,7.341-7.439a13.2,13.2,0,0,1,5.628,1.125v-5.014a1.646,1.646,0,0,0-1.182-1.57l0,0a18.807,18.807,0,0,0-5.181-.7c-8.76,0-13.9,5.628-13.9,13.752,0,8.222,4.6,13.458,13.311,13.458a17.99,17.99,0,0,0,7.1-1.321v-6.215a13.724,13.724,0,0,1-6.118,1.37C315.319,652.4,312.921,649.613,312.921,644.964Z" transform="translate(-19.869 -9.506)" fill="#183054"/><path d="M351.06,644.964c0-4.7,2.545-7.439,7.341-7.439a13.2,13.2,0,0,1,5.628,1.125v-5.014a1.646,1.646,0,0,0-1.182-1.57v0a18.807,18.807,0,0,0-5.181-.7c-8.76,0-13.9,5.628-13.9,13.752,0,8.222,4.6,13.458,13.311,13.458a17.99,17.99,0,0,0,7.1-1.321v-6.215a13.722,13.722,0,0,1-6.117,1.37C353.458,652.4,351.06,649.613,351.06,644.964Z" transform="translate(-36.545 -9.506)" fill="#183054"/><path d="M387.723,609.618c-2.692,0-4.6,1.517-4.6,4.307s1.908,4.258,4.6,4.258,4.649-1.469,4.649-4.258S390.414,609.618,387.723,609.618ZM384.1,648.329h7.243V622.636H384.1Z" transform="translate(-53.752)" fill="#183054"/></g></svg>