<?xml version="1.0" encoding="utf-8"?>
<!-- Generator: Adobe Illustrator 25.2.3, SVG Export Plug-In . SVG Version: 6.00 Build 0)  -->
<svg version="1.1" id="Layer_1" xmlns="http://www.w3.org/2000/svg" xmlns:xlink="http://www.w3.org/1999/xlink" x="0px" y="0px"
	 viewBox="0 0 681 280" style="enable-background:new 0 0 681 280;" xml:space="preserve">
<style type="text/css">
	.st0{fill:#183054;}
	.st1{fill:#00BA96;}
	.st2{fill:#FFFFFF;}
	.st3{fill:#5434AA;}
</style>
<g>
	<g>
		<path class="st1" d="M675.85,106.71H652.9v24.01h-15.1v-24.01h-22.95v-14.5h22.95V68.36h15.1v23.86h22.95V106.71z"/>
	</g>
	<path class="st3" d="M269.83,119.77l-33.09,89.7h-20.16l-23.18-61.82l-23.52,61.82h-20.16l-32.92-89.7h19.82l23.69,66.18
		l24.69-66.18h17.64l24.19,66.52l24.36-66.52H269.83z"/>
	<path class="st3" d="M346.01,128.25c7,6.33,10.5,15.87,10.5,28.64v52.58h-19.82v-10.92c-2.58,3.92-6.24,6.92-11,8.99
		c-4.76,2.07-10.5,3.11-17.22,3.11s-12.6-1.15-17.64-3.44c-5.04-2.29-8.93-5.49-11.67-9.57c-2.75-4.09-4.12-8.71-4.12-13.86
		c0-8.06,3-14.53,8.99-19.4c5.99-4.87,15.42-7.31,28.3-7.31h23.18v-1.34c0-6.27-1.88-11.09-5.63-14.45
		c-3.75-3.36-9.32-5.04-16.72-5.04c-5.04,0-9.99,0.79-14.87,2.35c-4.87,1.57-8.99,3.75-12.35,6.55l-8.23-15.29
		c4.7-3.58,10.36-6.33,16.97-8.23c6.61-1.9,13.61-2.85,21-2.85C328.9,118.76,339.01,121.92,346.01,128.25z M326.86,191.74
		c4.09-2.41,6.97-5.85,8.65-10.33V171h-21.67c-12.09,0-18.14,3.97-18.14,11.93c0,3.81,1.51,6.83,4.54,9.07
		c3.02,2.24,7.22,3.36,12.6,3.36C318.1,195.36,322.77,194.15,326.86,191.74z"/>
	<path class="st3" d="M376,84.83h21v124.64h-21V84.83z"/>
	<path class="st3" d="M415.67,84.83h21v124.64h-21V84.83z"/>
	<path class="st3" d="M541.55,171.33h-70.38c1.23,6.61,4.45,11.84,9.66,15.71c5.21,3.86,11.67,5.8,19.4,5.8
		c9.85,0,17.97-3.25,24.36-9.74l11.26,12.94c-4.03,4.82-9.13,8.45-15.29,10.92c-6.16,2.47-13.1,3.7-20.83,3.7
		c-9.85,0-18.53-1.96-26.04-5.88c-7.5-3.92-13.3-9.38-17.38-16.38c-4.09-7-6.13-14.92-6.13-23.77c0-8.74,1.99-16.6,5.96-23.6
		c3.97-7,9.49-12.46,16.55-16.38c7.06-3.92,15.01-5.88,23.85-5.88c8.74,0,16.55,1.93,23.43,5.79c6.89,3.87,12.26,9.3,16.13,16.29
		c3.86,7,5.8,15.09,5.8,24.27C541.89,166.58,541.78,168.65,541.55,171.33z M479.49,141.52c-4.65,3.97-7.48,9.27-8.48,15.87h50.9
		c-0.9-6.49-3.64-11.76-8.23-15.79c-4.59-4.03-10.3-6.05-17.13-6.05C489.82,135.56,484.13,137.54,479.49,141.52z"/>
	<path class="st3" d="M613.75,204.59c-2.47,2.02-5.46,3.53-8.99,4.54c-3.53,1.01-7.25,1.51-11.17,1.51
		c-9.86,0-17.47-2.58-22.84-7.73c-5.38-5.15-8.06-12.66-8.06-22.51v-43.17H547.9v-16.8h14.78V99.95h21v20.49h24.02v16.8h-24.02
		v42.67c0,4.37,1.06,7.7,3.19,10c2.13,2.3,5.21,3.44,9.24,3.44c4.7,0,8.62-1.23,11.76-3.69L613.75,204.59z"/>
	<g>
		<path class="st1" d="M98.04,197.3c0-8.95,6.02-13.77,14.63-13.77c8.61,0,14.29,4.82,14.29,13.77c0,8.78-5.68,13.6-14.29,13.6
			C104.06,210.9,98.04,206.08,98.04,197.3"/>
		<path class="st0" d="M46.18,115.08c-10.71,0-20.67,1.59-28.59,3.84l0,0.01c-2.47,0.67-4.29,2.9-4.29,5.59h0v17.43
			c7.58-3.1,16.87-5.16,27.89-5.16c14.63,0,20.49,4.65,20.49,15.67v5.16c-6.54-2.07-12.91-2.93-21.87-2.93
			c-21.18,0-34.26,10.85-34.26,28.58c0,17.04,11.19,27.72,29.96,27.72c12.4,0,21.87-3.62,28.92-9.64l1.38,6.89h21.35v-53.89
			C87.16,126.96,76.14,115.08,46.18,115.08 M61.68,185.16c-4.82,4.65-10.68,7.23-18.08,7.23c-7.4,0-12.74-2.93-12.74-10.33
			c0-7.4,5.51-10.85,14.98-10.85c5.16,0,10.67,0.86,15.84,2.41V185.16z"/>
	</g>
</g>
</svg>
