<svg width="48" height="48" viewBox="0 0 48 48" fill="none" xmlns="http://www.w3.org/2000/svg">
<path d="M27.9936 29.8068H20.8737C20.6631 29.8142 20.4635 29.9039 20.3171 30.0571C20.1707 30.2102 20.0889 30.4147 20.0889 30.6276C20.0889 30.8405 20.1707 31.0451 20.3171 31.1982C20.4635 31.3513 20.6631 31.441 20.8737 31.4485H27.9936C28.2042 31.441 28.4038 31.3513 28.5502 31.1982C28.6966 31.0451 28.7784 30.8405 28.7784 30.6276C28.7784 30.4147 28.6966 30.2102 28.5502 30.0571C28.4038 29.9039 28.2042 29.8142 27.9936 29.8068Z" fill="#DB2431"/>
<path d="M31.3835 33.173H17.4856C17.3764 33.1692 17.2677 33.1876 17.1658 33.2271C17.0638 33.2667 16.9709 33.3265 16.8923 33.4031C16.8138 33.4797 16.7513 33.5715 16.7087 33.673C16.666 33.7745 16.644 33.8836 16.644 33.9939C16.644 34.1042 16.666 34.2133 16.7087 34.3148C16.7513 34.4163 16.8138 34.5081 16.8923 34.5847C16.9709 34.6613 17.0638 34.7212 17.1658 34.7607C17.2677 34.8002 17.3764 34.8186 17.4856 34.8147H31.3835C31.4926 34.8186 31.6013 34.8002 31.7032 34.7607C31.8052 34.7212 31.8982 34.6613 31.9767 34.5847C32.0552 34.5081 32.1177 34.4163 32.1603 34.3148C32.203 34.2133 32.225 34.1042 32.225 33.9939C32.225 33.8836 32.203 33.7745 32.1603 33.673C32.1177 33.5715 32.0552 33.4797 31.9767 33.4031C31.8982 33.3265 31.8052 33.2667 31.7032 33.2271C31.6013 33.1876 31.4926 33.1692 31.3835 33.173V33.173Z" fill="#DB2431"/>
<path d="M36.3653 8.04776C36.2148 7.99716 36.0539 7.98655 35.8982 8.01696C35.7424 8.04738 35.5971 8.11779 35.4761 8.22141L33.745 9.77527L32.0179 8.2274C31.8575 8.09498 31.6585 8.01937 31.4515 8.01216C31.2445 8.00495 31.0408 8.06654 30.8718 8.18748L30.8233 8.2274L29.0923 9.77527L27.3602 8.22041C27.1998 8.088 27.0009 8.01239 26.7938 8.00517C26.5868 7.99796 26.3831 8.05955 26.2141 8.18049L26.1657 8.22041L24.4346 9.76829L22.7035 8.22041C22.5432 8.088 22.3442 8.01239 22.1371 8.00517C21.9301 7.99796 21.7265 8.05955 21.5574 8.18049L21.509 8.22041L19.7769 9.76829L18.0459 8.22041C17.8856 8.08823 17.6868 8.01276 17.48 8.00555C17.2731 7.99834 17.0697 8.05979 16.9007 8.18049L16.8523 8.22041L15.1222 9.76829L13.3813 8.22041C13.2617 8.11858 13.1184 8.0492 12.9649 8.01882C12.8114 7.98844 12.6527 7.99806 12.5039 8.04676C12.3645 8.08075 12.2398 8.15976 12.1489 8.27178C12.0579 8.38381 12.0057 8.52275 12 8.66751V39.2697C12.0171 39.4622 12.1086 39.6401 12.2547 39.7649C12.4009 39.8897 12.5898 39.9513 12.7806 39.9363C13.0033 39.946 13.2213 39.8697 13.3902 39.7228L15.1222 38.1689L16.8533 39.7168C17.0137 39.8492 17.2127 39.9248 17.4197 39.932C17.6267 39.9392 17.8304 39.8776 17.9994 39.7567L18.0479 39.7168L19.7789 38.1689L21.51 39.7168C21.6704 39.8492 21.8694 39.9248 22.0764 39.932C22.2834 39.9392 22.4871 39.8776 22.6561 39.7567L22.7045 39.7168L24.4356 38.1689L26.1667 39.7168C26.3271 39.8492 26.526 39.9248 26.7331 39.932C26.9401 39.9392 27.1438 39.8776 27.3128 39.7567L27.3612 39.7168L29.0923 38.1689L30.8233 39.7168C30.9837 39.8492 31.1827 39.9248 31.3897 39.932C31.5968 39.9392 31.8004 39.8776 31.9695 39.7567L32.0179 39.7168L33.749 38.1689L35.48 39.7168C35.6482 39.8596 35.8621 39.9355 36.0818 39.9303C36.176 39.9318 36.2698 39.9159 36.3584 39.8834C36.4978 39.8494 36.6225 39.7704 36.7134 39.6584C36.8044 39.5464 36.8566 39.4074 36.8623 39.2627V8.66152C36.8588 8.51796 36.8081 8.37967 36.7181 8.26852C36.6281 8.15736 36.5039 8.07968 36.3653 8.04776V8.04776ZM33.7569 36.5083C33.5364 36.5055 33.3225 36.5839 33.1551 36.7288L31.4251 38.2827L29.694 36.7348C29.5336 36.6024 29.3346 36.5268 29.1276 36.5196C28.9206 36.5123 28.7169 36.5739 28.5479 36.6949L28.4995 36.7348L26.7684 38.2827L25.0373 36.7348C24.8769 36.6024 24.6779 36.5268 24.4709 36.5196C24.2639 36.5123 24.0602 36.5739 23.8912 36.6949L23.8428 36.7348L22.1117 38.2827L20.3787 36.7348C20.2183 36.6024 20.0193 36.5268 19.8123 36.5196C19.6052 36.5123 19.4016 36.5739 19.2325 36.6949L19.1841 36.7348L17.4451 38.2827L15.7151 36.7288C15.5477 36.5839 15.3338 36.5055 15.1133 36.5083C14.8977 36.5041 14.6886 36.583 14.5284 36.7288L13.6263 37.5561V10.382L14.5294 11.2024C14.6896 11.3482 14.8987 11.4271 15.1143 11.4229C15.3348 11.4257 15.5487 11.3473 15.7161 11.2024L17.4451 9.64853L19.1732 11.1954C19.3336 11.3278 19.5326 11.4034 19.7396 11.4106C19.9467 11.4179 20.1503 11.3563 20.3194 11.2353L20.3678 11.1954L22.1018 9.64853L23.8329 11.1954C23.9933 11.3278 24.1923 11.4034 24.3993 11.4106C24.6063 11.4179 24.81 11.3563 24.979 11.2353L25.0274 11.1954L26.7585 9.64753L28.4906 11.1954C28.651 11.3278 28.8499 11.4034 29.057 11.4106C29.264 11.4179 29.4677 11.3563 29.6367 11.2353L29.6851 11.1954L31.4162 9.64753L33.1472 11.2014C33.3146 11.3463 33.5285 11.4247 33.749 11.4219C33.9646 11.4261 34.1737 11.3472 34.3339 11.2014L35.2439 10.3741V37.5492L34.3418 36.7288C34.1816 36.583 33.9725 36.5041 33.7569 36.5083V36.5083Z" fill="#DB2431" stroke="#DB2431" stroke-width="0.5"/>
<path d="M27.5439 22.0555C27.3329 21.3904 26.9181 20.8103 26.3594 20.399C25.8006 19.9877 25.1269 19.7664 24.4355 19.7671C24.1851 19.7693 23.9397 19.6962 23.7305 19.5573C23.5212 19.4184 23.3576 19.2198 23.2603 18.9868C23.1629 18.7537 23.1364 18.4968 23.1839 18.2484C23.2314 18.0001 23.3509 17.7717 23.5272 17.592C23.7035 17.4124 23.9286 17.2898 24.1741 17.2396C24.4195 17.1895 24.6741 17.2141 24.9057 17.3104C25.1372 17.4067 25.3353 17.5703 25.4746 17.7804C25.6139 17.9905 25.6883 18.2377 25.6884 18.4907V18.5006C25.6965 18.7637 25.8057 19.0131 25.9928 19.1963C26.1799 19.3794 26.4302 19.4818 26.6907 19.4818C26.9513 19.4818 27.2016 19.3794 27.3886 19.1963C27.5757 19.0131 27.6849 18.7637 27.6931 18.5006C27.6938 17.8023 27.4747 17.1218 27.0675 16.5574C26.6602 15.9931 26.0859 15.5741 25.4275 15.361V14.7233C25.4317 14.5876 25.4089 14.4525 25.3604 14.326C25.312 14.1994 25.2388 14.084 25.1453 13.9865C25.0518 13.8891 24.9399 13.8116 24.8162 13.7587C24.6925 13.7058 24.5595 13.6785 24.4251 13.6785C24.2908 13.6785 24.1578 13.7058 24.0341 13.7587C23.9104 13.8116 23.7985 13.8891 23.705 13.9865C23.6115 14.084 23.5383 14.1994 23.4898 14.326C23.4413 14.4525 23.4185 14.5876 23.4228 14.7233V15.361C22.682 15.6026 22.051 16.1033 21.6433 16.7731C21.2356 17.4429 21.078 18.2377 21.199 19.0144C21.3199 19.7911 21.7114 20.4986 22.3029 21.0097C22.8945 21.5207 23.6472 21.8017 24.4256 21.802C24.5943 21.7961 24.7625 21.8244 24.9202 21.8852C25.0779 21.946 25.222 22.0381 25.3438 22.1561C25.4657 22.2741 25.5629 22.4155 25.6298 22.5721C25.6967 22.7286 25.7318 22.8971 25.7331 23.0676C25.7344 23.2381 25.7019 23.4072 25.6375 23.5648C25.5731 23.7224 25.478 23.8653 25.358 23.9852C25.238 24.1051 25.0954 24.1995 24.9386 24.2628C24.7819 24.3261 24.6142 24.3571 24.4454 24.3538C24.4454 24.3438 24.4454 24.3438 24.4355 24.3438C24.1004 24.3436 23.7791 24.209 23.5422 23.9697C23.3053 23.7304 23.1721 23.4059 23.1718 23.0674C23.176 22.9318 23.1532 22.7967 23.1047 22.6701C23.0562 22.5436 22.9831 22.4281 22.8896 22.3307C22.7961 22.2332 22.6842 22.1558 22.5604 22.1028C22.4367 22.0499 22.3038 22.0227 22.1694 22.0227C22.0351 22.0227 21.9021 22.0499 21.7784 22.1028C21.6547 22.1558 21.5427 22.2332 21.4492 22.3307C21.3557 22.4281 21.2826 22.5436 21.2341 22.6701C21.1856 22.7967 21.1628 22.9318 21.167 23.0674C21.168 23.7653 21.3877 24.4451 21.7947 25.0091C22.2017 25.5731 22.7751 25.9925 23.4326 26.2071V26.8548C23.4284 26.9904 23.4512 27.1255 23.4997 27.2521C23.5482 27.3786 23.6213 27.494 23.7148 27.5915C23.8083 27.6889 23.9203 27.7664 24.044 27.8193C24.1677 27.8722 24.3007 27.8995 24.435 27.8995C24.5694 27.8995 24.7023 27.8722 24.8261 27.8193C24.9498 27.7664 25.0617 27.6889 25.1552 27.5915C25.2487 27.494 25.3218 27.3786 25.3703 27.2521C25.4188 27.1255 25.4416 26.9904 25.4374 26.8548V26.2071C26.2612 25.9379 26.9457 25.3496 27.3406 24.5712C27.7355 23.7929 27.8086 22.8882 27.5439 22.0555V22.0555Z" fill="#DB2431"/>
</svg>
