<svg xmlns="http://www.w3.org/2000/svg" width="27.586" height="32.5" viewBox="0 0 27.586 32.5">
  <g id="identity" transform="translate(-38.75 0.25)">
    <path id="Trazado_2200" data-name="Trazado 2200" d="M53.18,31.37a.63.63,0,1,1-.631-.63A.631.631,0,0,1,53.18,31.37Zm-13.865,0v-.8a8.461,8.461,0,0,1,4.1-7.238,20.986,20.986,0,0,1,5.416-2.286V20.035a5.794,5.794,0,0,1-.863-.953,15.08,15.08,0,0,1-1.834-3.374,1.32,1.32,0,0,1-1.013-.751c-.19-.4-1.511-2.847-1.714-3.281A1.9,1.9,0,0,1,44.41,9.133a2,2,0,0,1,.435-.126A7.282,7.282,0,0,1,51.913,0a2.694,2.694,0,0,1,1.88.759.014.014,0,0,0,.019,0A2.7,2.7,0,0,1,55.693,0a4.95,4.95,0,0,1,4.945,4.945V6.092a10.6,10.6,0,0,1-.4,2.9,1.758,1.758,0,0,1,.445.129,1.9,1.9,0,0,1,1.007,2.542c-.214.429-1.523,2.878-1.714,3.281a1.321,1.321,0,0,1-1.012.751,15.082,15.082,0,0,1-1.837,3.382,5.8,5.8,0,0,1-.865.955v1.014a20.987,20.987,0,0,1,5.416,2.286,8.461,8.461,0,0,1,4.1,7.238v.8a.63.63,0,0,1-.63.63H55.384a.631.631,0,0,1-.629-.672.645.645,0,0,1,.651-.588h9.106a7.3,7.3,0,0,0-3.484-6.324,19.717,19.717,0,0,0-4.84-2.082,3.716,3.716,0,0,1-7.289,0,19.723,19.723,0,0,0-4.84,2.082,7.215,7.215,0,0,0-3.484,6.324h9.14a.63.63,0,0,1,.628.674.645.645,0,0,1-.651.586H39.945A.63.63,0,0,1,39.315,31.37Zm6.585-24a3.261,3.261,0,0,1,2.423-1.136,3.211,3.211,0,0,1,2.03.724,2.967,2.967,0,0,0,4.835-2.31.63.63,0,0,1,1.26,0,2.024,2.024,0,0,0,1.13,1.82,4.163,4.163,0,0,1,1.636,1.367,9.378,9.378,0,0,0,.163-1.745V4.945A3.689,3.689,0,0,0,55.693,1.26a1.441,1.441,0,0,0-1.005.406,1.269,1.269,0,0,1-1.769,0,1.44,1.44,0,0,0-1.005-.406A6,6,0,0,0,45.9,7.372Zm9.1,13.5a5.679,5.679,0,0,1-4.913,0v.732a2.457,2.457,0,1,0,4.913,0Zm1.1-2.531a13.794,13.794,0,0,0,1.84-3.523.628.628,0,0,1,.865-.358c.234-.5,1.55-2.931,1.74-3.334a.652.652,0,0,0-.361-.844.679.679,0,0,0-.574.029.633.633,0,0,1-.924-.468A2.845,2.845,0,0,0,57.044,7.61,3.157,3.157,0,0,1,55.9,6.7a4.889,4.889,0,0,1-.706.939,4.2,4.2,0,0,1-5.641.292,1.938,1.938,0,0,0-2.585.131,2.061,2.061,0,0,0-.6,1.434v.248a.631.631,0,0,1-.913.563.681.681,0,0,0-.555-.019.641.641,0,0,0-.361.844c.189.4,1.534,2.874,1.733,3.325a.645.645,0,0,1,.873.367,13.814,13.814,0,0,0,1.837,3.515,4.378,4.378,0,0,0,7.118,0ZM66.087,3.78V.63a.63.63,0,0,0-.63-.63h-3.15a.63.63,0,0,0,0,1.26h2.52V3.78a.63.63,0,1,0,1.26,0Zm0,17.2v-3.15a.63.63,0,1,0-1.26,0v2.52h-2.52a.63.63,0,0,0,0,1.26h3.15A.63.63,0,0,0,66.087,20.976ZM40.26,3.78V1.26h2.52a.63.63,0,0,0,0-1.26H39.63A.63.63,0,0,0,39,.63V3.78a.63.63,0,0,0,1.26,0Zm3.15,17.2a.63.63,0,0,0-.63-.63H40.26v-2.52a.63.63,0,1,0-1.26,0v3.15a.63.63,0,0,0,.63.63h3.15A.63.63,0,0,0,43.409,20.976Z" transform="translate(0)" fill="#63adfb" stroke="#63adf9" stroke-width="0.5"/>
  </g>
</svg>
