<svg width="48" height="48" viewBox="0 0 48 48" fill="none" xmlns="http://www.w3.org/2000/svg">
<path d="M31.6182 22.4775C32.2654 22.4775 32.79 21.9528 32.79 21.3056C32.79 20.6584 32.2654 20.1337 31.6182 20.1337C30.971 20.1337 30.4463 20.6584 30.4463 21.3056C30.4463 21.9528 30.971 22.4775 31.6182 22.4775Z" fill="#828B9F"/>
<path d="M34.3125 11.3438H32.79V10.1719C32.79 9.86107 32.6665 9.563 32.4468 9.34323C32.227 9.12347 31.9289 9 31.6181 9C31.3073 9 31.0093 9.12347 30.7895 9.34323C30.5697 9.563 30.4462 9.86107 30.4462 10.1719V11.3438H25.1137V10.1719C25.1137 9.86107 24.9903 9.563 24.7705 9.34323C24.5507 9.12347 24.2527 9 23.9419 9C23.6311 9 23.333 9.12347 23.1132 9.34323C22.8935 9.563 22.77 9.86107 22.77 10.1719V11.3438H17.4956V10.1719C17.4956 9.86107 17.3722 9.563 17.1524 9.34323C16.9326 9.12347 16.6346 9 16.3237 9C16.0129 9 15.7149 9.12347 15.4951 9.34323C15.2753 9.563 15.1519 9.86107 15.1519 10.1719V11.3438H13.6875C12.4443 11.3438 11.252 11.8376 10.3729 12.7167C9.49386 13.5958 9 14.788 9 16.0312L9 34.3125C9 35.5557 9.49386 36.748 10.3729 37.6271C11.252 38.5061 12.4443 39 13.6875 39H22.6519C22.9627 39 23.2607 38.8765 23.4805 38.6568C23.7003 38.437 23.8238 38.1389 23.8238 37.8281C23.8238 37.5173 23.7003 37.2193 23.4805 36.9995C23.2607 36.7797 22.9627 36.6562 22.6519 36.6562H13.6875C13.0661 36.6558 12.4702 36.4087 12.0308 35.9692C11.5913 35.5298 11.3442 34.9339 11.3438 34.3125V16.0312C11.3442 15.4098 11.5913 14.8139 12.0308 14.3745C12.4702 13.9351 13.0661 13.688 13.6875 13.6875H15.1519V14.8594C15.1519 15.1702 15.2753 15.4682 15.4951 15.688C15.7149 15.9078 16.0129 16.0312 16.3237 16.0312C16.6346 16.0312 16.9326 15.9078 17.1524 15.688C17.3722 15.4682 17.4956 15.1702 17.4956 14.8594V13.6875H22.77V14.8594C22.77 15.1702 22.8935 15.4682 23.1132 15.688C23.333 15.9078 23.6311 16.0312 23.9419 16.0312C24.2527 16.0312 24.5507 15.9078 24.7705 15.688C24.9903 15.4682 25.1137 15.1702 25.1137 14.8594V13.6875H30.4462V14.8594C30.4462 15.1702 30.5697 15.4682 30.7895 15.688C31.0093 15.9078 31.3073 16.0312 31.6181 16.0312C31.9289 16.0312 32.227 15.9078 32.4468 15.688C32.6665 15.4682 32.79 15.1702 32.79 14.8594V13.6875H34.3125C34.9339 13.688 35.5298 13.9351 35.9692 14.3745C36.4087 14.8139 36.6558 15.4098 36.6562 16.0312V22.7119C36.6562 23.0227 36.7797 23.3207 36.9995 23.5405C37.2193 23.7603 37.5173 23.8838 37.8281 23.8838C38.1389 23.8838 38.437 23.7603 38.6568 23.5405C38.8765 23.3207 39 23.0227 39 22.7119V16.0312C39 14.788 38.5061 13.5958 37.6271 12.7167C36.748 11.8376 35.5557 11.3438 34.3125 11.3438V11.3438Z" fill="#828B9F"/>
<path d="M31.9087 24.8194C30.5066 24.8194 29.1359 25.2352 27.9701 26.0142C26.8042 26.7932 25.8955 27.9004 25.359 29.1958C24.8224 30.4912 24.682 31.9167 24.9556 33.2919C25.2291 34.6671 25.9043 35.9302 26.8957 36.9217C27.8872 37.9132 29.1504 38.5884 30.5256 38.8619C31.9008 39.1355 33.3263 38.9951 34.6217 38.4585C35.9171 37.9219 37.0243 37.0133 37.8033 35.8474C38.5823 34.6816 38.9981 33.3109 38.9981 31.9088C38.9956 30.0293 38.2479 28.2275 36.9189 26.8986C35.5899 25.5696 33.7882 24.8219 31.9087 24.8194V24.8194ZM31.9087 36.6562C30.9701 36.6562 30.0526 36.3779 29.2722 35.8565C28.4917 35.335 27.8835 34.5939 27.5243 33.7267C27.1651 32.8596 27.0712 31.9054 27.2543 30.9848C27.4374 30.0643 27.8893 29.2187 28.553 28.555C29.2167 27.8913 30.0623 27.4393 30.9829 27.2562C31.9034 27.0731 32.8576 27.1671 33.7248 27.5263C34.5919 27.8855 35.3331 28.4937 35.8545 29.2741C36.376 30.0545 36.6543 30.9721 36.6543 31.9107C36.6529 33.1688 36.1524 34.375 35.2627 35.2646C34.3731 36.1543 33.1669 36.6548 31.9087 36.6562V36.6562Z" fill="#828B9F"/>
<path d="M33.6094 30.7369H33.0825V29.5069C33.0825 29.1961 32.9591 28.898 32.7393 28.6782C32.5195 28.4585 32.2214 28.335 31.9106 28.335C31.5998 28.335 31.3017 28.4585 31.082 28.6782C30.8622 28.898 30.7388 29.1961 30.7388 29.5069V31.9088C30.7388 32.2196 30.8622 32.5176 31.082 32.7374C31.3017 32.9572 31.5998 33.0807 31.9106 33.0807H33.6094C33.9202 33.0807 34.2182 32.9572 34.438 32.7374C34.6578 32.5176 34.7813 32.2196 34.7813 31.9088C34.7813 31.598 34.6578 31.2999 34.438 31.0801C34.2182 30.8603 33.9202 30.7369 33.6094 30.7369V30.7369Z" fill="#828B9F"/>
<path d="M26.52 22.4775C27.1672 22.4775 27.6919 21.9528 27.6919 21.3056C27.6919 20.6584 27.1672 20.1337 26.52 20.1337C25.8728 20.1337 25.3481 20.6584 25.3481 21.3056C25.3481 21.9528 25.8728 22.4775 26.52 22.4775Z" fill="#828B9F"/>
<path d="M21.4219 27.5737C22.0691 27.5737 22.5938 27.0491 22.5938 26.4019C22.5938 25.7546 22.0691 25.23 21.4219 25.23C20.7747 25.23 20.25 25.7546 20.25 26.4019C20.25 27.0491 20.7747 27.5737 21.4219 27.5737Z" fill="#828B9F"/>
<path d="M16.3237 22.4775C16.9709 22.4775 17.4956 21.9528 17.4956 21.3056C17.4956 20.6584 16.9709 20.1337 16.3237 20.1337C15.6765 20.1337 15.1519 20.6584 15.1519 21.3056C15.1519 21.9528 15.6765 22.4775 16.3237 22.4775Z" fill="#828B9F"/>
<path d="M16.3237 27.5737C16.9709 27.5737 17.4956 27.0491 17.4956 26.4019C17.4956 25.7546 16.9709 25.23 16.3237 25.23C15.6765 25.23 15.1519 25.7546 15.1519 26.4019C15.1519 27.0491 15.6765 27.5737 16.3237 27.5737Z" fill="#828B9F"/>
<path d="M16.3237 32.6719C16.9709 32.6719 17.4956 32.1472 17.4956 31.5C17.4956 30.8528 16.9709 30.3281 16.3237 30.3281C15.6765 30.3281 15.1519 30.8528 15.1519 31.5C15.1519 32.1472 15.6765 32.6719 16.3237 32.6719Z" fill="#828B9F"/>
<path d="M21.4219 32.6719C22.0691 32.6719 22.5938 32.1472 22.5938 31.5C22.5938 30.8528 22.0691 30.3281 21.4219 30.3281C20.7747 30.3281 20.25 30.8528 20.25 31.5C20.25 32.1472 20.7747 32.6719 21.4219 32.6719Z" fill="#828B9F"/>
<path d="M21.4219 22.4775C22.0691 22.4775 22.5938 21.9528 22.5938 21.3056C22.5938 20.6584 22.0691 20.1337 21.4219 20.1337C20.7747 20.1337 20.25 20.6584 20.25 21.3056C20.25 21.9528 20.7747 22.4775 21.4219 22.4775Z" fill="#828B9F"/>
</svg>
