<svg height="512" viewBox="0 0 512 512" width="512" xmlns="http://www.w3.org/2000/svg"><g id="Count_Down" data-name="Count Down"><g id="Filled"><path d="m232 24h48v64h-48z" fill="#ffcc21"/><circle cx="256" cy="288" fill="#ffdb54" r="216"/><circle cx="256" cy="288" fill="#fff" r="184"/><rect fill="#ffdb54" height="32" rx="16" width="96" x="208" y="8"/><path d="m372.34 105.98 24.26-32.53 25.65 19.13-24.32 32.61z" fill="#ffcc21"/><path d="m429.711 159.617c-23.629 157.883-155.525 280.327-317.73 289.348a215.181 215.181 0 0 0 144.019 55.035c119.293 0 216-96.707 216-216a215.02 215.02 0 0 0 -42.289-128.383z" fill="#ffcc21"/><path d="m419.882 204.39c-35.429 121.41-136.582 214.764-262.382 238.961a182.9 182.9 0 0 0 98.5 28.649c101.458 0 184-82.542 184-184a182.877 182.877 0 0 0 -20.118-83.61z" fill="#ededed"/><path d="m408 288c0-83.813-68.187-152-152-152v152z" fill="#fe9a96"/><circle cx="288" cy="176" fill="#fedcda" r="16"/><circle cx="316" cy="204" fill="#fedcda" r="8"/><circle cx="228" cy="20" fill="#ffedba" r="12"/></g><g id="Outline"><circle cx="256.2" cy="288" r="8"/><path d="m209.029 143.439a8 8 0 1 0 -5.136 10.081 8 8 0 0 0 5.136-10.081z"/><path d="m127.611 117.526a8 8 0 1 0 -5.137 10.08 8 8 0 0 0 5.137-10.08z"/><path d="m351.611 125.526a8 8 0 1 0 -5.137 10.08 8 8 0 0 0 5.137-10.08z"/><path d="m279.606 5.53a8 8 0 1 0 -5.136 10.081 8 8 0 0 0 5.136-10.081z"/><path d="m166.657 165.029a8 8 0 1 0 -1.77 11.175 8 8 0 0 0 1.77-11.175z"/><path d="m123.625 211.6a8 8 0 1 0 -1.77-11.174 8 8 0 0 0 1.77 11.174z"/><circle cx="108.967" cy="248.638" r="8" transform="matrix(.384 -.923 .923 .384 -162.451 253.816)"/><circle cx="104" cy="296" r="8"/><path d="m116.384 350.188a8 8 0 1 0 -10.081-5.137 8 8 0 0 0 10.081 5.137z"/><path d="m142.434 390.288a8 8 0 1 0 -11.174-1.77 8 8 0 0 0 11.174 1.77z"/><path d="m168.427 422.145a8 8 0 1 0 -1.77-11.174 8 8 0 0 0 1.77 11.174z"/><path d="m214.166 442.641a8 8 0 1 0 -5.137-10.08 8 8 0 0 0 5.137 10.08z"/><circle cx="264" cy="440" r="8"/><path d="m308.107 422.48a8 8 0 1 0 10.081 5.136 8 8 0 0 0 -10.081-5.136z"/><path d="m347.113 399.8a8 8 0 1 0 11.175 1.77 8 8 0 0 0 -11.175-1.77z"/><path d="m377.2 366.169a8 8 0 1 0 11.174-1.77 8 8 0 0 0 -11.174 1.77z"/><path d="m395.424 324.89a8 8 0 1 0 10.081-5.136 8 8 0 0 0 -10.081 5.136z"/><path d="m256 480c-105.869 0-192-86.131-192-192s86.131-192 192-192a191.13 191.13 0 0 1 62.356 10.393 8 8 0 1 1 -5.208 15.128 175.162 175.162 0 0 0 -57.148-9.521c-97.047 0-176 78.953-176 176s78.953 176 176 176 176-78.953 176-176a175.481 175.481 0 0 0 -64.835-136.35 8 8 0 1 1 10.122-12.39 191.414 191.414 0 0 1 70.713 148.74c0 105.869-86.131 192-192 192z"/><path d="m414.392 129.608q-2.8-2.8-5.688-5.483l19.959-26.763a8 8 0 0 0 -1.63-11.195l-25.65-19.13a8 8 0 0 0 -11.2 1.631l-19.848 26.619a221.58 221.58 0 0 0 -82.335-29.021v-18.266a24.008 24.008 0 0 0 21.462-34.751 8 8 0 0 0 -14.3 7.174 7.894 7.894 0 0 1 .838 3.577 8.009 8.009 0 0 1 -8 8h-64a8 8 0 0 1 0-16h16.714a8 8 0 0 0 0-16h-16.714a24 24 0 0 0 0 48v18.3a223.37 223.37 0 0 0 -81.053 28.284 8 8 0 0 0 8.087 13.807 207.83 207.83 0 0 1 104.966-28.391c114.691 0 208 93.309 208 208s-93.309 208-208 208-208-93.309-208-208a207.437 207.437 0 0 1 54.552-140.422 8 8 0 0 0 -11.8-10.805 224 224 0 1 0 323.641-7.165zm-142.392-65.041q-7.95-.558-16-.567-8.025 0-16 .577v-16.577h32zm126.23 20.079 12.825 9.564-14.455 19.39q-6.243-5.052-12.786-9.616z"/><path d="m408 296h-118.8a8 8 0 0 1 0-16h110.58c-4.02-73.046-62.734-131.761-135.78-135.78v111.98a8 8 0 0 1 -16 0v-120.2a8 8 0 0 1 8-8c88.224 0 160 71.775 160 160a8 8 0 0 1 -8 8z"/></g></g></svg>