<svg width="48" height="48" viewBox="0 0 48 48" fill="none" xmlns="http://www.w3.org/2000/svg">
<path d="M30.688 21.9565C31.3087 21.9565 31.812 21.4533 31.812 20.8325C31.812 20.2117 31.3087 19.7085 30.688 19.7085C30.0672 19.7085 29.564 20.2117 29.564 20.8325C29.564 21.4533 30.0672 21.9565 30.688 21.9565Z" fill="#BBBBBB"/>
<path d="M33.272 11.2805H31.811V10.1575C31.8023 9.86535 31.6801 9.58807 31.4703 9.38449C31.2606 9.18091 30.9798 9.06704 30.6875 9.06704C30.3952 9.06704 30.1144 9.18091 29.9047 9.38449C29.6949 9.58807 29.5727 9.86535 29.564 10.1575V11.2805H24.451V10.1575C24.4555 10.0072 24.4297 9.85743 24.3753 9.7172C24.3209 9.57697 24.2388 9.4491 24.1341 9.34115C24.0293 9.23321 23.9039 9.1474 23.7654 9.0888C23.6268 9.0302 23.4779 9 23.3275 9C23.1771 9 23.0282 9.0302 22.8896 9.0888C22.7511 9.1474 22.6257 9.23321 22.5209 9.34115C22.4162 9.4491 22.3341 9.57697 22.2797 9.7172C22.2253 9.85743 22.1995 10.0072 22.204 10.1575V11.2805H17.147V10.1575C17.1383 9.86535 17.0161 9.58807 16.8063 9.38449C16.5966 9.18091 16.3158 9.06704 16.0235 9.06704C15.7312 9.06704 15.4504 9.18091 15.2407 9.38449C15.0309 9.58807 14.9087 9.86535 14.9 10.1575V11.2805H13.5C12.3074 11.2805 11.1636 11.7539 10.3198 12.5968C9.47602 13.4396 9.00133 14.5829 9 15.7755L9 33.3055C9.00132 34.4973 9.47533 35.6398 10.318 36.4825C11.1607 37.3252 12.3033 37.7992 13.495 37.8005H22.095C22.3872 37.7918 22.6644 37.6696 22.868 37.4599C23.0716 37.2501 23.1855 36.9693 23.1855 36.677C23.1855 36.3847 23.0716 36.1039 22.868 35.8942C22.6644 35.6844 22.3872 35.5622 22.095 35.5535H13.495C12.8993 35.5527 12.3282 35.3157 11.907 34.8945C11.4858 34.4733 11.2488 33.9022 11.248 33.3065V15.7755C11.2488 15.1798 11.4858 14.6088 11.907 14.1875C12.3282 13.7663 12.8993 13.5293 13.495 13.5285H14.9V14.6525C14.9087 14.9447 15.0309 15.222 15.2407 15.4256C15.4504 15.6291 15.7312 15.743 16.0235 15.743C16.3158 15.743 16.5966 15.6291 16.8063 15.4256C17.0161 15.222 17.1383 14.9447 17.147 14.6525V13.5285H22.2V14.6525C22.1955 14.8029 22.2213 14.9526 22.2757 15.0928C22.3301 15.2331 22.4122 15.3609 22.5169 15.4689C22.6217 15.5768 22.7471 15.6626 22.8856 15.7212C23.0242 15.7798 23.1731 15.81 23.3235 15.81C23.4739 15.81 23.6228 15.7798 23.7614 15.7212C23.8999 15.6626 24.0253 15.5768 24.1301 15.4689C24.2348 15.3609 24.3169 15.2331 24.3713 15.0928C24.4257 14.9526 24.4515 14.8029 24.447 14.6525V13.5285H29.56V14.6525C29.5687 14.9447 29.6909 15.222 29.9007 15.4256C30.1104 15.6291 30.3912 15.743 30.6835 15.743C30.9758 15.743 31.2566 15.6291 31.4663 15.4256C31.6761 15.222 31.7983 14.9447 31.807 14.6525V13.5285H33.268C33.8646 13.528 34.4369 13.7644 34.8592 14.1858C35.2815 14.6071 35.5192 15.179 35.52 15.7755V22.1805C35.5287 22.4727 35.6509 22.75 35.8607 22.9536C36.0704 23.1571 36.3512 23.271 36.6435 23.271C36.9358 23.271 37.2166 23.1571 37.4263 22.9536C37.6361 22.75 37.7583 22.4727 37.767 22.1805V15.7755C37.7657 14.5838 37.2917 13.4412 36.449 12.5985C35.6063 11.7558 34.4637 11.2818 33.272 11.2805Z" fill="#BBBBBB"/>
<path d="M25.8 21.9565C26.4208 21.9565 26.924 21.4533 26.924 20.8325C26.924 20.2117 26.4208 19.7085 25.8 19.7085C25.1793 19.7085 24.676 20.2117 24.676 20.8325C24.676 21.4533 25.1793 21.9565 25.8 21.9565Z" fill="#BBBBBB"/>
<path d="M20.912 26.8446C21.5327 26.8446 22.036 26.3413 22.036 25.7206C22.036 25.0998 21.5327 24.5966 20.912 24.5966C20.2912 24.5966 19.788 25.0998 19.788 25.7206C19.788 26.3413 20.2912 26.8446 20.912 26.8446Z" fill="#BBBBBB"/>
<path d="M16.023 21.9565C16.6438 21.9565 17.147 21.4533 17.147 20.8325C17.147 20.2117 16.6438 19.7085 16.023 19.7085C15.4023 19.7085 14.899 20.2117 14.899 20.8325C14.899 21.4533 15.4023 21.9565 16.023 21.9565Z" fill="#BBBBBB"/>
<path d="M16.023 26.8446C16.6438 26.8446 17.147 26.3413 17.147 25.7206C17.147 25.0998 16.6438 24.5966 16.023 24.5966C15.4023 24.5966 14.899 25.0998 14.899 25.7206C14.899 26.3413 15.4023 26.8446 16.023 26.8446Z" fill="#BBBBBB"/>
<path d="M16.023 31.7335C16.6438 31.7335 17.147 31.2302 17.147 30.6095C17.147 29.9887 16.6438 29.4855 16.023 29.4855C15.4023 29.4855 14.899 29.9887 14.899 30.6095C14.899 31.2302 15.4023 31.7335 16.023 31.7335Z" fill="#BBBBBB"/>
<path d="M20.912 31.7335C21.5327 31.7335 22.036 31.2302 22.036 30.6095C22.036 29.9887 21.5327 29.4855 20.912 29.4855C20.2912 29.4855 19.788 29.9887 19.788 30.6095C19.788 31.2302 20.2912 31.7335 20.912 31.7335Z" fill="#BBBBBB"/>
<path d="M20.912 21.9565C21.5327 21.9565 22.036 21.4533 22.036 20.8325C22.036 20.2117 21.5327 19.7085 20.912 19.7085C20.2912 19.7085 19.788 20.2117 19.788 20.8325C19.788 21.4533 20.2912 21.9565 20.912 21.9565Z" fill="#BBBBBB"/>
<path fill-rule="evenodd" clip-rule="evenodd" d="M37.937 32.6015C37.8125 32.609 37.6951 32.6615 37.6065 32.7493C37.518 32.8371 37.4645 32.9541 37.456 33.0785C37.4623 34.1673 37.1518 35.2344 36.5623 36.1499C35.9729 37.0654 35.13 37.7897 34.1362 38.2346C33.1424 38.6796 32.0408 38.8259 30.9653 38.6559C29.8898 38.4858 28.8871 38.0067 28.0791 37.2768C27.2711 36.547 26.6927 35.5979 26.4145 34.5453C26.1363 33.4926 26.1702 32.3817 26.5121 31.348C26.8539 30.3142 27.4891 29.4022 28.3401 28.723C29.1911 28.0438 30.2212 27.6267 31.305 27.5225V28.7805C31.3082 28.8728 31.3316 28.9633 31.3736 29.0455C31.4156 29.1277 31.4752 29.1998 31.5481 29.2565C31.639 29.3031 31.7412 29.3229 31.843 29.3135C31.9265 29.3225 32.0106 29.3024 32.081 29.2565L35.249 27.3985C35.3288 27.364 35.3953 27.3045 35.4382 27.2289C35.4811 27.1533 35.4983 27.0657 35.487 26.9795C35.487 26.8075 35.425 26.5695 35.249 26.5125L32.081 24.7125C32.0151 24.6513 31.932 24.6115 31.843 24.5985H31.786C31.724 24.5985 31.6621 24.6555 31.5481 24.7125C31.4682 24.7648 31.4036 24.8373 31.3609 24.9227C31.3182 25.0081 31.299 25.1032 31.305 25.1985V26.4475C30.0094 26.5437 28.7701 27.0162 27.7392 27.8068C26.7083 28.5975 25.9307 29.672 25.5019 30.8983C25.0731 32.1247 25.0117 33.4496 25.3253 34.7104C25.6389 35.9712 26.3138 37.1129 27.2672 37.9955C28.2206 38.8781 29.4109 39.4631 30.6921 39.6787C31.9733 39.8943 33.2895 39.7311 34.4792 39.2091C35.6689 38.6871 36.6803 37.8291 37.3893 36.7404C38.0982 35.6517 38.4739 34.3797 38.4701 33.0805C38.4582 32.9483 38.3965 32.8255 38.2976 32.7369C38.1986 32.6484 38.0697 32.6007 37.937 32.6035V32.6015Z" fill="#BBBBBB"/>
<path d="M33.243 33.7565C33.243 34.0298 33.143 34.2648 32.943 34.4615C32.743 34.6548 32.4547 34.7748 32.078 34.8215V35.3815H31.578V34.8365C31.3313 34.8232 31.0963 34.7798 30.873 34.7065C30.6497 34.6332 30.4697 34.5432 30.333 34.4365L30.608 33.8265C30.7347 33.9198 30.883 33.9982 31.053 34.0615C31.223 34.1248 31.398 34.1648 31.578 34.1815V33.3465C31.3413 33.2898 31.1413 33.2265 30.978 33.1565C30.8147 33.0865 30.678 32.9848 30.568 32.8515C30.458 32.7148 30.403 32.5348 30.403 32.3115C30.403 32.0348 30.503 31.7982 30.703 31.6015C30.9063 31.4015 31.198 31.2798 31.578 31.2365V30.6815H32.078V31.2265C32.488 31.2598 32.8263 31.3615 33.093 31.5315L32.843 32.1465C32.593 32.0032 32.338 31.9165 32.078 31.8865V32.7365C32.3113 32.7898 32.508 32.8515 32.668 32.9215C32.8313 32.9882 32.968 33.0898 33.078 33.2265C33.188 33.3598 33.243 33.5365 33.243 33.7565ZM31.208 32.2715C31.208 32.3548 31.2397 32.4232 31.303 32.4765C31.3663 32.5298 31.458 32.5748 31.578 32.6115V31.9015C31.4513 31.9315 31.358 31.9798 31.298 32.0465C31.238 32.1098 31.208 32.1848 31.208 32.2715ZM32.078 34.1615C32.198 34.1348 32.288 34.0915 32.348 34.0315C32.408 33.9715 32.438 33.8998 32.438 33.8165C32.438 33.7332 32.4063 33.6648 32.343 33.6115C32.283 33.5582 32.1947 33.5115 32.078 33.4715V34.1615Z" fill="#BBBBBB"/>
</svg>
