<svg xmlns="http://www.w3.org/2000/svg" width="32" height="28.141" viewBox="0 0 32 28.141">
  <path id="email_1_" data-name="email (1)" d="M28.563,30.872H3.438A3.441,3.441,0,0,0,0,34.31v16.5a3.441,3.441,0,0,0,3.438,3.437h8.095a.314.314,0,0,1,.251.127l2.953,4a1.549,1.549,0,0,0,1.25.635h.007a1.549,1.549,0,0,0,1.249-.624l3.02-4.018a.314.314,0,0,1,.25-.125h8.049A3.441,3.441,0,0,0,32,50.809v-16.5a3.441,3.441,0,0,0-3.437-3.437ZM30.125,50.81a1.557,1.557,0,0,1-.059.426l-9.632-8.443,9.691-8.042ZM28.563,32.747a1.552,1.552,0,0,1,.784.212L17,43.205a1.563,1.563,0,0,1-2,0L2.656,32.957a1.552,1.552,0,0,1,.781-.21ZM1.934,51.235a1.557,1.557,0,0,1-.059-.426V34.746l9.694,8.044Zm16.83,2.01L16,56.927l-2.7-3.666a2.2,2.2,0,0,0-1.76-.889H3.482L13.03,44l.778.645a3.439,3.439,0,0,0,4.39,0L18.973,44l9.545,8.367h-8A2.2,2.2,0,0,0,18.765,53.245Z" transform="translate(0 -30.872)" fill="#e60047"/>
</svg>
