<svg xmlns="http://www.w3.org/2000/svg" xmlns:xlink="http://www.w3.org/1999/xlink" width="32" height="26" viewBox="0 0 32 26"><defs><linearGradient id="a" x1="0.5" x2="0.5" y2="1" gradientUnits="objectBoundingBox"><stop offset="0" stop-color="#f8d9af"/><stop offset="1" stop-color="#fbd199"/></linearGradient></defs><path d="M28.8,3.25H19.856a1.588,1.588,0,0,1-1.12-.471L16.464.471A1.588,1.588,0,0,0,15.344,0H3.2A3.225,3.225,0,0,0,0,3.25v19.5A3.225,3.225,0,0,0,3.2,26H28.8A3.225,3.225,0,0,0,32,22.75V6.5A3.225,3.225,0,0,0,28.8,3.25Z" fill="url(#a)"/><path d="M12.527,11A1.96,1.96,0,0,0,12.4,9.284L11.294,7.333h1.592a2.556,2.556,0,0,1,2.233,1.211l.792,1.393a.658.658,0,0,1-.034.714A.864.864,0,0,1,15.17,11ZM.8,11a.819.819,0,0,1-.686-.365.728.728,0,0,1-.032-.743L1.248,7.685A2.44,2.44,0,0,1,3.419,6.417H7.875a2.439,2.439,0,0,1,2.171,1.268l1.162,2.208a.728.728,0,0,1-.032.743A.819.819,0,0,1,10.49,11ZM9.412,3.667a1.883,1.883,0,0,1,3.765,0,1.883,1.883,0,0,1-3.765,0ZM2.823,2.291A2.323,2.323,0,0,1,5.177,0,2.322,2.322,0,0,1,7.529,2.291,2.323,2.323,0,0,1,5.177,4.584,2.323,2.323,0,0,1,2.823,2.291Z" transform="translate(8 9)" fill="#e2ab5f"/></svg>