<svg id="icon_eye" data-name="icon/eye" xmlns="http://www.w3.org/2000/svg" width="15.005" height="12" viewBox="0 0 15.005 12">
  <path id="eye" d="M16.939,9.7C15.424,6.183,12.574,4,9.5,4S3.574,6.183,2.059,9.7a.75.75,0,0,0,0,.6C3.574,13.818,6.424,16,9.5,16s5.925-2.182,7.44-5.7A.75.75,0,0,0,16.939,9.7ZM9.5,14.5c-2.377,0-4.627-1.717-5.925-4.5C4.872,7.218,7.122,5.5,9.5,5.5s4.628,1.717,5.925,4.5C14.127,12.783,11.877,14.5,9.5,14.5ZM9.5,7a3,3,0,1,0,3,3A3,3,0,0,0,9.5,7Zm0,4.5A1.5,1.5,0,1,1,11,10,1.5,1.5,0,0,1,9.5,11.5Z" transform="translate(-1.997 -4)" fill="#fff"/>
</svg>
