<svg width="48" height="48" viewBox="0 0 48 48" fill="none" xmlns="http://www.w3.org/2000/svg">
<g clip-path="url(#clip0)">
<path d="M27 23.062H32.625V24.937H27V23.062Z" fill="#63ADFB"/>
<path d="M18.563 21.187C18.3147 21.1865 18.0767 21.0876 17.9011 20.912C17.7254 20.7364 17.6266 20.4984 17.626 20.25H15.75C15.7508 20.8314 15.9314 21.3982 16.2671 21.8728C16.6028 22.3475 17.0772 22.7066 17.625 22.901V24.937H19.5V22.901C20.126 22.6803 20.6537 22.2453 20.9898 21.673C21.3259 21.1007 21.4487 20.4279 21.3366 19.7737C21.2244 19.1196 20.8844 18.5261 20.3768 18.0985C19.8692 17.6709 19.2268 17.4365 18.563 17.437C18.3775 17.437 18.1962 17.382 18.0419 17.2789C17.8877 17.1759 17.7674 17.0294 17.6964 16.858C17.6254 16.6866 17.6069 16.498 17.643 16.316C17.6792 16.1341 17.7686 15.9669 17.8998 15.8357C18.0309 15.7046 18.1981 15.6152 18.38 15.579C18.562 15.5428 18.7506 15.5614 18.922 15.6324C19.0934 15.7034 19.2399 15.8236 19.3429 15.9779C19.446 16.1321 19.501 16.3135 19.501 16.499H21.376C21.3752 15.9177 21.1946 15.3508 20.8589 14.8762C20.5232 14.4016 20.0489 14.0424 19.501 13.848V11.812H17.626V13.848C17 14.0687 16.4722 14.5038 16.1361 15.0762C15.8 15.6487 15.6773 16.3215 15.7896 16.9758C15.9019 17.63 16.242 18.2234 16.7498 18.651C17.2576 19.0786 17.9002 19.3127 18.564 19.312C18.8074 19.32 19.0381 19.4222 19.2074 19.5972C19.3767 19.7721 19.4714 20.006 19.4714 20.2495C19.4714 20.493 19.3767 20.7269 19.2074 20.9019C19.0381 21.0768 18.8074 21.1791 18.564 21.187H18.563Z" fill="#63ADFB"/>
<path d="M36.375 16.114L28.328 8H12V40H36.375V16.114ZM28.875 11.214L33.187 15.562H28.875V11.214ZM13.875 38.125V9.875H27V17.438H34.5V38.125H13.875Z" fill="#63ADFB"/>
<path d="M15.75 28.562H32.625V30.437H15.75V28.562Z" fill="#63ADFB"/>
<path d="M15.75 33.312H32.625V35.187H15.75V33.312Z" fill="#63ADFB"/>
<path d="M23.25 23.062H25.125V24.937H23.25V23.062Z" fill="#63ADFB"/>
</g>
<defs>
<clipPath id="clip0">
<rect width="24.375" height="32" fill="white" transform="translate(12 8)"/>
</clipPath>
</defs>
</svg>
