<svg width="48" height="48" viewBox="0 0 48 48" fill="none" xmlns="http://www.w3.org/2000/svg">
<path d="M42.17 25.1116L35.142 7.46063C35.0703 7.28059 34.9301 7.13639 34.7522 7.05969C34.5742 6.983 34.3731 6.9801 34.193 7.05163V7.05163L5.682 18.4046C5.56588 18.4548 5.46513 18.5349 5.39 18.6366C5.27347 18.6971 5.17559 18.7881 5.10689 18.9C5.03818 19.0119 5.00123 19.1403 5 19.2716V38.2716C5 38.3676 5.01891 38.4627 5.05564 38.5514C5.09238 38.6401 5.14623 38.7206 5.2141 38.7885C5.28198 38.8564 5.36257 38.9102 5.45126 38.947C5.53995 38.9837 5.635 39.0026 5.731 39.0026H36.419C36.515 39.0026 36.6101 38.9837 36.6987 38.947C36.7874 38.9102 36.868 38.8564 36.9359 38.7885C37.0038 38.7206 37.0576 38.6401 37.0944 38.5514C37.1311 38.4627 37.15 38.3676 37.15 38.2716V27.8936L41.762 26.0566C41.9409 25.9847 42.0841 25.8451 42.1605 25.6681C42.2369 25.4911 42.2403 25.2911 42.17 25.1116V25.1116ZM35.689 37.5386H6.461V20.0026H35.689V37.5386ZM17.189 18.5446L29.424 13.6696C29.9644 14.2376 30.6141 14.6903 31.3339 15.0007C32.0538 15.3111 32.8291 15.4726 33.613 15.4756L34.833 18.5446H17.189ZM37.148 26.3246V19.2716C37.148 19.1756 37.1291 19.0806 37.0924 18.9919C37.0556 18.9032 37.0018 18.8226 36.9339 18.7547C36.866 18.6869 36.7854 18.633 36.6967 18.5963C36.6081 18.5595 36.513 18.5406 36.417 18.5406H36.405L34.859 14.6516C34.8418 14.6192 34.8217 14.5884 34.799 14.5596C34.7612 14.3893 34.6629 14.2385 34.5225 14.135C34.382 14.0315 34.2089 13.9823 34.035 13.9966C33.3095 14.0627 32.579 13.9464 31.9099 13.6582C31.2409 13.37 30.6544 12.9192 30.204 12.3466C30.094 12.2108 29.9384 12.1193 29.7662 12.0892C29.594 12.059 29.4167 12.0922 29.267 12.1826C29.2333 12.1869 29.1999 12.1932 29.167 12.2016L14.228 18.1506C14.1388 18.1858 14.0574 18.2384 13.9888 18.3054C13.9201 18.3723 13.8654 18.4523 13.828 18.5406H9.291L34.055 8.67963L40.543 24.9706L37.148 26.3246Z" fill="#0ABE9B" stroke="#0ABE9B" stroke-width="0.5" stroke-linejoin="round"/>
<path d="M8.44498 32.6056C9.14323 32.812 9.77884 33.1896 10.294 33.7041C10.8092 34.2186 11.1877 34.8537 11.395 35.5516C11.44 35.7024 11.5324 35.8346 11.6585 35.9286C11.7846 36.0227 11.9377 36.0735 12.095 36.0736C12.1331 36.0712 12.1709 36.0655 12.208 36.0566C12.2408 36.0658 12.2742 36.0725 12.308 36.0766H29.844C29.874 36.0728 29.9038 36.0668 29.933 36.0586C30.0198 36.0798 30.1099 36.0837 30.1982 36.07C30.2865 36.0564 30.3713 36.0254 30.4476 35.979C30.5239 35.9326 30.5904 35.8715 30.6431 35.7994C30.6959 35.7273 30.7339 35.6454 30.755 35.5586V35.5586C30.9617 34.8599 31.3399 34.224 31.8551 33.7088C32.3704 33.1935 33.0063 32.8153 33.705 32.6086C33.8705 32.5576 34.0122 32.4487 34.104 32.3018C34.1958 32.1549 34.2316 31.9798 34.205 31.8086C34.2147 31.7732 34.2217 31.7371 34.226 31.7006V25.8556C34.2217 25.8191 34.2143 25.783 34.204 25.7476C34.2309 25.5764 34.1951 25.4013 34.1033 25.2543C34.0114 25.1074 33.8696 24.9985 33.704 24.9476C33.0053 24.7409 32.3695 24.3626 31.8546 23.8472C31.3396 23.3317 30.962 22.6955 30.756 21.9966C30.7046 21.8292 30.5941 21.6862 30.445 21.5942C30.296 21.5023 30.1187 21.4676 29.946 21.4966C29.9132 21.4875 29.8798 21.4809 29.846 21.4766H12.307C12.2701 21.481 12.2337 21.4884 12.198 21.4986C12.0268 21.4722 11.8519 21.5081 11.705 21.5999C11.5582 21.6917 11.4492 21.8332 11.398 21.9986C11.1911 22.6972 10.8129 23.3329 10.2976 23.8479C9.78241 24.363 9.14658 24.741 8.44798 24.9476C8.28243 24.9987 8.14079 25.1076 8.04898 25.2545C7.95716 25.4014 7.92131 25.5765 7.94798 25.7476C7.93864 25.7831 7.93195 25.8192 7.92798 25.8556V31.7006C7.93211 31.7344 7.93879 31.7678 7.94798 31.8006C7.92028 31.9721 7.95527 32.1479 8.04654 32.2957C8.1378 32.4435 8.27924 32.5536 8.44498 32.6056V32.6056ZM9.38498 26.1446C10.1109 25.8529 10.7703 25.4174 11.3235 24.8642C11.8767 24.311 12.3123 23.6515 12.604 22.9256H29.546C29.8378 23.6516 30.2735 24.3111 30.8269 24.8643C31.3803 25.4175 32.0399 25.853 32.766 26.1446V31.3966C32.0401 31.6884 31.3807 32.1239 30.8275 32.6771C30.2743 33.2303 29.8387 33.8897 29.547 34.6156H12.604C12.3123 33.8897 11.8767 33.2303 11.3235 32.6771C10.7703 32.1239 10.1109 31.6884 9.38498 31.3966V26.1446Z" fill="#0ABE9B" stroke="#0ABE9B" stroke-width="0.5" stroke-linejoin="round"/>
<path d="M21.0749 33.1536C21.942 33.1536 22.7896 32.8965 23.5105 32.4148C24.2315 31.9331 24.7934 31.2484 25.1252 30.4473C25.457 29.6462 25.5438 28.7648 25.3747 27.9143C25.2055 27.0639 24.788 26.2828 24.1749 25.6697C23.5618 25.0566 22.7806 24.639 21.9302 24.4699C21.0798 24.3007 20.1983 24.3875 19.3972 24.7193C18.5962 25.0512 17.9115 25.6131 17.4297 26.334C16.948 27.055 16.6909 27.9025 16.6909 28.7696C16.6909 29.9323 17.1528 31.0474 17.975 31.8696C18.7971 32.6917 19.9122 33.1536 21.0749 33.1536V33.1536ZM21.0749 25.8466C21.653 25.8466 22.2182 26.0181 22.6989 26.3392C23.1795 26.6604 23.5542 27.1169 23.7754 27.651C23.9967 28.1851 24.0545 28.7729 23.9418 29.3399C23.829 29.9069 23.5506 30.4277 23.1418 30.8365C22.733 31.2453 22.2122 31.5237 21.6452 31.6365C21.0782 31.7492 20.4904 31.6914 19.9563 31.4701C19.4222 31.2489 18.9657 30.8742 18.6445 30.3935C18.3233 29.9129 18.1519 29.3477 18.1519 28.7696C18.1519 27.9944 18.4599 27.2509 19.008 26.7028C19.5562 26.1546 20.2997 25.8466 21.0749 25.8466V25.8466Z" fill="#0ABE9B" stroke="#0ABE9B" stroke-width="0.5" stroke-linejoin="round"/>
<path d="M13.0409 29.8656C13.2585 29.8656 13.4712 29.8012 13.652 29.6803C13.8329 29.5594 13.9739 29.3876 14.0572 29.1866C14.1404 28.9856 14.1622 28.7644 14.1198 28.5511C14.0773 28.3377 13.9726 28.1417 13.8187 27.9878C13.6649 27.834 13.4689 27.7292 13.2555 27.6868C13.0421 27.6443 12.821 27.6661 12.62 27.7494C12.419 27.8326 12.2472 27.9736 12.1263 28.1545C12.0054 28.3354 11.9409 28.5481 11.9409 28.7656C11.9409 28.9101 11.9694 29.0531 12.0247 29.1866C12.0799 29.3201 12.161 29.4413 12.2631 29.5435C12.3652 29.6456 12.4865 29.7266 12.62 29.7819C12.7534 29.8372 12.8965 29.8656 13.0409 29.8656ZM13.0409 28.4046C13.1131 28.4046 13.1837 28.4261 13.2437 28.4662C13.3037 28.5063 13.3505 28.5633 13.3781 28.63C13.4058 28.6967 13.413 28.7701 13.3989 28.8409C13.3848 28.9117 13.3501 28.9767 13.299 29.0278C13.248 29.0788 13.1829 29.1136 13.1121 29.1276C13.0413 29.1417 12.9679 29.1345 12.9012 29.1069C12.8345 29.0792 12.7775 29.0325 12.7374 28.9724C12.6973 28.9124 12.6759 28.8418 12.6759 28.7696C12.6759 28.6728 12.7144 28.58 12.7828 28.5116C12.8513 28.4431 12.9441 28.4046 13.0409 28.4046V28.4046Z" fill="#0ABE9B" stroke="#0ABE9B" stroke-width="0.5" stroke-linejoin="round"/>
<path d="M29.1171 29.8656C29.3347 29.8656 29.5473 29.8012 29.7282 29.6803C29.9091 29.5594 30.0501 29.3876 30.1334 29.1866C30.2166 28.9856 30.2384 28.7644 30.196 28.5511C30.1535 28.3377 30.0488 28.1417 29.8949 27.9878C29.7411 27.834 29.5451 27.7292 29.3317 27.6868C29.1183 27.6443 28.8971 27.6661 28.6961 27.7494C28.4951 27.8326 28.3233 27.9736 28.2025 28.1545C28.0816 28.3354 28.0171 28.5481 28.0171 28.7656C28.0171 28.9101 28.0455 29.0531 28.1008 29.1866C28.1561 29.3201 28.2371 29.4413 28.3393 29.5435C28.4414 29.6456 28.5627 29.7266 28.6961 29.7819C28.8296 29.8372 28.9726 29.8656 29.1171 29.8656ZM29.1171 28.4046C29.1893 28.4046 29.2598 28.4261 29.3199 28.4662C29.3799 28.5063 29.4267 28.5633 29.4543 28.63C29.4819 28.6967 29.4892 28.7701 29.4751 28.8409C29.461 28.9117 29.4262 28.9767 29.3752 29.0278C29.3241 29.0788 29.2591 29.1136 29.1883 29.1276C29.1175 29.1417 29.0441 29.1345 28.9774 29.1069C28.9107 29.0792 28.8537 29.0325 28.8136 28.9724C28.7735 28.9124 28.7521 28.8418 28.7521 28.7696C28.7521 28.6728 28.7905 28.58 28.859 28.5116C28.9274 28.4431 29.0203 28.4046 29.1171 28.4046V28.4046Z" fill="#0ABE9B" stroke="#0ABE9B" stroke-width="0.5" stroke-linejoin="round"/>
</svg>
