<svg width="48" height="48" viewBox="0 0 48 48" fill="none" xmlns="http://www.w3.org/2000/svg">
<path d="M20.0009 23.332C18.6826 23.3318 17.3939 22.9407 16.2978 22.2081C15.2017 21.4755 14.3475 20.4343 13.8431 19.2163C13.3387 17.9982 13.2068 16.6579 13.4641 15.3649C13.7215 14.0719 14.3564 12.8842 15.2887 11.9521C16.221 11.0199 17.4088 10.3851 18.7018 10.128C19.9949 9.87089 21.3351 10.003 22.5531 10.5075C23.7711 11.0121 24.8122 11.8665 25.5446 12.9627C26.277 14.0589 26.6679 15.3476 26.6679 16.666C26.6658 18.4335 25.9627 20.1279 24.7128 21.3776C23.4629 22.6273 21.7684 23.3302 20.0009 23.332ZM20.0009 11.999C19.0782 11.9992 18.1762 12.273 17.409 12.7858C16.6419 13.2986 16.044 14.0273 15.6909 14.8799C15.3379 15.7324 15.2456 16.6705 15.4256 17.5755C15.6057 18.4806 16.0501 19.3119 16.7026 19.9644C17.3551 20.6169 18.1864 21.0612 19.0914 21.2413C19.9964 21.4214 20.9345 21.3291 21.7871 20.976C22.6396 20.623 23.3684 20.0251 23.8812 19.2579C24.3939 18.4908 24.6677 17.5888 24.6679 16.666C24.6666 15.4286 24.1745 14.2423 23.2995 13.3674C22.4246 12.4925 21.2383 12.0003 20.0009 11.999V11.999Z" fill="#4E27AF"/>
<path d="M31 37.998H9C8.73478 37.998 8.48043 37.8926 8.29289 37.7051C8.10536 37.5176 8 37.2632 8 36.998V32.331C8.00212 30.652 8.67002 29.0424 9.85723 27.8552C11.0444 26.668 12.654 26.0001 14.333 25.998H25.666C27.3453 25.9998 28.9553 26.6678 30.1428 27.8552C31.3302 29.0427 31.9981 30.6527 32 32.332V36.999C31.9997 37.264 31.8943 37.5181 31.7068 37.7054C31.5192 37.8928 31.265 37.998 31 37.998ZM10 35.998H30V32.331C29.9987 31.1822 29.5417 30.0809 28.7294 29.2686C27.9171 28.4562 26.8158 27.9993 25.667 27.998H14.333C13.1841 27.9993 12.0826 28.4564 11.2702 29.2689C10.4579 30.0814 10.0011 31.1831 10 32.332V35.998Z" fill="#4E27AF"/>
<path d="M38.998 23.665H27.666C27.4008 23.665 27.1465 23.5596 26.9589 23.3721C26.7714 23.1845 26.666 22.9302 26.666 22.665C26.666 22.3998 26.7714 22.1454 26.9589 21.9579C27.1465 21.7703 27.4008 21.665 27.666 21.665H38.998C39.2632 21.665 39.5176 21.7703 39.7051 21.9579C39.8926 22.1454 39.998 22.3998 39.998 22.665C39.998 22.9302 39.8926 23.1845 39.7051 23.3721C39.5176 23.5596 39.2632 23.665 38.998 23.665Z" fill="#4E27AF"/>
<path d="M33.6661 28.998C33.4681 28.9982 33.2746 28.9396 33.1099 28.8296C32.9453 28.7197 32.817 28.5634 32.7413 28.3805C32.6656 28.1976 32.6459 27.9963 32.6846 27.8022C32.7234 27.6081 32.8189 27.4298 32.9591 27.29L37.5861 22.663L32.9591 18.036C32.7714 17.8484 32.666 17.5939 32.666 17.3285C32.666 17.0631 32.7714 16.8086 32.9591 16.621C33.1467 16.4334 33.4012 16.3279 33.6665 16.3279C33.9319 16.3279 34.1864 16.4334 34.3741 16.621L39.7071 21.954C39.8001 22.0469 39.8738 22.1572 39.9241 22.2786C39.9744 22.4 40.0003 22.5301 40.0003 22.6615C40.0003 22.7929 39.9744 22.923 39.9241 23.0444C39.8738 23.1658 39.8001 23.2761 39.7071 23.369L34.3741 28.702C34.2816 28.7958 34.1713 28.8703 34.0498 28.9211C33.9282 28.9719 33.7978 28.998 33.6661 28.998V28.998Z" fill="#4E27AF"/>
</svg>
