<svg width="48" height="48" viewBox="0 0 48 48" fill="none" xmlns="http://www.w3.org/2000/svg">
<g clip-path="url(#clip0)">
<path d="M24.0001 40C20.8355 40.0001 17.742 39.0618 15.1107 37.3037C12.4794 35.5456 10.4285 33.0467 9.21748 30.123C8.00643 27.1993 7.68957 23.9822 8.30699 20.8784C8.9244 17.7746 10.4483 14.9236 12.6861 12.686C15.6868 9.68533 19.7565 7.99957 24.0001 7.99957C28.2437 7.99957 32.3134 9.68533 35.3141 12.686C38.3148 15.6866 40.0005 19.7564 40.0005 24C40.0005 28.2436 38.3148 32.3133 35.3141 35.314C33.8316 36.8041 32.0684 37.9856 30.1263 38.7899C28.1843 39.5943 26.1021 40.0055 24.0001 40ZM24.0001 9.99998C21.2312 9.99998 18.5244 10.8211 16.2221 12.3594C13.9198 13.8977 12.1254 16.0843 11.0658 18.6424C10.0062 21.2006 9.72891 24.0155 10.2691 26.7312C10.8093 29.447 12.1427 31.9415 14.1006 33.8995C16.0585 35.8574 18.5531 37.1908 21.2688 37.731C23.9846 38.2712 26.7995 37.9939 29.3577 36.9343C31.9158 35.8747 34.1023 34.0803 35.6407 31.778C37.179 29.4757 38.0001 26.7689 38.0001 24C37.9959 20.2883 36.5195 16.7298 33.8949 14.1052C31.2703 11.4806 27.7118 10.0042 24.0001 9.99998Z" fill="#63ADF9"/>
<path d="M24 23C23.5055 23 23.0222 22.8534 22.6111 22.5787C22.1999 22.304 21.8795 21.9135 21.6903 21.4567C21.5011 20.9999 21.4516 20.4972 21.548 20.0123C21.6445 19.5273 21.8826 19.0819 22.2322 18.7322C22.5819 18.3826 23.0273 18.1445 23.5123 18.048C23.9972 17.9516 24.4999 18.0011 24.9567 18.1903C25.4135 18.3795 25.804 18.7 26.0787 19.1111C26.3534 19.5222 26.5 20.0055 26.5 20.5C26.5 20.7652 26.6054 21.0196 26.7929 21.2071C26.9804 21.3946 27.2348 21.5 27.5 21.5C27.7652 21.5 28.0196 21.3946 28.2071 21.2071C28.3946 21.0196 28.5 20.7652 28.5 20.5C28.4986 19.4807 28.1518 18.492 27.5161 17.6953C26.8805 16.8985 25.9935 16.3407 25 16.113V15C25 14.7348 24.8946 14.4804 24.7071 14.2929C24.5196 14.1054 24.2652 14 24 14C23.7348 14 23.4804 14.1054 23.2929 14.2929C23.1054 14.4804 23 14.7348 23 15V16.113C21.9218 16.3593 20.972 16.994 20.332 17.896C19.6921 18.798 19.4067 19.9041 19.5303 21.0032C19.654 22.1022 20.1781 23.1172 21.0025 23.8545C21.827 24.5917 22.894 24.9995 24 25C24.4945 25 24.9778 25.1466 25.3889 25.4213C25.8001 25.696 26.1205 26.0865 26.3097 26.5433C26.4989 27.0001 26.5484 27.5028 26.452 27.9877C26.3555 28.4727 26.1174 28.9181 25.7678 29.2678C25.4181 29.6174 24.9727 29.8555 24.4877 29.952C24.0028 30.0484 23.5001 29.9989 23.0433 29.8097C22.5865 29.6205 22.196 29.3 21.9213 28.8889C21.6466 28.4778 21.5 27.9945 21.5 27.5C21.5 27.2348 21.3946 26.9804 21.2071 26.7929C21.0196 26.6054 20.7652 26.5 20.5 26.5C20.2348 26.5 19.9804 26.6054 19.7929 26.7929C19.6054 26.9804 19.5 27.2348 19.5 27.5C19.5014 28.5193 19.8482 29.508 20.4839 30.3047C21.1195 31.1015 22.0065 31.6593 23 31.887V33C23 33.2652 23.1054 33.5196 23.2929 33.7071C23.4804 33.8946 23.7348 34 24 34C24.2652 34 24.5196 33.8946 24.7071 33.7071C24.8946 33.5196 25 33.2652 25 33V31.887C26.0782 31.6407 27.028 31.006 27.668 30.104C28.3079 29.202 28.5933 28.0959 28.4697 26.9968C28.346 25.8978 27.8219 24.8828 26.9975 24.1455C26.173 23.4083 25.106 23.0005 24 23Z" fill="#63ADF9"/>
</g>
<defs>
<clipPath id="clip0">
<rect width="32" height="32" fill="white" transform="translate(8 8)"/>
</clipPath>
</defs>
</svg>
