<svg width="50" height="50" viewBox="0 0 50 50" fill="none" xmlns="http://www.w3.org/2000/svg">
<path d="M12.5 0C10.7812 0 9.375 1.40625 9.375 3.125V46.875C9.375 48.5938 10.7812 50 12.5 50H43.75C45.4688 50 46.875 48.5938 46.875 46.875V12.5L34.375 0H12.5Z" fill="#E2E5E7"/>
<path d="M37.5 12.5H46.875L34.375 0V9.375C34.375 11.0938 35.7812 12.5 37.5 12.5Z" fill="#B0B7BD"/>
<path d="M46.875 21.875L37.5 12.5H46.875V21.875Z" fill="#CAD1D8"/>
<path d="M40.625 40.625C40.625 41.4844 39.9219 42.1875 39.0625 42.1875H4.6875C3.82812 42.1875 3.125 41.4844 3.125 40.625V25C3.125 24.1406 3.82812 23.4375 4.6875 23.4375H39.0625C39.9219 23.4375 40.625 24.1406 40.625 25V40.625Z" fill="#F15642"/>
<path d="M9.93591 29.6046C9.93591 29.1921 10.2609 28.7421 10.7844 28.7421H13.6703C15.2953 28.7421 16.7578 29.8296 16.7578 31.914C16.7578 33.889 15.2953 34.989 13.6703 34.989H11.5844V36.639C11.5844 37.189 11.2344 37.4999 10.7844 37.4999C10.3719 37.4999 9.93591 37.189 9.93591 36.639V29.6046V29.6046ZM11.5844 30.3156V33.4281H13.6703C14.5078 33.4281 15.1703 32.689 15.1703 31.914C15.1703 31.0406 14.5078 30.3156 13.6703 30.3156H11.5844Z" fill="white"/>
<path d="M19.2047 37.4999C18.7922 37.4999 18.3422 37.2749 18.3422 36.7265V29.6296C18.3422 29.1812 18.7922 28.8546 19.2047 28.8546H22.0656C27.775 28.8546 27.65 37.4999 22.1781 37.4999H19.2047V37.4999ZM19.9922 30.3796V35.9765H22.0656C25.439 35.9765 25.589 30.3796 22.0656 30.3796H19.9922V30.3796Z" fill="white"/>
<path d="M29.675 30.4797V32.4656H32.861C33.311 32.4656 33.761 32.9156 33.761 33.3515C33.761 33.764 33.311 34.1015 32.861 34.1015H29.675V36.725C29.675 37.1625 29.3641 37.4984 28.9266 37.4984C28.3766 37.4984 28.0406 37.1625 28.0406 36.725V29.6281C28.0406 29.1797 28.3782 28.8531 28.9266 28.8531H33.3125C33.8625 28.8531 34.1875 29.1797 34.1875 29.6281C34.1875 30.0281 33.8625 30.4781 33.3125 30.4781H29.675V30.4797Z" fill="white"/>
<path d="M39.0625 42.1875H9.375V43.75H39.0625C39.9219 43.75 40.625 43.0469 40.625 42.1875V40.625C40.625 41.4844 39.9219 42.1875 39.0625 42.1875Z" fill="#CAD1D8"/>
</svg>
