<svg width="48" height="48" viewBox="0 0 48 48" fill="none" xmlns="http://www.w3.org/2000/svg">
<path d="M17.435 29.5469C17.435 29.0146 17.0664 28.7005 16.417 28.7005C16.2382 28.6966 16.0595 28.7141 15.8848 28.7524V30.4544C16.0286 30.4811 16.175 30.4922 16.3212 30.4877C17.0105 30.4863 17.435 30.1377 17.435 29.5469Z" fill="#E80654"/>
<path d="M21.4579 28.718C21.2601 28.713 21.0624 28.73 20.8684 28.7685V32.537C21.0185 32.5604 21.1704 32.5694 21.3222 32.5636C21.5908 32.5908 21.8622 32.5568 22.1158 32.464C22.3694 32.3712 22.5986 32.222 22.7863 32.0279C22.9739 31.8337 23.1151 31.5995 23.1992 31.3428C23.2832 31.0862 23.308 30.8139 23.2716 30.5463C23.2992 30.3008 23.2714 30.0521 23.1902 29.8188C23.109 29.5854 22.9766 29.3732 22.8026 29.1978C22.6286 29.0224 22.4174 28.8882 22.1847 28.8052C21.952 28.7221 21.7036 28.6923 21.4579 28.718Z" fill="#E80654"/>
<path d="M28.9268 9H16.0991C15.1982 9.00141 14.3346 9.35992 13.6976 9.99696C13.0605 10.634 12.702 11.4976 12.7006 12.3985V24.9681H12.3693C12.0061 24.9681 11.6578 25.1123 11.401 25.3691C11.1443 25.6259 11 25.9742 11 26.3373V34.6434C11 35.0063 11.1441 35.3544 11.4006 35.6111C11.6571 35.8679 12.005 36.0123 12.3679 36.0126H12.6993V37.5363C12.7 38.4377 13.0584 39.3021 13.6958 39.9395C14.3333 40.577 15.1977 40.9354 16.0991 40.9361H33.6015C34.5025 40.9351 35.3663 40.5767 36.0034 39.9396C36.6405 39.3024 36.9989 38.4386 37 37.5376V17.0452L28.9268 9ZM14.5915 27.837C15.1741 27.7493 15.7629 27.7097 16.352 27.7186C16.9741 27.6691 17.5947 27.8318 18.1124 28.1803C18.3089 28.3413 18.4663 28.5446 18.573 28.775C18.6797 29.0055 18.7329 29.2571 18.7285 29.511C18.7383 29.7633 18.6961 30.0149 18.6046 30.2503C18.513 30.4856 18.374 30.6996 18.1963 30.8789C17.6721 31.312 17.0026 31.529 16.324 31.4857C16.1755 31.4871 16.027 31.4786 15.8796 31.4604V33.5203H14.5888L14.5915 27.837ZM33.6001 38.855H16.0991C15.7501 38.8543 15.4156 38.7152 15.1689 38.4683C14.9222 38.2213 14.7835 37.8866 14.7831 37.5376V36.0126H31.0985C31.4616 36.0126 31.8099 35.8684 32.0667 35.6116C32.3235 35.3548 32.4677 35.0065 32.4677 34.6434V26.3373C32.4677 25.9742 32.3235 25.6259 32.0667 25.3691C31.8099 25.1123 31.4616 24.9681 31.0985 24.9681H14.7831V12.3985C14.7842 12.0499 14.9232 11.716 15.1698 11.4696C15.4164 11.2232 15.7505 11.0845 16.0991 11.0838L28.147 11.0719V15.5203C28.1474 16.1452 28.3958 16.7444 28.8377 17.1863C29.2795 17.6282 29.8788 17.8766 30.5037 17.8769L34.8656 17.8649L34.9148 37.5323C34.9155 37.7054 34.8821 37.8769 34.8165 38.0371C34.7508 38.1973 34.6543 38.343 34.5323 38.4658C34.4103 38.5887 34.2653 38.6863 34.1056 38.753C33.9459 38.8198 33.7746 38.8544 33.6015 38.855H33.6001ZM19.5602 33.495V27.837C20.1432 27.7534 20.7317 27.7138 21.3207 27.7186C22.1539 27.6517 22.9853 27.8684 23.68 28.3333C24.0067 28.5888 24.2662 28.9201 24.436 29.2985C24.6057 29.677 24.6806 30.0911 24.654 30.505C24.679 30.9406 24.606 31.3762 24.4404 31.7799C24.2749 32.1836 24.0209 32.545 23.6973 32.8377C22.9217 33.3835 21.9821 33.6461 21.0359 33.5815C20.5427 33.585 20.0497 33.5561 19.5602 33.495V33.495ZM28.8882 30.1444V31.2089H26.8257V33.5256H25.5176V27.7625H29.0386V28.827H26.8257V30.143L28.8882 30.1444Z" fill="#E80654"/>
</svg>
