<svg xmlns="http://www.w3.org/2000/svg" width="32.25" height="26.568" viewBox="0 0 32.25 26.568">
  <g id="speech-bubble" transform="translate(0.125 -45.326)">
    <path id="Trazado_2202" data-name="Trazado 2202" d="M60.937,246.326h5.125a.938.938,0,1,0,0-1.875H60.937a.938.938,0,0,0,0,1.875Z" transform="translate(-56.25 -186.562)" fill="#00ba96" stroke="#fff" stroke-width="0.25"/>
    <path id="Trazado_2203" data-name="Trazado 2203" d="M70.875,304.451H60.937a.937.937,0,1,0,0,1.875h9.938a.937.937,0,1,0,0-1.875Z" transform="translate(-56.25 -242.813)" fill="#00ba96" stroke="#fff" stroke-width="0.25"/>
    <path id="Trazado_2204" data-name="Trazado 2204" d="M29.813,45.451H14.875a2.19,2.19,0,0,0-2.187,2.188v5.875H2.188A2.19,2.19,0,0,0,0,55.7v9.938a2.19,2.19,0,0,0,2.188,2.188H4.562V70.2a1.546,1.546,0,0,0,.915,1.422,1.572,1.572,0,0,0,.653.143,1.55,1.55,0,0,0,1.02-.386l4.092-3.557h5.883a2.19,2.19,0,0,0,2.188-2.188V59.764h1.446l4.092,3.557a1.55,1.55,0,0,0,1.02.386,1.572,1.572,0,0,0,.653-.143,1.546,1.546,0,0,0,.915-1.422V59.763h2.375A2.19,2.19,0,0,0,32,57.576V47.638A2.19,2.19,0,0,0,29.813,45.451Zm.313,12.125a.313.313,0,0,1-.312.312H26.5a.938.938,0,0,0-.937.938v2.63l-3.839-3.338a.938.938,0,0,0-.615-.23H14.875a.313.313,0,0,1-.313-.312V47.639a.313.313,0,0,1,.313-.312H29.813a.313.313,0,0,1,.313.313Zm-13,8.375H10.891a.938.938,0,0,0-.615.23L6.438,69.519v-2.63a.938.938,0,0,0-.937-.937H2.188a.313.313,0,0,1-.313-.312V55.7a.313.313,0,0,1,.313-.312h10.5v2.187a2.19,2.19,0,0,0,2.188,2.187h2.563v5.875A.313.313,0,0,1,17.125,65.951Z" fill="#00ba96" stroke="#fff" stroke-width="0.25"/>
    <path id="Trazado_2205" data-name="Trazado 2205" d="M263.938,117.326h5.125a.938.938,0,0,0,0-1.875h-5.125a.938.938,0,1,0,0,1.875Z" transform="translate(-246.563 -65.625)" fill="#00ba96" stroke="#fff" stroke-width="0.25"/>
    <path id="Trazado_2206" data-name="Trazado 2206" d="M273.875,175.451h-9.937a.937.937,0,1,0,0,1.875h9.938a.937.937,0,1,0,0-1.875Z" transform="translate(-246.563 -121.875)" fill="#00ba96" stroke="#fff" stroke-width="0.25"/>
  </g>
</svg>
