<svg width="48" height="48" viewBox="0 0 48 48" fill="none" xmlns="http://www.w3.org/2000/svg">
<path fill-rule="evenodd" clip-rule="evenodd" d="M36.262 23.663C35.9876 23.6796 35.7285 23.7955 35.5332 23.9891C35.338 24.1827 35.2199 24.4407 35.201 24.715C35.2146 27.1173 34.5294 29.4718 33.2287 31.4916C31.928 33.5114 30.068 35.1094 27.8753 36.091C25.6826 37.0726 23.2518 37.3954 20.879 37.0201C18.5061 36.6447 16.2935 35.5875 14.5108 33.9771C12.7281 32.3667 11.4521 30.2727 10.8383 27.9501C10.2245 25.6274 10.2993 23.1764 11.0536 20.8956C11.808 18.6147 13.2094 16.6024 15.0871 15.1038C16.9647 13.6051 19.2376 12.6849 21.629 12.455V15.231C21.6358 15.4347 21.6873 15.6343 21.7797 15.8159C21.8722 15.9976 22.0033 16.1567 22.164 16.282C22.3643 16.3847 22.5898 16.4284 22.814 16.408C22.9987 16.4283 23.1846 16.3838 23.34 16.282L30.331 12.182C30.5067 12.1053 30.6528 11.9737 30.7475 11.8069C30.8421 11.6402 30.8802 11.4472 30.856 11.257C30.856 10.878 30.719 10.357 30.331 10.226L23.34 6.252C23.1943 6.11661 23.0108 6.02873 22.814 6H22.689C22.553 6 22.416 6.126 22.164 6.252C21.988 6.36741 21.8457 6.52744 21.7518 6.71576C21.6578 6.90408 21.6154 7.11396 21.629 7.32399V10.079C18.7703 10.2913 16.0358 11.3337 13.7613 13.0782C11.4867 14.8227 9.77115 17.1934 8.82499 19.8992C7.87884 22.6051 7.74325 25.5283 8.4351 28.3101C9.12695 31.0919 10.6161 33.6111 12.7195 35.5585C14.823 37.5058 17.4493 38.7967 20.276 39.2724C23.1028 39.7482 26.007 39.3882 28.632 38.2366C31.257 37.0851 33.4887 35.1921 35.053 32.7901C36.6173 30.388 37.4462 27.5815 37.4379 24.715C37.4116 24.4233 37.2756 24.1524 37.0573 23.9572C36.839 23.7619 36.5548 23.6567 36.262 23.663V23.663Z" fill="#DC2B37"/>
<path d="M26.7485 27.7034C26.7485 28.3993 26.4842 28.9894 25.9557 29.4739C25.436 29.9584 24.6785 30.2403 23.6831 30.3195V31.8126H22.8375V30.3195C22.1944 30.2843 21.5822 30.1654 21.0008 29.9628C20.4283 29.7514 19.9702 29.4871 19.6267 29.17L20.1156 28.1394C20.4327 28.4301 20.8335 28.6723 21.318 28.8661C21.8024 29.0511 22.3089 29.1612 22.8375 29.1964V26.131C22.2208 25.9813 21.7055 25.8183 21.2915 25.6421C20.8863 25.466 20.5428 25.2061 20.2609 24.8626C19.9878 24.519 19.8513 24.0698 19.8513 23.5148C19.8513 22.819 20.1024 22.2288 20.6045 21.7443C21.1154 21.2598 21.8597 20.978 22.8375 20.8987V19.3924H23.6831V20.8855C24.1852 20.9031 24.6697 20.9824 25.1365 21.1233C25.6122 21.2642 26.0218 21.4536 26.3653 21.6915L25.9293 22.7485C25.2158 22.2993 24.4671 22.0526 23.6831 22.0086V25.0872C24.3261 25.2457 24.8546 25.4131 25.2686 25.5893C25.6827 25.7567 26.0306 26.0121 26.3125 26.3556C26.6032 26.6904 26.7485 27.1396 26.7485 27.7034ZM21.1462 23.462C21.1462 23.8408 21.2915 24.1359 21.5822 24.3473C21.8729 24.5587 22.2913 24.7348 22.8375 24.8758V22.0218C22.2737 22.0922 21.8509 22.2596 21.569 22.5239C21.2871 22.7793 21.1462 23.092 21.1462 23.462ZM23.6831 29.1832C24.2733 29.1304 24.7137 28.9806 25.0044 28.734C25.3039 28.4785 25.4536 28.1614 25.4536 27.7826C25.4536 27.3951 25.2995 27.1 24.9912 26.8974C24.6917 26.686 24.2556 26.501 23.6831 26.3424V29.1832Z" fill="#DC2B37"/>
</svg>
