<svg id="sms" xmlns="http://www.w3.org/2000/svg" width="32" height="32" viewBox="0 0 32 32">
  <g id="Grupo_687" data-name="Grupo 687">
    <g id="Grupo_686" data-name="Grupo 686">
      <path id="Trazado_2207" data-name="Trazado 2207" d="M29.188,7.625H20.75V2.813A2.816,2.816,0,0,0,17.938,0H2.813A2.816,2.816,0,0,0,0,2.813V29.188A2.816,2.816,0,0,0,2.813,32H17.938a2.816,2.816,0,0,0,2.813-2.812V23.951l3.2-3.2h5.237A2.816,2.816,0,0,0,32,17.938v-7.5A2.816,2.816,0,0,0,29.188,7.625ZM1.875,2.813a.939.939,0,0,1,.938-.937H17.938a.939.939,0,0,1,.938.938V3.75h-17Zm17,26.375a.939.939,0,0,1-.937.938H2.813a.939.939,0,0,1-.937-.937V26.375h17Zm0-4.687h-17V5.625h17v2h-.937a2.816,2.816,0,0,0-2.812,2.813v7.5a2.816,2.816,0,0,0,2.813,2.813h.938Zm11.25-6.562a.939.939,0,0,1-.937.938H23.563a.937.937,0,0,0-.663.275L20.75,21.3V19.813h0a.938.938,0,0,0-.937-.937H17.938A.939.939,0,0,1,17,17.938v-7.5a.939.939,0,0,1,.938-.937h11.25a.939.939,0,0,1,.938.938Z" fill="#4e27af"/>
    </g>
  </g>
  <g id="Grupo_689" data-name="Grupo 689" transform="translate(18.875 11.375)">
    <g id="Grupo_688" data-name="Grupo 688">
      <path id="Trazado_2208" data-name="Trazado 2208" d="M310.438,182h-7.5a.938.938,0,0,0,0,1.875h7.5a.938.938,0,0,0,0-1.875Z" transform="translate(-302 -182)" fill="#4e27af"/>
    </g>
  </g>
  <g id="Grupo_691" data-name="Grupo 691" transform="translate(18.875 15.125)">
    <g id="Grupo_690" data-name="Grupo 690">
      <path id="Trazado_2209" data-name="Trazado 2209" d="M306.688,242h-3.75a.938.938,0,0,0,0,1.875h3.75a.937.937,0,0,0,0-1.875Z" transform="translate(-302 -242)" fill="#4e27af"/>
    </g>
  </g>
</svg>
