<svg width="56" height="56" viewBox="0 0 56 56" fill="none" xmlns="http://www.w3.org/2000/svg">
<rect width="56" height="56" fill="#F3F4F6"/>
<path d="M36.96 37.8603C36.96 34.3638 39.2939 32.48 42.6267 32.48C45.9596 32.48 48.16 34.3638 48.16 37.8603C48.16 41.2899 45.9604 43.1729 42.6267 43.1729C39.293 43.1729 36.96 41.2899 36.96 37.8603Z" fill="#00BA96"/>
<path d="M21.2243 12.3201C18.0427 12.3139 14.8749 12.7356 11.8074 13.5736V13.5736C11.4021 13.6813 11.0439 13.9186 10.7881 14.2487C10.5324 14.5789 10.3934 14.9835 10.3926 15.3999V15.3999V21.0985C13.3148 19.9474 16.4353 19.3738 19.5789 19.4102C24.3981 19.4102 26.3262 20.9295 26.3262 24.5326V26.2208C23.9934 25.5186 21.5615 25.1955 19.1247 25.264C12.1504 25.264 7.83997 28.8096 7.83997 34.6071C7.83997 40.1791 11.5258 43.6685 17.7076 43.6685C21.1646 43.8076 24.5534 42.6863 27.2346 40.5161L27.6877 42.7668H34.72V25.1525C34.72 16.2039 31.0909 12.3201 21.2243 12.3201ZM26.3227 35.227C25.541 35.9972 24.6112 36.6034 23.5886 37.0096C22.5661 37.4158 21.4716 37.6138 20.3704 37.5915C17.9371 37.5915 16.1746 36.6347 16.1746 34.2138C16.1746 31.7929 17.9892 30.6681 21.1085 30.6681C22.8755 30.682 24.6315 30.9473 26.3227 31.4559V35.227Z" fill="#183054"/>
</svg>
