<svg width="50" height="50" viewBox="0 0 50 50" fill="none" xmlns="http://www.w3.org/2000/svg">
<rect width="50" height="50" fill="#F3F4F6"/>
<path d="M33 33.8039C33 30.682 35.0838 29 38.0596 29C41.0354 29 43 30.682 43 33.8039C43 36.866 41.0361 38.5473 38.0596 38.5473C35.0831 38.5473 33 36.866 33 33.8039Z" fill="#00BA96"/>
<path d="M18.9503 11.0001C16.1096 10.9946 13.2812 11.371 10.5424 12.1193V12.1193C10.1805 12.2155 9.86065 12.4273 9.63231 12.7221C9.40396 13.0168 9.27984 13.3781 9.27917 13.7499V13.7499V18.8379C11.8882 17.8101 14.6744 17.2981 17.4812 17.3305C21.784 17.3305 23.5056 18.687 23.5056 21.9041V23.4115C21.4227 22.7844 19.2514 22.496 17.0757 22.5572C10.8486 22.5572 7 25.7229 7 30.8992C7 35.8742 10.291 38.9897 15.8104 38.9897C18.897 39.1139 21.9227 38.1127 24.3167 36.1751L24.7212 38.1846H31V22.4576C31 14.4677 27.7597 11.0001 18.9503 11.0001ZM23.5024 31.4526C22.8045 32.1403 21.9743 32.6816 21.0613 33.0443C20.1483 33.407 19.1711 33.5837 18.1879 33.5639C16.0153 33.5639 14.4417 32.7095 14.4417 30.548C14.4417 28.3865 16.0618 27.3823 18.8469 27.3823C20.4246 27.3946 21.9924 27.6315 23.5024 28.0856V31.4526Z" fill="#183054"/>
</svg>
