<svg width="48" height="48" viewBox="0 0 48 48" fill="none" xmlns="http://www.w3.org/2000/svg">
<g clip-path="url(#clip0)">
<path d="M24.44 39.545C24.44 39.6637 24.4048 39.7797 24.3389 39.8784C24.273 39.977 24.1792 40.0539 24.0696 40.0993C23.96 40.1448 23.8394 40.1566 23.723 40.1335C23.6066 40.1103 23.4997 40.0532 23.4157 39.9693C23.3318 39.8854 23.2747 39.7784 23.2515 39.6621C23.2284 39.5457 23.2403 39.425 23.2857 39.3154C23.3311 39.2058 23.408 39.112 23.5067 39.0461C23.6053 38.9802 23.7213 38.945 23.84 38.945C23.9991 38.945 24.1518 39.0082 24.2643 39.1207C24.3768 39.2333 24.44 39.3859 24.44 39.545V39.545ZM11.25 39.545V38.784C11.2523 37.3977 11.6125 36.0355 12.2958 34.8293C12.979 33.6231 13.9622 32.6138 15.15 31.899C16.757 30.9362 18.4913 30.2041 20.302 29.724V28.762C19.9957 28.4909 19.7204 28.1867 19.481 27.855C18.7655 26.8634 18.1791 25.7847 17.736 24.645C17.5285 24.6158 17.3316 24.5352 17.1632 24.4105C16.9949 24.2858 16.8604 24.121 16.772 23.931C16.591 23.55 15.335 21.223 15.142 20.81C14.944 20.3732 14.9276 19.8756 15.0964 19.4267C15.2652 18.9778 15.6053 18.6142 16.042 18.416L16.1 18.391C16.233 18.3355 16.3719 18.2953 16.514 18.271C16.2655 17.2521 16.2517 16.19 16.4735 15.165C16.6953 14.1399 17.147 13.1785 17.7945 12.3535C18.442 11.5284 19.2684 10.8612 20.2114 10.402C21.1543 9.94291 22.1892 9.70389 23.238 9.70301C23.9053 9.70175 24.5467 9.96075 25.026 10.425C25.0284 10.4273 25.0316 10.4286 25.035 10.4286C25.0384 10.4286 25.0416 10.4273 25.044 10.425C25.524 9.96114 26.1655 9.70223 26.833 9.70301C28.0789 9.70512 29.2731 10.201 30.1541 11.0819C31.035 11.9629 31.5309 13.1572 31.533 14.403V15.503C31.5345 16.4359 31.4063 17.3644 31.152 18.262C31.2978 18.2841 31.4401 18.3255 31.575 18.385C31.7946 18.4752 31.9943 18.6077 32.1627 18.7751C32.331 18.9425 32.4647 19.1414 32.5561 19.3605C32.6475 19.5796 32.6948 19.8146 32.6953 20.052C32.6958 20.2894 32.6495 20.5245 32.559 20.744C32.551 20.764 32.543 20.784 32.533 20.803C32.333 21.211 31.084 23.541 30.902 23.924C30.8136 24.1138 30.6793 24.2785 30.5111 24.4032C30.3429 24.5279 30.1463 24.6086 29.939 24.638C29.4966 25.7808 28.9091 26.862 28.191 27.855C27.9515 28.1875 27.6754 28.492 27.368 28.763V29.728C29.1789 30.2077 30.9132 30.9399 32.52 31.903C33.7081 32.6175 34.6914 33.6267 35.3747 34.833C36.058 36.0393 36.4181 37.4016 36.42 38.788V39.549C36.42 39.7081 36.3568 39.8607 36.2443 39.9733C36.1317 40.0858 35.9791 40.149 35.82 40.149H26.532C26.3729 40.149 26.2202 40.0858 26.1077 39.9733C25.9952 39.8607 25.932 39.7081 25.932 39.549V39.503C25.9458 39.349 26.0173 39.2059 26.132 39.1023C26.2468 38.9986 26.3964 38.9421 26.551 38.944H35.213C35.2298 37.7399 34.9332 36.5522 34.3521 35.4974C33.7711 34.4427 32.9257 33.5572 31.899 32.928C30.4613 32.0648 28.9141 31.3985 27.299 30.947C27.1394 31.749 26.7066 32.4709 26.0744 32.9897C25.4423 33.5084 24.6498 33.792 23.832 33.792C23.0142 33.792 22.2217 33.5084 21.5896 32.9897C20.9574 32.4709 20.5246 31.749 20.365 30.947C18.75 31.3988 17.2029 32.0651 15.765 32.928C14.733 33.5515 13.8834 34.4358 13.3017 35.4918C12.7199 36.5479 12.4265 37.7385 12.451 38.944H21.146C21.2248 38.944 21.3028 38.9595 21.3756 38.9897C21.4484 39.0198 21.5146 39.064 21.5703 39.1198C21.626 39.1755 21.6702 39.2416 21.7003 39.3144C21.7305 39.3872 21.746 39.4652 21.746 39.544C21.747 39.558 21.747 39.572 21.746 39.586C21.7319 39.7397 21.6603 39.8825 21.5456 39.9858C21.4308 40.089 21.2814 40.1452 21.127 40.143H11.849C11.6904 40.1427 11.5383 40.0797 11.4261 39.9676C11.3138 39.8556 11.2505 39.7036 11.25 39.545V39.545ZM17.514 16.714C17.7992 16.3815 18.1517 16.1133 18.5481 15.927C18.9446 15.7406 19.376 15.6405 19.814 15.633C20.5178 15.6332 21.2 15.8766 21.745 16.322C22.1596 16.6584 22.6612 16.8703 23.1915 16.933C23.7217 16.9958 24.2589 16.9068 24.7406 16.6764C25.2223 16.446 25.6287 16.0837 25.9127 15.6316C26.1967 15.1794 26.3466 14.656 26.345 14.122C26.345 13.9629 26.4082 13.8103 26.5208 13.6978C26.6333 13.5852 26.7859 13.522 26.945 13.522C27.1041 13.522 27.2567 13.5852 27.3693 13.6978C27.4818 13.8103 27.545 13.9629 27.545 14.122C27.5444 14.4822 27.6448 14.8353 27.8348 15.1413C28.0249 15.4473 28.2969 15.6939 28.62 15.853C29.2428 16.1438 29.7791 16.5919 30.176 17.153C30.2799 16.6058 30.3318 16.05 30.331 15.493V14.403C30.3302 13.4745 29.9614 12.584 29.3054 11.9269C28.6493 11.2697 27.7596 10.8994 26.831 10.897C26.4742 10.8963 26.1312 11.0348 25.875 11.283C25.6497 11.5021 25.3478 11.6247 25.0335 11.6247C24.7192 11.6247 24.4173 11.5021 24.192 11.283C23.9359 11.0345 23.5928 10.896 23.236 10.897C21.7224 10.8936 20.2694 11.4913 19.1964 12.5589C18.1234 13.6264 17.5182 15.0764 17.514 16.59C17.514 16.63 17.514 16.671 17.514 16.711V16.714ZM26.171 29.556C25.4417 29.9061 24.643 30.0879 23.834 30.0879C23.025 30.0879 22.2263 29.9061 21.497 29.556V30.256C21.4908 30.5629 21.5452 30.868 21.6569 31.1539C21.7687 31.4398 21.9356 31.7009 22.1483 31.9223C22.3609 32.1437 22.6151 32.321 22.8962 32.4441C23.1774 32.5673 23.4801 32.6338 23.787 32.64C24.0939 32.6462 24.399 32.5918 24.6849 32.4801C24.9708 32.3684 25.2319 32.2014 25.4533 31.9887C25.6747 31.7761 25.852 31.5219 25.9751 31.2408C26.0983 30.9596 26.1648 30.6569 26.171 30.35C26.171 30.3187 26.171 30.2873 26.171 30.256V29.556ZM27.217 27.148C27.9594 26.1216 28.5489 24.9928 28.967 23.797C29.02 23.6478 29.1299 23.5256 29.2726 23.457C29.4154 23.3885 29.5794 23.3791 29.729 23.431C29.75 23.439 29.77 23.447 29.79 23.457C30.013 22.981 31.265 20.669 31.445 20.285C31.5044 20.1333 31.5017 19.9644 31.4375 19.8147C31.3733 19.665 31.2528 19.5466 31.102 19.485C31.0145 19.4495 30.9202 19.4336 30.8259 19.4384C30.7316 19.4432 30.6394 19.4687 30.556 19.513C30.4863 19.5504 30.4099 19.5737 30.3312 19.5814C30.2525 19.5892 30.1731 19.5813 30.0974 19.5583C30.0218 19.5352 29.9514 19.4974 29.8904 19.4471C29.8294 19.3968 29.779 19.3349 29.742 19.265C29.7093 19.2025 29.6873 19.1348 29.677 19.065C29.6196 18.6073 29.4459 18.172 29.1724 17.8005C28.899 17.4291 28.5349 17.1338 28.115 16.943C27.6896 16.7433 27.317 16.4467 27.027 16.077C26.84 16.4008 26.6144 16.7007 26.355 16.97C25.6547 17.6742 24.7175 18.0928 23.7256 18.1441C22.7338 18.1955 21.7583 17.8761 20.989 17.248C20.6358 16.9622 20.1894 16.8169 19.7356 16.84C19.2818 16.863 18.8525 17.0529 18.53 17.373C18.1693 17.736 17.9645 18.2253 17.959 18.737V18.973C17.959 19.1321 17.8958 19.2848 17.7833 19.3973C17.6707 19.5098 17.5181 19.573 17.359 19.573C17.2664 19.5726 17.1751 19.551 17.092 19.51C17.0102 19.47 16.9209 19.4477 16.8299 19.4446C16.7389 19.4415 16.6483 19.4576 16.564 19.492C16.4893 19.5209 16.421 19.5642 16.363 19.6195C16.305 19.6748 16.2585 19.7409 16.2261 19.8142C16.1937 19.8875 16.176 19.9664 16.1741 20.0465C16.1722 20.1266 16.1861 20.2063 16.215 20.281L16.221 20.295C16.401 20.676 17.68 23.029 17.871 23.458C18.0185 23.3906 18.1867 23.3843 18.3389 23.4406C18.491 23.4968 18.6147 23.6109 18.683 23.758C18.689 23.773 18.695 23.787 18.701 23.803C19.1194 24.9961 19.7081 26.1225 20.449 27.147C20.8347 27.6848 21.3429 28.123 21.9317 28.4253C22.5204 28.7276 23.1727 28.8853 23.8345 28.8853C24.4963 28.8853 25.1486 28.7276 25.7373 28.4253C26.3261 28.123 26.8343 27.6848 27.22 27.147L27.217 27.148Z" fill="#63ADFB" stroke="#63ADF9" stroke-width="0.5"/>
<path fill-rule="evenodd" clip-rule="evenodd" d="M33.2059 17.526C33.3013 17.3815 33.3517 17.2121 33.351 17.039C33.3596 16.9317 33.3458 16.8237 33.3107 16.7219C33.2755 16.6201 33.2197 16.5267 33.1466 16.4476C33.0736 16.3684 32.9849 16.3053 32.8863 16.2621C32.7877 16.2189 32.6811 16.1966 32.5734 16.1966C32.4657 16.1966 32.3592 16.2189 32.2606 16.2621C32.162 16.3053 32.0733 16.3684 32.0003 16.4476C31.9272 16.5267 31.8714 16.6201 31.8362 16.7219C31.801 16.8237 31.7873 16.9317 31.7959 17.039C31.7952 17.2121 31.8456 17.3815 31.941 17.526C31.7937 17.6411 31.675 17.7885 31.594 17.9569C31.513 18.1253 31.4719 18.3102 31.4739 18.497C31.4739 18.7887 31.5898 19.0685 31.7961 19.2748C32.0024 19.4811 32.2822 19.597 32.574 19.597C32.8657 19.597 33.1455 19.4811 33.3518 19.2748C33.558 19.0685 33.674 18.7887 33.674 18.497C33.676 18.3102 33.6349 18.1253 33.5539 17.9569C33.4729 17.7885 33.3542 17.6411 33.2069 17.526" fill="white"/>
<path d="M32.488 23.127C35.3521 23.127 37.674 20.8052 37.674 17.941C37.674 15.0769 35.3521 12.755 32.488 12.755C29.6239 12.755 27.302 15.0769 27.302 17.941C27.302 20.8052 29.6239 23.127 32.488 23.127Z" fill="white"/>
<path d="M32.4881 22.277C34.8828 22.277 36.8241 20.3357 36.8241 17.941C36.8241 15.5463 34.8828 13.605 32.4881 13.605C30.0934 13.605 28.1521 15.5463 28.1521 17.941C28.1521 20.3357 30.0934 22.277 32.4881 22.277Z" stroke="#63ADF9" stroke-width="1.7"/>
<path fill-rule="evenodd" clip-rule="evenodd" d="M33.2059 17.526C33.3013 17.3815 33.3517 17.2121 33.351 17.039C33.3596 16.9317 33.3458 16.8237 33.3107 16.7219C33.2755 16.6201 33.2197 16.5267 33.1466 16.4476C33.0736 16.3684 32.9849 16.3053 32.8863 16.2621C32.7877 16.2189 32.6811 16.1966 32.5734 16.1966C32.4657 16.1966 32.3592 16.2189 32.2606 16.2621C32.162 16.3053 32.0733 16.3684 32.0003 16.4476C31.9272 16.5267 31.8714 16.6201 31.8362 16.7219C31.801 16.8237 31.7873 16.9317 31.7959 17.039C31.7952 17.2121 31.8456 17.3815 31.941 17.526C31.7937 17.6411 31.675 17.7885 31.594 17.9569C31.513 18.1253 31.4719 18.3102 31.4739 18.497C31.4739 18.7887 31.5898 19.0685 31.7961 19.2748C32.0024 19.4811 32.2822 19.597 32.574 19.597C32.8657 19.597 33.1455 19.4811 33.3518 19.2748C33.558 19.0685 33.674 18.7887 33.674 18.497C33.676 18.3102 33.6349 18.1253 33.5539 17.9569C33.4729 17.7885 33.3542 17.6411 33.2069 17.526" fill="#63ADF9"/>
<path d="M31.0229 9.40697C31.2384 9.04813 31.5225 8.73528 31.8589 8.48622C32.1953 8.23717 32.5775 8.05682 32.9836 7.95546C33.3898 7.85411 33.8119 7.83372 34.2259 7.89549C34.6399 7.95727 35.0376 8.09998 35.3965 8.31548C35.7553 8.53098 36.0682 8.81506 36.3172 9.15148C36.5663 9.48789 36.7466 9.87005 36.848 10.2762C36.9493 10.6823 36.9697 11.1044 36.9079 11.5184C36.8462 11.9324 36.7034 12.3301 36.4879 12.689L35.4229 14.654" stroke="#63ADF9" stroke-width="1.7"/>
</g>
<defs>
<clipPath id="clip0">
<rect width="26.802" height="33.394" fill="white" transform="translate(11 7)"/>
</clipPath>
</defs>
</svg>
