<svg id="Grupo_4841" data-name="Grupo 4841" xmlns="http://www.w3.org/2000/svg" xmlns:xlink="http://www.w3.org/1999/xlink" width="32" height="32" viewBox="0 0 32 32">
  <defs>
    <clipPath id="clip-path">
      <rect id="Rectángulo_2111" data-name="Rectángulo 2111" width="32" height="32" fill="#3f8df8"/>
    </clipPath>
  </defs>
  <g id="Grupo_4841-2" data-name="Grupo 4841" clip-path="url(#clip-path)">
    <path id="Trazado_2076" data-name="Trazado 2076" d="M24.153,8.547H23.4V8.38c0-.208,0-.4,0-.6a2.336,2.336,0,0,0-2.273-2.4c-.592-.007-1.181-.007-1.769,0H17.9V3.5H17.9c.119,0,.233,0,.345,0a.793.793,0,0,0,.781-.795.864.864,0,0,0-.212-.6.74.74,0,0,0-.535-.244c-.769-.019-1.567-.02-2.367,0a.746.746,0,0,0-.541.251.858.858,0,0,0-.213.589.8.8,0,0,0,.78.8c.119.005.239.005.351,0V5.363H13.3V1.648h.023a3.613,3.613,0,0,0,.4-.007.685.685,0,0,0,.663-.583,1.636,1.636,0,0,0-.124-.689L14.247.316a.478.478,0,0,0-.209-.229c-.024-.017-.048-.032-.068-.049a.155.155,0,0,0-.1-.037H11.136a.156.156,0,0,0-.092.031.92.92,0,0,0-.432,1.031c.176.589.641.589.98.591H11.7V5.381h-.993q-1.114,0-2.225.007A2.341,2.341,0,0,0,6.2,7.809c0,.193,0,.387,0,.589v.148H6c-.24,0-.472,0-.7,0a2.169,2.169,0,0,0-2.081,1.9,2.237,2.237,0,0,0,1.492,2.5c.133.041.165.079.192.217.2,1.021.644,2.74,1,4.12.217.841.408,1.58.493,1.961l-.024.015c-.061.037-.117.069-.172.105a2.317,2.317,0,0,0-.887,2.66,2.12,2.12,0,0,0,1.967,1.5c.339.007.68,0,1.021,0h.313v.155c0,.216,0,.417,0,.617a2.327,2.327,0,0,0,1.336,2.172c.145.073.165.124.164.291q-.006.882,0,1.764c0,.8,0,1.6-.008,2.409a1.1,1.1,0,0,0,.515,1.045A.144.144,0,0,0,10.7,32h.373a.156.156,0,0,0,.072-.019,1.065,1.065,0,0,0,.535-1.039c-.013-1.063-.012-2.128-.009-3.2V26.721h6.257v1.321c0,.968,0,1.933-.008,2.9a1.054,1.054,0,0,0,.532,1.04.152.152,0,0,0,.072.019H18.9a.146.146,0,0,0,.079-.023,1.091,1.091,0,0,0,.517-1.047c-.011-.853-.009-1.708-.009-2.563,0-.547,0-1.093,0-1.641,0-.153.017-.187.129-.243a2.338,2.338,0,0,0,1.369-2.22c0-.2,0-.4,0-.616v-.124h.3c.343,0,.675,0,1,0a2.142,2.142,0,0,0,2.049-1.665,2.273,2.273,0,0,0-1.02-2.539c-.115-.069-.12-.091-.1-.2.252-1.235.505-2.135.749-3.007s.5-1.769.749-3a.267.267,0,0,1,.116-.137,2.28,2.28,0,0,0,1.544-2.553,2.166,2.166,0,0,0-2.225-1.871M19.613,23.7c0,.22.005.435-.007.647a.719.719,0,0,1-.663.692,1.9,1.9,0,0,1-.269.008H11.2c-.7,0-.943-.257-.943-.987v-.508h9.355c0,.049,0,.1,0,.148m-2.181-7.691c-.165.883-.335,1.793-.5,3.008H12.941c-.167-1.211-.336-2.119-.5-3s-.328-1.765-.492-2.955h5.975c-.164,1.185-.331,2.08-.492,2.947m-7.56,3.023c-.575,0-1.151,0-1.725.005-.131,0-.141,0-.171-.144-.247-1.235-.5-2.124-.747-2.984-.237-.829-.483-1.687-.723-2.857a.976.976,0,0,1,.108-.005H7.769c.819,0,1.636,0,2.455-.005.115-.007.135.008.148.113.164,1.233.332,2.125.495,2.987.159.839.321,1.705.481,2.892ZM7.308,20.687a2.385,2.385,0,0,1,.259-.007H22.305a2.1,2.1,0,0,1,.259.007.566.566,0,0,1,.509.581.583.583,0,0,1-.5.6c-.072.008-.143.005-.213.007H7.464a.584.584,0,0,1-.665-.579.566.566,0,0,1,.509-.608m14.583-1.8c-.029.144-.031.141-.105.144-.673-.005-1.349-.007-2.023-.007h-.335l-.9-.009c.167-1.2.335-2.1.5-2.969s.333-1.784.5-2.989h3.832c-.088.377-.261,1.027-.453,1.757-.357,1.352-.8,3.035-1.009,4.073m2.42-7.5H5.555c-.089,0-.18,0-.267-.008a.565.565,0,0,1-.507-.583.579.579,0,0,1,.5-.6A1.5,1.5,0,0,1,5.5,10.2h6.4c.073,0,.143,0,.219,0a.818.818,0,0,0,.773-.856.791.791,0,0,0-.8-.788c-.829-.005-1.66,0-2.487,0H7.817c0-.06,0-.117,0-.176a6.4,6.4,0,0,1,.008-.663.714.714,0,0,1,.687-.668,2.387,2.387,0,0,1,.259,0h.077l3.315,0c2.847.005,5.792.008,8.688-.015a1.372,1.372,0,0,1,1.023.273,1.372,1.372,0,0,1,.191,1.017c0,.075,0,.149,0,.232H17.9a.816.816,0,0,0-.92.8.792.792,0,0,0,.205.572.965.965,0,0,0,.715.276h6.535a.58.58,0,0,1,.659.583.568.568,0,0,1-.515.6,1.96,1.96,0,0,1-.265.007" transform="translate(1.065)" fill="#3f8df8"/>
    <path id="Trazado_2077" data-name="Trazado 2077" d="M23.087.494a3.056,3.056,0,0,0-.376-.325C22.655.126,22.6.084,22.546.04A.168.168,0,0,0,22.438,0h-.4a.164.164,0,0,0-.1.036,1.064,1.064,0,0,0-.5.712,1.11,1.11,0,0,0,.4.821,5.206,5.206,0,0,1,.057,6.987c-.032.037-.064.072-.1.108a2.335,2.335,0,0,0-.193.223.8.8,0,0,0,.079,1.057.808.808,0,0,0,1.06.092,2.257,2.257,0,0,0,.333-.317A6.874,6.874,0,0,0,23.087.494" transform="translate(7.144 0)" fill="#3f8df8"/>
    <path id="Trazado_2078" data-name="Trazado 2078" d="M20.089,6.132a.847.847,0,0,0-.259.62.818.818,0,0,0,.291.581.8.8,0,0,0,.535.211.894.894,0,0,0,.639-.293,3.848,3.848,0,0,0,1.1-2.724V4.52A3.884,3.884,0,0,0,21.3,1.892a.824.824,0,1,0-1.22,1.1,2.243,2.243,0,0,1,.007,3.139" transform="translate(6.61 0.53)" fill="#3f8df8"/>
    <path id="Trazado_2079" data-name="Trazado 2079" d="M3.064,8.652a5.15,5.15,0,0,1,0-7.1A1.06,1.06,0,0,0,3.436.756a1.066,1.066,0,0,0-.5-.72A.175.175,0,0,0,2.832,0h-.4a.161.161,0,0,0-.107.039c-.051.04-.1.08-.156.119a2.335,2.335,0,0,0-.367.316A6.745,6.745,0,0,0,.412,7.425,6.377,6.377,0,0,0,1.987,9.912a.885.885,0,0,0,.625.281.825.825,0,0,0,.456-.144.8.8,0,0,0,.3-.988,1.649,1.649,0,0,0-.3-.409" transform="translate(0)" fill="#3f8df8"/>
    <path id="Trazado_2080" data-name="Trazado 2080" d="M2.26,4.566A3.853,3.853,0,0,0,3.345,7.237.918.918,0,0,0,4,7.545a.793.793,0,0,0,.543-.223.819.819,0,0,0,.02-1.2A2.182,2.182,0,0,1,4.573,3,.826.826,0,1,0,3.339,1.905,3.817,3.817,0,0,0,2.26,4.56Z" transform="translate(0.753 0.53)" fill="#3f8df8"/>
    <path id="Trazado_2081" data-name="Trazado 2081" d="M12.253,6.412a.817.817,0,0,0-.6.221.807.807,0,0,0-.263.579.835.835,0,0,0,.825.844h0a.831.831,0,0,0,.825-.8h0a.827.827,0,0,0-.787-.839" transform="translate(3.796 2.137)" fill="#3f8df8"/>
  </g>
</svg>
