<svg xmlns="http://www.w3.org/2000/svg" width="29" height="29" viewBox="0 0 29 29">
  <g id="Icon_alert-map_alert" data-name="Icon/alert-map/alert" transform="translate(0.5 0.5)">
    <path id="exclamation-octagon" d="M29.594,9.784,22.216,2.406A1.47,1.47,0,0,0,21.222,2H10.778a1.47,1.47,0,0,0-.994.406L2.406,9.784A1.47,1.47,0,0,0,2,10.778V21.222a1.47,1.47,0,0,0,.406.994l7.378,7.378a1.47,1.47,0,0,0,.994.406H21.222a1.47,1.47,0,0,0,.994-.406l7.378-7.378A1.47,1.47,0,0,0,30,21.222V10.778a1.47,1.47,0,0,0-.406-.994Z" transform="translate(-2 -2)" fill="#ff1616" stroke="rgba(180,17,17,0.8)" stroke-width="1"/>
    <path id="truck-loading" d="M18.255,13.3H16.42a2.526,2.526,0,0,0,.152-.842V8.243a2.526,2.526,0,0,0-2.526-2.526H8.992A2.526,2.526,0,0,0,6.466,8.243v4.211a2.526,2.526,0,0,0,.152.842H5.624a.842.842,0,0,1-.842-.842V8.243c0-1.4-1.684-1.312-1.684,0v4.211a2.526,2.526,0,0,0,1.869,2.425,2.526,2.526,0,1,0,4.716.1h2.829a2.526,2.526,0,1,0,4.749,0h.994a.842.842,0,1,0,0-1.684ZM7.308,16.664a.842.842,0,1,1,.842-.842A.842.842,0,0,1,7.308,16.664ZM8.992,13.3a.842.842,0,0,1-.842-.842V8.243A.842.842,0,0,1,8.992,7.4h5.053a.842.842,0,0,1,.842.842v4.211a.842.842,0,0,1-.842.842Zm5.895,3.368a.842.842,0,1,1,.842-.842A.842.842,0,0,1,14.887,16.664Z" transform="translate(2.902 1.958)" fill="#fff"/>
  </g>
</svg>
