<svg xmlns="http://www.w3.org/2000/svg" width="526.594" height="421" viewBox="0 0 526.594 421" style=""><g transform="translate(-0.003)"><g transform="translate(0.003 1)"><path transform="translate(190.175 326.716)" d="M0,9.865A44.629,9.865 0,1,1 89.258,9.865A44.629,9.865 0,1,1 0,9.865" class="DfffXXRF_0"></path><path transform="translate(209.735 336.581)" fill="none" stroke="#000" stroke-linecap="round" stroke-miterlimit="10" stroke-width="4" d="M25.069,0L0,78.46" class="DfffXXRF_1"></path><path transform="translate(234.804 336.581)" fill="none" stroke="#000" stroke-linecap="round" stroke-miterlimit="10" stroke-width="4" d="M0,0L25.069,78.46" class="DfffXXRF_2"></path><path transform="translate(217.967 371.359)" fill="none" stroke="#000" stroke-linecap="round" stroke-miterlimit="10" stroke-width="2" d="M0,17.919L27.947,0" class="DfffXXRF_3"></path><path transform="translate(223.582 371.359)" fill="none" stroke="#000" stroke-linecap="round" stroke-miterlimit="10" stroke-width="2" d="M0,0L27.954,17.919" class="DfffXXRF_4"></path><path d="M393.886,356.86c-.113,3.479-.064,15.664-.636,20.875" transform="translate(-115.16 -105.209)" fill="none" stroke="#1f161e" stroke-linecap="round" stroke-miterlimit="10" stroke-width="1" class="DfffXXRF_5"></path><path width="8.953" height="24.404" transform="translate(126.198 93.084)" d="M 4,0 L 4.952999999999999,0 A 4,4,0,0,1,8.953,4 L 8.953,20.404 A 4,4,0,0,1,4.952999999999999,24.404 L 4,24.404 A 4,4,0,0,1,0,20.404 L 0,4 A 4,4,0,0,1,4,0" class="DfffXXRF_6"></path><path transform="translate(121.694 125.5)" fill="#fbdc8e" d="M0,8.981A8.981,8.981 0,1,1 17.962,8.981A8.981,8.981 0,1,1 0,8.981" class="DfffXXRF_7"></path><path d="M601.654,327.587H605.9a1.69,1.69,0,0,0,1.683-1.683v-26.08a1.662,1.662,0,0,0-.495-1.188l-5.36-5.36a1.676,1.676,0,0,0-1.188-.5H584.7a1.69,1.69,0,0,0-1.683,1.683v2.517" transform="translate(-170.732 -86.444)" fill="#fbdc8e" class="DfffXXRF_8"></path><path d="M77.532,429.961c13.436,2.546,11.039,82.738-14.751,77.887C38.426,503.223,61.14,426.843,77.532,429.961Z" transform="translate(-15.261 -126.589)" class="DfffXXRF_9"></path><path d="M3.282,443.812c10.692-6.053,55.449,50.265,34.976,61.848C18.917,516.65-9.737,451.195,3.282,443.812Z" transform="translate(-0.003 -130.539)" fill="#fbdc8e" class="DfffXXRF_10"></path><path d="M67.267,578.568h-27a4.42,4.42,0,0,1-4.391-3.932L32.467,544.03a4.427,4.427,0,0,1,4.391-4.95H70.534a4.42,4.42,0,0,1,4.391,4.894l-3.26,30.606A4.427,4.427,0,0,1,67.267,578.568Z" transform="translate(-9.5 -158.57)" fill="#969696" class="DfffXXRF_11"></path><path d="M88.812,385.772c10.233,2.97,2.39,64.868-17.205,59.168C53.108,439.566,76.359,382.151,88.812,385.772Z" transform="translate(-18.954 -113.628)" fill="#ab8de5" class="DfffXXRF_12"></path><path d="M106.984,455.081c7.072,6.1-21.7,52.726-35.287,41.015C58.862,485.086,98.35,447.67,106.984,455.081Z" transform="translate(-20.253 -133.69)" fill="#fbdc8e" class="DfffXXRF_13"></path><path d="M55.434,394.94c15.317,0,29.34,97.8,0,97.8C27.728,492.741,36.786,394.94,55.434,394.94Z" transform="translate(-11.097 -116.36)" fill="#78e5e1" class="DfffXXRF_14"></path><path width="59.614" height="10.947" transform="translate(14.467 373.891)" fill="#d8d8d8" d="M 4,0 L 55.614,0 A 4,4,0,0,1,59.614,4 L 59.614,6.946999999999999 A 4,4,0,0,1,55.614,10.947 L 4,10.947 A 4,4,0,0,1,0,6.946999999999999 L 0,4 A 4,4,0,0,1,4,0" class="DfffXXRF_15"></path><path d="M592.063,298.72H576.505a1.9,1.9,0,0,0-1.9,1.9V331.6a1.9,1.9,0,0,0,1.9,1.9h20.784a1.9,1.9,0,0,0,1.9-1.9V305.855a1.9,1.9,0,0,0-.552-1.344l-5.233-5.233A1.9,1.9,0,0,0,592.063,298.72Z" transform="translate(-168.269 -88.184)" fill="#d8d8d8" class="DfffXXRF_16"></path><path d="M606.743,305.113h-5.282a1.061,1.061,0,0,1-1.061-1.061V298.72" transform="translate(-175.822 -88.184)" fill="#969696" class="DfffXXRF_17"></path><path d="M615.15,299.18h-5.282a1.075,1.075,0,0,1-1.068-1.068V292.78" transform="translate(-178.281 -86.444)" fill="#64ccc4" class="DfffXXRF_18"></path><path width="40.747" height="16.194" transform="translate(367.758 175.129)" fill="#78e5e1" d="M 3,0 L 37.747,0 A 3,3,0,0,1,40.747,3 L 40.747,13.193999999999999 A 3,3,0,0,1,37.747,16.194 L 3,16.194 A 3,3,0,0,1,0,13.193999999999999 L 0,3 A 3,3,0,0,1,3,0" class="DfffXXRF_19"></path><path d="M546.818,281.095l4.908-14.865H541.91Z" transform="translate(-158.693 -78.669)" fill="#78e5e1" class="DfffXXRF_20"></path><path d="M533.4,254.75l-4.116,7.121H537.5Z" transform="translate(-154.995 -75.308)" fill="#fff" class="DfffXXRF_21"></path><path d="M560.906,261.871l4.116-7.121H556.79Z" transform="translate(-163.051 -75.308)" fill="#fff" class="DfffXXRF_22"></path><path transform="translate(385.034 179.916)" fill="#fff" d="M0,3.09A3.09,3.09 0,1,1 6.18,3.09A3.09,3.09 0,1,1 0,3.09" class="DfffXXRF_23"></path><path width="27.678" height="18.217" transform="translate(359.145 140.81)" fill="#d8d8d8" d="M 2,0 L 25.678,0 A 2,2,0,0,1,27.678,2 L 27.678,16.217 A 2,2,0,0,1,25.678,18.217 L 2,18.217 A 2,2,0,0,1,0,16.217 L 0,2 A 2,2,0,0,1,2,0" class="DfffXXRF_24"></path><path transform="translate(360.015 141.383)" fill="none" stroke="#969696" stroke-linecap="round" stroke-linejoin="round" stroke-width="0.82" d="M0,0L12.969,8.535" class="DfffXXRF_25"></path><path transform="translate(372.984 140.81)" fill="none" stroke="#969696" stroke-linecap="round" stroke-linejoin="round" stroke-width="0.82" d="M13.839,0L0,9.108" class="DfffXXRF_26"></path><path transform="translate(382.863 136.85)" fill="#fbdc8e" d="M0,3.96A3.96,3.96 0,1,1 7.92,3.96A3.96,3.96 0,1,1 0,3.96" class="DfffXXRF_27"></path><text transform="translate(385.677 141.095)" fill="#fff" font-size="4" font-family="Helvetica-Bold, Helvetica" font-weight="700"><tspan x="0" y="0">1</tspan></text><path width="104.985" height="2.277" transform="translate(421.608 151.92)" fill="#d8d8d8" d="M 1,0 L 103.985,0 A 1,1,0,0,1,104.985,1 L 104.985,1.2770000000000001 A 1,1,0,0,1,103.985,2.277 L 1,2.277 A 1,1,0,0,1,0,1.2770000000000001 L 0,1 A 1,1,0,0,1,1,0" class="DfffXXRF_28"></path><path width="9.893" height="45.216" transform="translate(458.006 106.704)" fill="#969696" d="M 2,0 L 7.893000000000001,0 A 2,2,0,0,1,9.893,2 L 9.893,43.216 A 2,2,0,0,1,7.893000000000001,45.216 L 2,45.216 A 2,2,0,0,1,0,43.216 L 0,2 A 2,2,0,0,1,2,0" class="DfffXXRF_29"></path><path width="4.95" height="34.616" transform="translate(467.899 117.304)" fill="#d8d8d8" d="M 2,0 L 2.95,0 A 2,2,0,0,1,4.95,2 L 4.95,32.616 A 2,2,0,0,1,2.95,34.616 L 2,34.616 A 2,2,0,0,1,0,32.616 L 0,2 A 2,2,0,0,1,2,0" class="DfffXXRF_30"></path><path width="4.95" height="34.616" transform="translate(472.849 117.304)" fill="#969696" d="M 2,0 L 2.95,0 A 2,2,0,0,1,4.95,2 L 4.95,32.616 A 2,2,0,0,1,2.95,34.616 L 2,34.616 A 2,2,0,0,1,0,32.616 L 0,2 A 2,2,0,0,1,2,0" class="DfffXXRF_31"></path><path width="4.95" height="34.616" transform="translate(476.847 121.199) rotate(-24.66)" fill="#d8d8d8" d="M 2,0 L 2.95,0 A 2,2,0,0,1,4.95,2 L 4.95,32.616 A 2,2,0,0,1,2.95,34.616 L 2,34.616 A 2,2,0,0,1,0,32.616 L 0,2 A 2,2,0,0,1,2,0" class="DfffXXRF_32"></path><path transform="translate(460.184 134.948)" fill="#d8d8d8" d="M0,2.765A2.765,2.765 0,1,1 5.53,2.765A2.765,2.765 0,1,1 0,2.765" class="DfffXXRF_33"></path><path width="6.336" height="1.329" transform="translate(459.781 142.133)" fill="#d8d8d8" d="M 0,0 L 6.336,0 A 0,0,0,0,1,6.336,0 L 6.336,1.329 A 0,0,0,0,1,6.336,1.329 L 0,1.329 A 0,0,0,0,1,0,1.329 L 0,0 A 0,0,0,0,1,0,0" class="DfffXXRF_34"></path><path width="6.336" height="1.329" transform="translate(459.781 145.534)" fill="#d8d8d8" d="M 0,0 L 6.336,0 A 0,0,0,0,1,6.336,0 L 6.336,1.329 A 0,0,0,0,1,6.336,1.329 L 0,1.329 A 0,0,0,0,1,0,1.329 L 0,0 A 0,0,0,0,1,0,0" class="DfffXXRF_35"></path><path width="6.336" height="1.329" transform="translate(409.12 213.733)" fill="#969696" d="M 0,0 L 6.336,0 A 0,0,0,0,1,6.336,0 L 6.336,1.329 A 0,0,0,0,1,6.336,1.329 L 0,1.329 A 0,0,0,0,1,0,1.329 L 0,0 A 0,0,0,0,1,0,0" class="DfffXXRF_36"></path><path width="6.336" height="1.329" transform="translate(409.12 216.929)" fill="#969696" d="M 0,0 L 6.336,0 A 0,0,0,0,1,6.336,0 L 6.336,1.329 A 0,0,0,0,1,6.336,1.329 L 0,1.329 A 0,0,0,0,1,0,1.329 L 0,0 A 0,0,0,0,1,0,0" class="DfffXXRF_37"></path><path width="19.61" height="1.329" transform="translate(408.83 222.395)" fill="#969696" d="M 0,0 L 19.61,0 A 0,0,0,0,1,19.61,0 L 19.61,1.329 A 0,0,0,0,1,19.61,1.329 L 0,1.329 A 0,0,0,0,1,0,1.329 L 0,0 A 0,0,0,0,1,0,0" class="DfffXXRF_38"></path><path width="19.61" height="1.329" transform="translate(408.83 225.535)" fill="#969696" d="M 0,0 L 19.61,0 A 0,0,0,0,1,19.61,0 L 19.61,1.329 A 0,0,0,0,1,19.61,1.329 L 0,1.329 A 0,0,0,0,1,0,1.329 L 0,0 A 0,0,0,0,1,0,0" class="DfffXXRF_39"></path><path width="19.61" height="1.329" transform="translate(408.83 228.675)" fill="#969696" d="M 0,0 L 19.61,0 A 0,0,0,0,1,19.61,0 L 19.61,1.329 A 0,0,0,0,1,19.61,1.329 L 0,1.329 A 0,0,0,0,1,0,1.329 L 0,0 A 0,0,0,0,1,0,0" class="DfffXXRF_40"></path><path width="1.032" height="25.189" transform="translate(469.858 122.014)" fill="#969696" d="M 0,0 L 1.032,0 A 0,0,0,0,1,1.032,0 L 1.032,25.189 A 0,0,0,0,1,1.032,25.189 L 0,25.189 A 0,0,0,0,1,0,25.189 L 0,0 A 0,0,0,0,1,0,0" class="DfffXXRF_41"></path><path width="7.949" height="3.522" transform="translate(442.986 153.058)" fill="#d8d8d8" d="M 1,0 L 6.949,0 A 1,1,0,0,1,7.949,1 L 7.949,2.522 A 1,1,0,0,1,6.949,3.522 L 1,3.522 A 1,1,0,0,1,0,2.522 L 0,1 A 1,1,0,0,1,1,0" class="DfffXXRF_42"></path><path width="7.949" height="3.522" transform="translate(497.268 153.058)" fill="#d8d8d8" d="M 1,0 L 6.949,0 A 1,1,0,0,1,7.949,1 L 7.949,2.522 A 1,1,0,0,1,6.949,3.522 L 1,3.522 A 1,1,0,0,1,0,2.522 L 0,1 A 1,1,0,0,1,1,0" class="DfffXXRF_43"></path><path width="42.79" height="29.566" transform="translate(302.056 156.502)" fill="#d8d8d8" d="M 12,0 L 30.79,0 A 12,12,0,0,1,42.79,12 L 42.79,17.566 A 12,12,0,0,1,30.79,29.566 L 12,29.566 A 12,12,0,0,1,0,17.566 L 0,12 A 12,12,0,0,1,12,0" class="DfffXXRF_44"></path><path width="6.435" height="20.048" transform="translate(310.909 161.261)" fill="#ab8de5" d="M0 0 L6.435 0 L6.435 20.048 L0 20.048 Z" class="DfffXXRF_45"></path><path width="6.435" height="6.718" transform="translate(320.237 174.598)" fill="#ab8de5" d="M0 0 L6.435 0 L6.435 6.718 L0 6.718 Z" class="DfffXXRF_46"></path><path width="6.435" height="12.368" transform="translate(329.557 168.941)" fill="#ab8de5" d="M0 0 L6.435 0 L6.435 12.368 L0 12.368 Z" class="DfffXXRF_47"></path><path d="M173.574,152.88a27.077,27.077,0,0,0-27.084,27.077h54.169a27.077,27.077,0,0,0-27.084-27.077Z" transform="translate(-42.9 -45.476)" fill="#ab8de5" class="DfffXXRF_48"></path><path transform="translate(130.675)" fill="none" stroke="#000" stroke-linecap="round" stroke-linejoin="round" stroke-width="2" d="M0,98.239L0,0" class="DfffXXRF_49"></path><path d="M485.088,574.68c0,1.676-.983,12.248.976,13.224s23.492,1.57,24.468.587,1.563-3.034.707-3.621-9.193-2.249-10.325-3.034-2.694-4.95-2.121-7.156" transform="translate(-141.982 -168.995)" fill="#1f161e" class="DfffXXRF_50"></path><path d="M351.153,342.836l12.121-4.349c-.523-22.113-5.693-71.522-13.033-78.87-1.725-1.718-35.853-4.717-41.942-4.717-36.334,0-47.111,4.144-49.848,6.888-8.486,8.486-11.131,47.8-11.131,61.573s38.894,20.911,38.894,20.911L331.8,347.4s10,1.032,18.648,1.542C350.643,346.294,351.153,342.836,351.153,342.836Z" transform="translate(-72.426 -75.351)" fill="#78e5e1" class="DfffXXRF_51"></path><path d="M445.22,396.185c3.317-.983,36.3-6.364,43.483.707s29.8,108.457,29.8,110.791H500.294l-24.581-52.9" transform="translate(-130.379 -115.88)" fill="#1f161e" class="DfffXXRF_52"></path><path d="M273.009,384.331c-.827,4.137-5.8,8.578-5.8,31.115,0,31.165,25.529,31.822,34.693,31.822,28.555,0,74.754-8.486,77.873-10.042,2.072,3.465,40.209,81.324,40.386,83.063h17.559S426.838,403.806,407.2,390.6C400.821,386.353,287.654,381.813,273.009,384.331Z" transform="translate(-78.251 -113.042)" fill="#55b79d" class="DfffXXRF_53"></path><path d="M412.777,352.41c-4.611,0-8.415,1.1-18.853,3.147l-.545,19.97c9.9-3.988,12.2-9.533,15.07-9.533,7.171,0,10.919,3.7,15.154,3.7,2.956,0,8.274-2.319,8.274-5.473C431.878,357.615,418.491,352.41,412.777,352.41Z" transform="translate(-115.198 -103.906)" fill="#f8cdba" class="DfffXXRF_54"></path><path d="M524.458,553.07c0,1.683-.983,12.248.976,13.231s23.492,1.563,24.468.587,1.563-3.034.707-3.621-9.193-2.256-10.325-3.041-2.694-4.95-2.122-7.156" transform="translate(-153.511 -162.667)" fill="#1f161e" class="DfffXXRF_55"></path><path d="M336.23,252.572c0,2.666-15.48,2.744-15.48,0V230.89h15.48Z" transform="translate(-93.929 -68.32)" fill="#f8cdba" class="DfffXXRF_56"></path><path d="M331.188,238.7c-1.414,0-10.438,3.988-10.438,6.216V233.15C323,233.15,331.188,238.7,331.188,238.7Z" transform="translate(-93.929 -68.982)" fill="#1f161e" class="DfffXXRF_57"></path><path transform="translate(221.51 133.159)" fill="#f8cdba" d="M0,18.74A18.74,18.74 0,1,1 37.48,18.74A18.74,18.74 0,1,1 0,18.74" class="DfffXXRF_58"></path><path d="M349.493,187.252c-2.319,3.684-7.171,5.374-12.425,5.374-4.476,0-11-1.3-15.635,1.344-2.51,1.414-5.389,4.632-5.968,11.074,0,1.1-1.252,5.382-1.252,6.76,0,.941-1.061,1.556-2.829,1.556-.912,0-2.716-1.478-2.716-3.734,0-2.609,1.04-3.536,1.04-5.749S307,199.535,307,193.383c0-8.861,5.657-14.32,9.66-14.32,3.649,0,4.795.849,5.254,1.209,0-8.055,10.607-11.732,14.815-11.732,4.809,0,7.072,1.973,7.072,4.483,0,4-1.909,7.4-2.878,8.168a11.88,11.88,0,0,1,7.991-3.048c5.509,0,7.362,3.621,7.362,6.1,0,5.382-6.456,10.367-8.861,10.367a25.692,25.692,0,0,0-2.121-3.67" transform="translate(-89.903 -50.062)" fill="#1f161e" class="DfffXXRF_59"></path><path transform="translate(222.146 150.378)" fill="#f8cdba" d="M0,3.995A3.995,3.995 0,1,1 7.99,3.995A3.995,3.995 0,1,1 0,3.995" class="DfffXXRF_60"></path><path transform="translate(256.076 152.111)" fill="#fa9e9f" d="M0,1.612A3.097,1.612 0,1,1 6.194,1.612A3.097,1.612 0,1,1 0,1.612" class="DfffXXRF_61"></path><path transform="translate(236.594 152.111)" fill="#fa9e9f" d="M0,1.612A3.097,1.612 0,1,1 6.194,1.612A3.097,1.612 0,1,1 0,1.612" class="DfffXXRF_62"></path><path d="M355.8,213.65c.58.827,3.536,4.3.417,5.707" transform="translate(-104.193 -63.272)" fill="none" stroke="#1f161e" stroke-linecap="round" stroke-miterlimit="10" stroke-width="1" class="DfffXXRF_63"></path><path d="M346.266,226.539c-.933,0-2.369-1.16-3.126-2.2" transform="translate(-100.486 -66.402)" fill="none" stroke="#1f161e" stroke-linecap="round" stroke-miterlimit="10" stroke-width="1" class="DfffXXRF_64"></path><path d="M382.5,298.62c1.414,3.005,8.238,32,8.238,41.185" transform="translate(-112.012 -88.154)" fill="none" stroke="#1f161e" stroke-linecap="round" stroke-miterlimit="10" stroke-width="1" class="DfffXXRF_65"></path><path d="M247.32,348.41c0,32.593.3,42.048,13.387,42.048,30.153,0,75.737-24.751,83.862-24.751,7.178,0,10.926,3.706,15.162,3.706,2.949,0,8.267-2.327,8.267-5.473,0-6.612-13.387-11.817-19.093-11.817-12.849,0-64.125,12.389-65.377,12.389s-3.359-.544-3.359-2.652c0-3.826,2.5-12.665,2.829-13.436Z" transform="translate(-72.426 -102.735)" fill="#f8cdba" class="DfffXXRF_66"></path><path d="M304.956,308.21c-.863,2.482-7.588,28.131-8.366,31.257" transform="translate(-86.855 -90.963)" fill="none" stroke="#1f161e" stroke-linecap="round" stroke-miterlimit="10" stroke-width="1" class="DfffXXRF_67"></path><path width="7.241" height="149.636" transform="matrix(-0.967, 0.254, -0.254, -0.967, 481.341, 417.292)" fill="#969696" d="M 3,0 L 4.241,0 A 3,3,0,0,1,7.241,3 L 7.241,146.636 A 3,3,0,0,1,4.241,149.636 L 3,149.636 A 3,3,0,0,1,0,146.636 L 0,3 A 3,3,0,0,1,3,0" class="DfffXXRF_68"></path><path width="7.241" height="149.636" transform="matrix(0.967, 0.254, -0.254, 0.967, 430.765, 272.578)" fill="#969696" d="M 3,0 L 4.241,0 A 3,3,0,0,1,7.241,3 L 7.241,146.636 A 3,3,0,0,1,4.241,149.636 L 3,149.636 A 3,3,0,0,1,0,146.636 L 0,3 A 3,3,0,0,1,3,0" class="DfffXXRF_69"></path><path width="7.241" height="149.636" transform="matrix(0.967, 0.254, -0.254, 0.967, 380.805, 272.577)" fill="#d8d8d8" d="M 3,0 L 4.241,0 A 3,3,0,0,1,7.241,3 L 7.241,146.636 A 3,3,0,0,1,4.241,149.636 L 3,149.636 A 3,3,0,0,1,0,146.636 L 0,3 A 3,3,0,0,1,3,0" class="DfffXXRF_70"></path><path width="7.254" height="149.89" transform="translate(430.754 414.792) rotate(165.548)" fill="#d8d8d8" d="M 3,0 L 4.254,0 A 3,3,0,0,1,7.254,3 L 7.254,146.89 A 3,3,0,0,1,4.254,149.89 L 3,149.89 A 3,3,0,0,1,0,146.89 L 0,3 A 3,3,0,0,1,3,0" class="DfffXXRF_71"></path><path width="7.241" height="149.636" transform="matrix(0.967, 0.254, -0.254, 0.967, 176.846, 272.582)" fill="#969696" d="M 3,0 L 4.241,0 A 3,3,0,0,1,7.241,3 L 7.241,146.636 A 3,3,0,0,1,4.241,149.636 L 3,149.636 A 3,3,0,0,1,0,146.636 L 0,3 A 3,3,0,0,1,3,0" class="DfffXXRF_72"></path><path width="7.241" height="149.636" transform="matrix(-0.967, 0.254, -0.254, -0.967, 226.804, 417.302)" fill="#969696" d="M 3,0 L 4.241,0 A 3,3,0,0,1,7.241,3 L 7.241,146.636 A 3,3,0,0,1,4.241,149.636 L 3,149.636 A 3,3,0,0,1,0,146.636 L 0,3 A 3,3,0,0,1,3,0" class="DfffXXRF_73"></path><path width="356.572" height="10.714" transform="translate(105.768 266.699)" fill="#d8d8d8" d="M 4,0 L 352.572,0 A 4,4,0,0,1,356.572,4 L 356.572,6.714 A 4,4,0,0,1,352.572,10.714 L 4,10.714 A 4,4,0,0,1,0,6.714 L 0,4 A 4,4,0,0,1,4,0" class="DfffXXRF_74"></path><path width="7.241" height="149.636" transform="matrix(0.967, 0.254, -0.254, 0.967, 125.099, 272.584)" fill="#d8d8d8" d="M 3,0 L 4.241,0 A 3,3,0,0,1,7.241,3 L 7.241,146.636 A 3,3,0,0,1,4.241,149.636 L 3,149.636 A 3,3,0,0,1,0,146.636 L 0,3 A 3,3,0,0,1,3,0" class="DfffXXRF_75"></path><path width="7.241" height="149.636" transform="matrix(-0.967, 0.254, -0.254, -0.967, 175.057, 417.303)" fill="#d8d8d8" d="M 3,0 L 4.241,0 A 3,3,0,0,1,7.241,3 L 7.241,146.636 A 3,3,0,0,1,4.241,149.636 L 3,149.636 A 3,3,0,0,1,0,146.636 L 0,3 A 3,3,0,0,1,3,0" class="DfffXXRF_76"></path><path d="M493.19,359.858H427.77L439.622,319.1a4.759,4.759,0,0,1,4.582-3.387h55.512a4.681,4.681,0,0,1,4.582,5.947Z" transform="translate(-125.269 -93.159)" class="DfffXXRF_77"></path><path transform="translate(339.238 240.619)" fill="#fff" d="M0,4.003A4.003,4.003 0,1,1 8.006,4.003A4.003,4.003 0,1,1 0,4.003" class="DfffXXRF_78"></path><path width="45.902" height="2.864" transform="translate(264.371 263.835)" d="M0 0 L45.902 0 L45.902 2.864 L0 2.864 Z" class="DfffXXRF_79"></path></g></g><style data-made-with="vivus-instant">.DfffXXRF_0{stroke-dasharray:190 192;stroke-dashoffset:191;animation:DfffXXRF_draw 1000ms ease-in-out 0ms forwards;}.DfffXXRF_1{stroke-dasharray:83 85;stroke-dashoffset:84;animation:DfffXXRF_draw 1000ms ease-in-out 0ms forwards;}.DfffXXRF_2{stroke-dasharray:83 85;stroke-dashoffset:84;animation:DfffXXRF_draw 1000ms ease-in-out 0ms forwards;}.DfffXXRF_3{stroke-dasharray:34 36;stroke-dashoffset:35;animation:DfffXXRF_draw 1000ms ease-in-out 0ms forwards;}.DfffXXRF_4{stroke-dasharray:34 36;stroke-dashoffset:35;animation:DfffXXRF_draw 1000ms ease-in-out 0ms forwards;}.DfffXXRF_5{stroke-dasharray:21 23;stroke-dashoffset:22;animation:DfffXXRF_draw 1000ms ease-in-out 0ms forwards;}.DfffXXRF_6{stroke-dasharray:60 62;stroke-dashoffset:61;animation:DfffXXRF_draw 1000ms ease-in-out 0ms forwards;}.DfffXXRF_7{stroke-dasharray:57 59;stroke-dashoffset:58;animation:DfffXXRF_draw 1000ms ease-in-out 0ms forwards;}.DfffXXRF_8{stroke-dasharray:65 67;stroke-dashoffset:66;animation:DfffXXRF_draw 1000ms ease-in-out 0ms forwards;}.DfffXXRF_9{stroke-dasharray:183 185;stroke-dashoffset:184;animation:DfffXXRF_draw 1000ms ease-in-out 0ms forwards;}.DfffXXRF_10{stroke-dasharray:164 166;stroke-dashoffset:165;animation:DfffXXRF_draw 1000ms ease-in-out 0ms forwards;}.DfffXXRF_11{stroke-dasharray:151 153;stroke-dashoffset:152;animation:DfffXXRF_draw 1000ms ease-in-out 0ms forwards;}.DfffXXRF_12{stroke-dasharray:142 144;stroke-dashoffset:143;animation:DfffXXRF_draw 1000ms ease-in-out 0ms forwards;}.DfffXXRF_13{stroke-dasharray:125 127;stroke-dashoffset:126;animation:DfffXXRF_draw 1000ms ease-in-out 0ms forwards;}.DfffXXRF_14{stroke-dasharray:222 224;stroke-dashoffset:223;animation:DfffXXRF_draw 1000ms ease-in-out 0ms forwards;}.DfffXXRF_15{stroke-dasharray:135 137;stroke-dashoffset:136;animation:DfffXXRF_draw 1000ms ease-in-out 0ms forwards;}.DfffXXRF_16{stroke-dasharray:113 115;stroke-dashoffset:114;animation:DfffXXRF_draw 1000ms ease-in-out 0ms forwards;}.DfffXXRF_17{stroke-dasharray:13 15;stroke-dashoffset:14;animation:DfffXXRF_draw 1000ms ease-in-out 0ms forwards;}.DfffXXRF_18{stroke-dasharray:13 15;stroke-dashoffset:14;animation:DfffXXRF_draw 1000ms ease-in-out 0ms forwards;}.DfffXXRF_19{stroke-dasharray:109 111;stroke-dashoffset:110;animation:DfffXXRF_draw 1000ms ease-in-out 0ms forwards;}.DfffXXRF_20{stroke-dasharray:42 44;stroke-dashoffset:43;animation:DfffXXRF_draw 1000ms ease-in-out 0ms forwards;}.DfffXXRF_21{stroke-dasharray:25 27;stroke-dashoffset:26;animation:DfffXXRF_draw 1000ms ease-in-out 0ms forwards;}.DfffXXRF_22{stroke-dasharray:25 27;stroke-dashoffset:26;animation:DfffXXRF_draw 1000ms ease-in-out 0ms forwards;}.DfffXXRF_23{stroke-dasharray:20 22;stroke-dashoffset:21;animation:DfffXXRF_draw 1000ms ease-in-out 0ms forwards;}.DfffXXRF_24{stroke-dasharray:89 91;stroke-dashoffset:90;animation:DfffXXRF_draw 1000ms ease-in-out 0ms forwards;}.DfffXXRF_25{stroke-dasharray:16 18;stroke-dashoffset:17;animation:DfffXXRF_draw 1000ms ease-in-out 0ms forwards;}.DfffXXRF_26{stroke-dasharray:17 19;stroke-dashoffset:18;animation:DfffXXRF_draw 1000ms ease-in-out 0ms forwards;}.DfffXXRF_27{stroke-dasharray:25 27;stroke-dashoffset:26;animation:DfffXXRF_draw 1000ms ease-in-out 0ms forwards;}.DfffXXRF_28{stroke-dasharray:213 215;stroke-dashoffset:214;animation:DfffXXRF_draw 1000ms ease-in-out 0ms forwards;}.DfffXXRF_29{stroke-dasharray:107 109;stroke-dashoffset:108;animation:DfffXXRF_draw 1000ms ease-in-out 0ms forwards;}.DfffXXRF_30{stroke-dasharray:76 78;stroke-dashoffset:77;animation:DfffXXRF_draw 1000ms ease-in-out 0ms forwards;}.DfffXXRF_31{stroke-dasharray:76 78;stroke-dashoffset:77;animation:DfffXXRF_draw 1000ms ease-in-out 0ms forwards;}.DfffXXRF_32{stroke-dasharray:76 78;stroke-dashoffset:77;animation:DfffXXRF_draw 1000ms ease-in-out 0ms forwards;}.DfffXXRF_33{stroke-dasharray:18 20;stroke-dashoffset:19;animation:DfffXXRF_draw 1000ms ease-in-out 0ms forwards;}.DfffXXRF_34{stroke-dasharray:16 18;stroke-dashoffset:17;animation:DfffXXRF_draw 1000ms ease-in-out 0ms forwards;}.DfffXXRF_35{stroke-dasharray:16 18;stroke-dashoffset:17;animation:DfffXXRF_draw 1000ms ease-in-out 0ms forwards;}.DfffXXRF_36{stroke-dasharray:16 18;stroke-dashoffset:17;animation:DfffXXRF_draw 1000ms ease-in-out 0ms forwards;}.DfffXXRF_37{stroke-dasharray:16 18;stroke-dashoffset:17;animation:DfffXXRF_draw 1000ms ease-in-out 0ms forwards;}.DfffXXRF_38{stroke-dasharray:42 44;stroke-dashoffset:43;animation:DfffXXRF_draw 1000ms ease-in-out 0ms forwards;}.DfffXXRF_39{stroke-dasharray:42 44;stroke-dashoffset:43;animation:DfffXXRF_draw 1000ms ease-in-out 0ms forwards;}.DfffXXRF_40{stroke-dasharray:42 44;stroke-dashoffset:43;animation:DfffXXRF_draw 1000ms ease-in-out 0ms forwards;}.DfffXXRF_41{stroke-dasharray:53 55;stroke-dashoffset:54;animation:DfffXXRF_draw 1000ms ease-in-out 0ms forwards;}.DfffXXRF_42{stroke-dasharray:22 24;stroke-dashoffset:23;animation:DfffXXRF_draw 1000ms ease-in-out 0ms forwards;}.DfffXXRF_43{stroke-dasharray:22 24;stroke-dashoffset:23;animation:DfffXXRF_draw 1000ms ease-in-out 0ms forwards;}.DfffXXRF_44{stroke-dasharray:125 127;stroke-dashoffset:126;animation:DfffXXRF_draw 1000ms ease-in-out 0ms forwards;}.DfffXXRF_45{stroke-dasharray:53 55;stroke-dashoffset:54;animation:DfffXXRF_draw 1000ms ease-in-out 0ms forwards;}.DfffXXRF_46{stroke-dasharray:27 29;stroke-dashoffset:28;animation:DfffXXRF_draw 1000ms ease-in-out 0ms forwards;}.DfffXXRF_47{stroke-dasharray:38 40;stroke-dashoffset:39;animation:DfffXXRF_draw 1000ms ease-in-out 0ms forwards;}.DfffXXRF_48{stroke-dasharray:140 142;stroke-dashoffset:141;animation:DfffXXRF_draw 1000ms ease-in-out 0ms forwards;}.DfffXXRF_49{stroke-dasharray:99 101;stroke-dashoffset:100;animation:DfffXXRF_draw 1000ms ease-in-out 0ms forwards;}.DfffXXRF_50{stroke-dasharray:61 63;stroke-dashoffset:62;animation:DfffXXRF_draw 1000ms ease-in-out 0ms forwards;}.DfffXXRF_51{stroke-dasharray:367 369;stroke-dashoffset:368;animation:DfffXXRF_draw 1000ms ease-in-out 0ms forwards;}.DfffXXRF_52{stroke-dasharray:236 238;stroke-dashoffset:237;animation:DfffXXRF_draw 1000ms ease-in-out 0ms forwards;}.DfffXXRF_53{stroke-dasharray:544 546;stroke-dashoffset:545;animation:DfffXXRF_draw 1000ms ease-in-out 0ms forwards;}.DfffXXRF_54{stroke-dasharray:108 110;stroke-dashoffset:109;animation:DfffXXRF_draw 1000ms ease-in-out 0ms forwards;}.DfffXXRF_55{stroke-dasharray:61 63;stroke-dashoffset:62;animation:DfffXXRF_draw 1000ms ease-in-out 0ms forwards;}.DfffXXRF_56{stroke-dasharray:76 78;stroke-dashoffset:77;animation:DfffXXRF_draw 1000ms ease-in-out 0ms forwards;}.DfffXXRF_57{stroke-dasharray:37 39;stroke-dashoffset:38;animation:DfffXXRF_draw 1000ms ease-in-out 0ms forwards;}.DfffXXRF_58{stroke-dasharray:118 120;stroke-dashoffset:119;animation:DfffXXRF_draw 1000ms ease-in-out 0ms forwards;}.DfffXXRF_59{stroke-dasharray:177 179;stroke-dashoffset:178;animation:DfffXXRF_draw 1000ms ease-in-out 0ms forwards;}.DfffXXRF_60{stroke-dasharray:26 28;stroke-dashoffset:27;animation:DfffXXRF_draw 1000ms ease-in-out 0ms forwards;}.DfffXXRF_61{stroke-dasharray:16 18;stroke-dashoffset:17;animation:DfffXXRF_draw 1000ms ease-in-out 0ms forwards;}.DfffXXRF_62{stroke-dasharray:16 18;stroke-dashoffset:17;animation:DfffXXRF_draw 1000ms ease-in-out 0ms forwards;}.DfffXXRF_63{stroke-dasharray:7 9;stroke-dashoffset:8;animation:DfffXXRF_draw 1000ms ease-in-out 0ms forwards;}.DfffXXRF_64{stroke-dasharray:4 6;stroke-dashoffset:5;animation:DfffXXRF_draw 1000ms ease-in-out 0ms forwards;}.DfffXXRF_65{stroke-dasharray:43 45;stroke-dashoffset:44;animation:DfffXXRF_draw 1000ms ease-in-out 0ms forwards;}.DfffXXRF_66{stroke-dasharray:309 311;stroke-dashoffset:310;animation:DfffXXRF_draw 1000ms ease-in-out 0ms forwards;}.DfffXXRF_67{stroke-dasharray:33 35;stroke-dashoffset:34;animation:DfffXXRF_draw 1000ms ease-in-out 0ms forwards;}.DfffXXRF_68{stroke-dasharray:309 311;stroke-dashoffset:310;animation:DfffXXRF_draw 1000ms ease-in-out 0ms forwards;}.DfffXXRF_69{stroke-dasharray:309 311;stroke-dashoffset:310;animation:DfffXXRF_draw 1000ms ease-in-out 0ms forwards;}.DfffXXRF_70{stroke-dasharray:309 311;stroke-dashoffset:310;animation:DfffXXRF_draw 1000ms ease-in-out 0ms forwards;}.DfffXXRF_71{stroke-dasharray:310 312;stroke-dashoffset:311;animation:DfffXXRF_draw 1000ms ease-in-out 0ms forwards;}.DfffXXRF_72{stroke-dasharray:309 311;stroke-dashoffset:310;animation:DfffXXRF_draw 1000ms ease-in-out 0ms forwards;}.DfffXXRF_73{stroke-dasharray:309 311;stroke-dashoffset:310;animation:DfffXXRF_draw 1000ms ease-in-out 0ms forwards;}.DfffXXRF_74{stroke-dasharray:728 730;stroke-dashoffset:729;animation:DfffXXRF_draw 1000ms ease-in-out 0ms forwards;}.DfffXXRF_75{stroke-dasharray:309 311;stroke-dashoffset:310;animation:DfffXXRF_draw 1000ms ease-in-out 0ms forwards;}.DfffXXRF_76{stroke-dasharray:309 311;stroke-dashoffset:310;animation:DfffXXRF_draw 1000ms ease-in-out 0ms forwards;}.DfffXXRF_77{stroke-dasharray:218 220;stroke-dashoffset:219;animation:DfffXXRF_draw 1000ms ease-in-out 0ms forwards;}.DfffXXRF_78{stroke-dasharray:26 28;stroke-dashoffset:27;animation:DfffXXRF_draw 1000ms ease-in-out 0ms forwards;}.DfffXXRF_79{stroke-dasharray:98 100;stroke-dashoffset:99;animation:DfffXXRF_draw 1000ms ease-in-out 0ms forwards;}@keyframes DfffXXRF_draw{100%{stroke-dashoffset:0;}}@keyframes DfffXXRF_fade{0%{stroke-opacity:1;}92.3076923076923%{stroke-opacity:1;}100%{stroke-opacity:0;}}</style></svg>