<svg width="500" height="421" viewBox="0 0 500 421" fill="none" xmlns="http://www.w3.org/2000/svg" style="">
<g clip-path="url(#clip0)">
<g opacity="0.045">
<path opacity="0.045" d="M44.373 210.349C44.373 182.726 49.8139 155.373 60.3849 129.852C70.9559 104.331 86.4501 81.1425 105.983 61.6098C125.516 42.0771 148.704 26.5829 174.225 16.0119C199.746 5.44084 227.099 0 254.722 0C282.345 0 309.698 5.44084 335.219 16.0119C360.74 26.5829 383.929 42.0771 403.461 61.6098C422.994 81.1425 438.488 104.331 449.059 129.852C459.63 155.373 465.071 182.726 465.071 210.349C465.071 237.972 459.63 265.325 449.059 290.846C438.488 316.367 422.994 339.555 403.461 359.088C383.929 378.621 360.74 394.115 335.219 404.686C309.698 415.257 282.345 420.698 254.722 420.698C227.099 420.698 199.746 415.257 174.225 404.686C148.704 394.115 125.516 378.621 105.983 359.088C86.4501 339.555 70.9559 316.367 60.3849 290.846C49.8139 265.325 44.373 237.972 44.373 210.349" fill="#63ADFB" class="WPocKTdg_0"></path>
</g>
<path d="M242.477 118.645H371.462V318.382H242.477V118.645Z" fill="white" class="WPocKTdg_1"></path>
<path d="M216.625 240.555H348.876" stroke="black" stroke-miterlimit="10" stroke-dasharray="133 135" class="WPocKTdg_2"></path>
<path d="M216.625 253.617H348.876" stroke="black" stroke-miterlimit="10" stroke-dasharray="133 135" class="WPocKTdg_3"></path>
<path d="M216.625 266.678H348.876" stroke="black" stroke-miterlimit="10" stroke-dasharray="133 135" class="WPocKTdg_4"></path>
<path d="M216.625 279.74H348.876" stroke="black" stroke-miterlimit="10" stroke-dasharray="133 135" class="WPocKTdg_5"></path>
<path d="M273.227 176.878C273.227 167.929 276.782 159.346 283.11 153.018C289.438 146.69 298.021 143.135 306.97 143.135C315.919 143.135 324.502 146.69 330.83 153.018C337.158 159.346 340.713 167.929 340.713 176.878C340.713 185.827 337.158 194.41 330.83 200.738C324.502 207.066 315.919 210.621 306.97 210.621C298.021 210.621 289.438 207.066 283.11 200.738C276.782 194.41 273.227 185.827 273.227 176.878" fill="#F2F2F2" class="WPocKTdg_6"></path>
<path opacity="0.7" d="M348.876 189.668H402.212V239.194H348.876V189.668Z" fill="#50B89D" class="WPocKTdg_7"></path>
<path d="M364.224 216.301L368.197 217.907V219.151L363.005 216.745V215.819L368.197 213.419V214.663L364.224 216.301ZM373.51 221.182H372.501L376.361 211.147H377.363L373.51 221.182ZM386.015 216.263L381.82 214.619V213.413L387.24 215.812V216.739L381.82 219.145V217.926L386.015 216.263Z" fill="white" class="WPocKTdg_8"></path>
<path d="M19.61 20.4089H307.514V209.805H19.61V20.4089Z" stroke="black" stroke-miterlimit="10" stroke-dasharray="955 957" class="WPocKTdg_9"></path>
<path d="M19.61 30.4771H307.514" stroke="black" stroke-miterlimit="10" stroke-dasharray="288 290" class="WPocKTdg_10"></path>
<path d="M40.563 47.3489H127.097V133.883H40.563V47.3489Z" stroke="black" stroke-miterlimit="10" stroke-dasharray="347 349" class="WPocKTdg_11"></path>
<path d="M143.697 54.968H275.948" stroke="black" stroke-miterlimit="10" stroke-dasharray="133 135" class="WPocKTdg_12"></path>
<path d="M143.697 68.03H275.948" stroke="black" stroke-miterlimit="10" stroke-dasharray="133 135" class="WPocKTdg_13"></path>
<path d="M143.697 81.092H275.948" stroke="black" stroke-miterlimit="10" stroke-dasharray="133 135" class="WPocKTdg_14"></path>
<path d="M143.697 94.1541H275.948" stroke="black" stroke-miterlimit="10" stroke-dasharray="133 135" class="WPocKTdg_15"></path>
<path opacity="0.44" d="M83.8351 70.207L60.2651 111.025H107.396L83.8351 70.207Z" fill="#50B89D" class="WPocKTdg_16"></path>
<path d="M23.42 25.5789C23.42 24.9294 23.6781 24.3065 24.1373 23.8472C24.5966 23.3879 25.2195 23.1299 25.869 23.1299C26.5186 23.1299 27.1415 23.3879 27.6007 23.8472C28.06 24.3065 28.318 24.9294 28.318 25.5789C28.318 26.2284 28.06 26.8513 27.6007 27.3106C27.1415 27.7699 26.5186 28.0279 25.869 28.0279C25.2195 28.0279 24.5966 27.7699 24.1373 27.3106C23.6781 26.8513 23.42 26.2284 23.42 25.5789" fill="#AB8DE5" class="WPocKTdg_17"></path>
<path d="M31.855 25.5789C31.855 24.9294 32.1131 24.3065 32.5723 23.8472C33.0316 23.3879 33.6545 23.1299 34.304 23.1299C34.9536 23.1299 35.5765 23.3879 36.0357 23.8472C36.495 24.3065 36.753 24.9294 36.753 25.5789C36.753 26.2284 36.495 26.8513 36.0357 27.3106C35.5765 27.7699 34.9536 28.0279 34.304 28.0279C33.6545 28.0279 33.0316 27.7699 32.5723 27.3106C32.1131 26.8513 31.855 26.2284 31.855 25.5789" fill="#73E5E2" class="WPocKTdg_18"></path>
<path d="M40.291 25.5789C40.291 24.9294 40.549 24.3065 41.0083 23.8472C41.4676 23.3879 42.0905 23.1299 42.74 23.1299C43.3895 23.1299 44.0124 23.3879 44.4717 23.8472C44.931 24.3065 45.189 24.9294 45.189 25.5789C45.189 26.2284 44.931 26.8513 44.4717 27.3106C44.0124 27.7699 43.3895 28.0279 42.74 28.0279C42.0905 28.0279 41.4676 27.7699 41.0083 27.3106C40.549 26.8513 40.291 26.2284 40.291 25.5789" fill="#50B89D" class="WPocKTdg_19"></path>
<path d="M146.418 174.837L154.582 167.626H146.255L146.418 174.837Z" fill="#AB8DE5" class="WPocKTdg_20"></path>
<path d="M151.255 140.686H188.387C191.835 140.686 195.141 142.056 197.579 144.494C200.017 146.932 201.387 150.238 201.387 153.686V155.442C201.387 158.89 200.017 162.196 197.579 164.634C195.141 167.072 191.835 168.442 188.387 168.442H151.255C147.807 168.442 144.501 167.072 142.063 164.634C139.625 162.196 138.255 158.89 138.255 155.442V153.686C138.255 150.238 139.625 146.932 142.063 144.494C144.501 142.056 147.807 140.686 151.255 140.686" fill="#AB8DE5" class="WPocKTdg_21"></path>
<path d="M158.936 154.564C158.936 153.914 159.194 153.292 159.653 152.832C160.113 152.373 160.736 152.115 161.385 152.115C162.035 152.115 162.657 152.373 163.117 152.832C163.576 153.292 163.834 153.914 163.834 154.564C163.834 155.214 163.576 155.836 163.117 156.296C162.657 156.755 162.035 157.013 161.385 157.013C160.736 157.013 160.113 156.755 159.653 156.296C159.194 155.836 158.936 155.214 158.936 154.564" fill="white" class="WPocKTdg_22"></path>
<path d="M167.372 154.564C167.372 153.914 167.63 153.292 168.089 152.832C168.549 152.373 169.172 152.115 169.821 152.115C170.471 152.115 171.093 152.373 171.553 152.832C172.012 153.292 172.27 153.914 172.27 154.564C172.27 155.214 172.012 155.836 171.553 156.296C171.093 156.755 170.471 157.013 169.821 157.013C169.172 157.013 168.549 156.755 168.089 156.296C167.63 155.836 167.372 155.214 167.372 154.564" fill="white" class="WPocKTdg_23"></path>
<path d="M175.807 154.564C175.807 153.914 176.065 153.292 176.524 152.832C176.984 152.373 177.607 152.115 178.256 152.115C178.906 152.115 179.528 152.373 179.988 152.832C180.447 153.292 180.705 153.914 180.705 154.564C180.705 155.214 180.447 155.836 179.988 156.296C179.528 156.755 178.906 157.013 178.256 157.013C177.607 157.013 176.984 156.755 176.524 156.296C176.065 155.836 175.807 155.214 175.807 154.564" fill="white" class="WPocKTdg_24"></path>
<path d="M404.933 93.201L396.769 85.99H405.096L404.933 93.201Z" fill="#73E5E2" class="WPocKTdg_25"></path>
<path d="M400.097 86.8059H362.965C359.517 86.8059 356.211 85.4363 353.773 82.9983C351.335 80.5603 349.965 77.2537 349.965 73.8059V72.0499C349.965 68.6021 351.335 65.2955 353.773 62.8575C356.211 60.4195 359.517 59.0499 362.965 59.0499L400.097 59.0499C403.545 59.0499 406.851 60.4195 409.289 62.8575C411.727 65.2955 413.097 68.6021 413.097 72.0499V73.8059C413.097 77.2537 411.727 80.5603 409.289 82.9983C406.851 85.4363 403.545 86.8059 400.097 86.8059" fill="#73E5E2" class="WPocKTdg_26"></path>
<path d="M387.517 72.928C387.517 72.2785 387.775 71.6556 388.234 71.1963C388.694 70.737 389.317 70.479 389.966 70.479C390.616 70.479 391.238 70.737 391.698 71.1963C392.157 71.6556 392.415 72.2785 392.415 72.928C392.415 73.5775 392.157 74.2004 391.698 74.6597C391.238 75.119 390.616 75.377 389.966 75.377C389.317 75.377 388.694 75.119 388.234 74.6597C387.775 74.2004 387.517 73.5775 387.517 72.928" fill="white" class="WPocKTdg_27"></path>
<path d="M379.082 72.928C379.082 72.2785 379.34 71.6556 379.799 71.1963C380.259 70.737 380.882 70.479 381.531 70.479C382.181 70.479 382.803 70.737 383.263 71.1963C383.722 71.6556 383.98 72.2785 383.98 72.928C383.98 73.5775 383.722 74.2004 383.263 74.6597C382.803 75.119 382.181 75.377 381.531 75.377C380.882 75.377 380.259 75.119 379.799 74.6597C379.34 74.2004 379.082 73.5775 379.082 72.928" fill="white" class="WPocKTdg_28"></path>
<path d="M370.646 72.928C370.646 72.2785 370.904 71.6556 371.363 71.1963C371.823 70.737 372.446 70.479 373.095 70.479C373.745 70.479 374.367 70.737 374.827 71.1963C375.286 71.6556 375.544 72.2785 375.544 72.928C375.544 73.5775 375.286 74.2004 374.827 74.6597C374.367 75.119 373.745 75.377 373.095 75.377C372.446 75.377 371.823 75.119 371.363 74.6597C370.904 74.2004 370.646 73.5775 370.646 72.928" fill="white" class="WPocKTdg_29"></path>
<path d="M398.13 23.1299C398.13 22.4804 398.388 21.8575 398.847 21.3982C399.307 20.9389 399.93 20.6809 400.579 20.6809C401.229 20.6809 401.851 20.9389 402.311 21.3982C402.77 21.8575 403.028 22.4804 403.028 23.1299C403.028 23.7794 402.77 24.4023 402.311 24.8616C401.851 25.3209 401.229 25.5789 400.579 25.5789C399.93 25.5789 399.307 25.3209 398.847 24.8616C398.388 24.4023 398.13 23.7794 398.13 23.1299" fill="#F98B67" class="WPocKTdg_30"></path>
<path d="M403.3 33.199C403.3 32.5495 403.558 31.9266 404.017 31.4673C404.477 31.008 405.1 30.75 405.749 30.75C406.399 30.75 407.021 31.008 407.481 31.4673C407.94 31.9266 408.198 32.5495 408.198 33.199C408.198 33.8485 407.94 34.4714 407.481 34.9307C407.021 35.39 406.399 35.648 405.749 35.648C405.1 35.648 404.477 35.39 404.017 34.9307C403.558 34.4714 403.3 33.8485 403.3 33.199" fill="#F98B67" class="WPocKTdg_31"></path>
<path d="M345.611 132.523C345.611 131.512 346.012 130.543 346.727 129.829C347.441 129.114 348.411 128.713 349.421 128.713C350.432 128.713 351.401 129.114 352.115 129.829C352.83 130.543 353.231 131.512 353.231 132.523C353.231 133.533 352.83 134.502 352.115 135.217C351.401 135.931 350.432 136.333 349.421 136.333C348.411 136.333 347.441 135.931 346.727 135.217C346.012 134.502 345.611 133.533 345.611 132.523" fill="#F98B67" class="WPocKTdg_32"></path>
<path d="M367.925 145.585C367.925 144.574 368.326 143.605 369.041 142.891C369.755 142.176 370.725 141.775 371.735 141.775C372.746 141.775 373.715 142.176 374.429 142.891C375.144 143.605 375.545 144.574 375.545 145.585C375.545 146.595 375.144 147.564 374.429 148.279C373.715 148.993 372.746 149.395 371.735 149.395C370.725 149.395 369.755 148.993 369.041 148.279C368.326 147.564 367.925 146.595 367.925 145.585" fill="#F98B67" class="WPocKTdg_33"></path>
<path d="M25.0521 149.939C25.0521 148.928 25.4535 147.959 26.168 147.245C26.8825 146.53 27.8516 146.129 28.8621 146.129C29.8725 146.129 30.8416 146.53 31.5561 147.245C32.2707 147.959 32.6721 148.928 32.6721 149.939C32.6721 150.949 32.2707 151.918 31.5561 152.633C30.8416 153.347 29.8725 153.749 28.8621 153.749C27.8516 153.749 26.8825 153.347 26.168 152.633C25.4535 151.918 25.0521 150.949 25.0521 149.939" fill="#F98B67" class="WPocKTdg_34"></path>
<path d="M358.237 323.96V323.416L356.931 321.783L353.91 318.115L350.699 314.229C350.699 314.229 347.608 312.09 346.813 311.72C343.979 310.253 340.849 309.446 337.659 309.358C335.559 309.358 327.732 309.674 327.716 310.991C327.716 312.945 338.682 320.341 346.726 323.933C350.258 323.96 358.237 323.96 358.237 323.96Z" fill="#1F161E" class="WPocKTdg_35"></path>
<path d="M356.577 323.959C345.415 315.371 322.627 268.528 328.477 251.167C340.918 257.507 354.568 279.367 361.006 297.83C361.352 299.031 361.631 300.25 361.839 301.482L364.451 313.455L365.082 323.975L356.577 323.959Z" fill="#FBDC8E" class="WPocKTdg_36"></path>
<path d="M364.196 323.96C360.43 320.901 359.227 311.845 359.196 308.465C359.136 302.157 360.105 297.509 365.496 290.57C370.887 283.631 369.453 272.12 376.615 264.354C383.777 256.588 388.523 254.422 397.024 254.422C405.525 254.422 408.224 268.202 408.181 271.669C408.081 285.656 399.272 287.637 393.895 294.309C389.995 299.153 389.688 303.115 388.507 305.379C382.172 317.579 377.023 322.169 373.214 323.959" fill="#73E5E2" class="WPocKTdg_37"></path>
<path d="M366.276 322.947C366.385 299.093 391.523 263.265 396.895 257.894" stroke="white" stroke-width="0.4" stroke-linecap="round" stroke-linejoin="round" stroke-dasharray="73 75" class="WPocKTdg_38"></path>
<path d="M367.631 312.106C364.85 309.075 362.319 300.481 362.7 298.25" stroke="white" stroke-width="0.4" stroke-linecap="round" stroke-linejoin="round" stroke-dasharray="15 17" class="WPocKTdg_39"></path>
<path d="M360.507 321.903C356.567 314.92 337.872 280.873 330.9 255.794" stroke="white" stroke-width="0.4" stroke-linecap="round" stroke-linejoin="round" stroke-dasharray="73 75" class="WPocKTdg_40"></path>
<path d="M373.236 323.96H384.949L375.149 360.424H348.958L339.319 323.96H373.236" fill="#B37361" class="WPocKTdg_41"></path>
<path d="M331.548 311.731C337.257 312.123 344.441 312.384 349.508 315.84" stroke="white" stroke-width="0.4" stroke-linecap="round" stroke-linejoin="round" stroke-dasharray="19 21" class="WPocKTdg_42"></path>
<path d="M422.045 174.702C420.668 181.271 410.665 262.755 413.936 282.217C417.207 301.679 470.536 342.459 472.872 343.172C475.593 341.172 479.599 334.627 479.599 334.627C479.599 334.627 440.499 289.297 439.75 287.479C439.001 285.661 448.313 180.689 448.313 180.689L422.045 174.702Z" fill="#0E866F" class="WPocKTdg_43"></path>
<path d="M485.732 189.533L445.833 352.271H432.396L446.013 182.501L485.732 189.533Z" fill="#00BA96" class="WPocKTdg_44"></path>
<path d="M457.393 96.3579C462.901 96.3579 491.631 97.2889 496.823 107.401C502.015 117.513 497.123 164.252 493.895 166.065C492.153 167.039 491.68 166.092 491.174 168.073C490.668 170.054 485.732 189.532 485.732 189.532C482.597 189.619 436.892 182.732 422.056 174.685C422.143 172.448 422.861 166.63 422.861 166.185C420.891 166.99 418.507 167.159 417.854 166.185C412.063 157.417 420.695 111.706 426.888 102.509C429.522 98.5619 448.554 96.3849 457.393 96.3579Z" fill="#0C2769" class="WPocKTdg_45"></path>
<path d="M476.311 167.327C477.661 167.327 489.28 175.491 488.284 179.502C489.1 176.28 491.669 166.326 491.669 166.326C490.565 166.538 477.302 167.344 476.311 167.327Z" fill="#1F161E" class="WPocKTdg_46"></path>
<path d="M464.506 101.692C464.506 103.466 450.514 103.466 450.514 101.692V83.7319H464.506V101.692Z" fill="#F8CDBA" class="WPocKTdg_47"></path>
<path d="M456.479 87.9819C457.568 87.9819 464.507 91.0519 464.507 92.7599V83.7319C462.776 83.7319 456.479 87.9819 456.479 87.9819Z" fill="#1F161E" class="WPocKTdg_48"></path>
<path d="M440.952 75.6818C440.952 73.8944 441.304 72.1245 441.988 70.4731C442.672 68.8217 443.675 67.3213 444.939 66.0574C446.203 64.7935 447.703 63.7909 449.354 63.1069C451.006 62.4229 452.776 62.0708 454.563 62.0708C456.35 62.0708 458.12 62.4229 459.772 63.1069C461.423 63.7909 462.924 64.7935 464.187 66.0574C465.451 67.3213 466.454 68.8217 467.138 70.4731C467.822 72.1245 468.174 73.8944 468.174 75.6818C468.174 77.4692 467.822 79.2391 467.138 80.8905C466.454 82.5419 465.451 84.0423 464.187 85.3062C462.924 86.5701 461.423 87.5727 459.772 88.2567C458.12 88.9407 456.35 89.2928 454.563 89.2928C452.776 89.2928 451.006 88.9407 449.354 88.2567C447.703 87.5727 446.203 86.5701 444.939 85.3062C443.675 84.0423 442.672 82.5419 441.988 80.8905C441.304 79.2391 440.952 77.4692 440.952 75.6818" fill="#F8CDBA" class="WPocKTdg_49"></path>
<path d="M449.959 55.7849C442.971 55.7849 438.617 60.1719 438.617 65.7939C438.617 70.4689 439.749 73.1139 441.083 73.7829C441.926 69.2439 443.761 67.1429 445.283 66.2399C446.464 67.1399 448.483 69.3309 451.183 70.0059C453.883 70.6809 460.909 70.5499 466.583 74.6759C468.439 72.9889 470.289 70.7959 470.289 68.2099C470.289 65.6239 469.146 62.3809 462.425 60.5099C457.981 59.2739 457.361 55.7849 449.959 55.7849Z" fill="#1F161E" class="WPocKTdg_50"></path>
<path d="M439.46 78.4849C439.46 78.1558 439.711 77.8401 440.158 77.6074C440.605 77.3746 441.212 77.2439 441.844 77.2439C442.476 77.2439 443.083 77.3746 443.53 77.6074C443.977 77.8401 444.228 78.1558 444.228 78.4849C444.228 78.814 443.977 79.1297 443.53 79.3624C443.083 79.5951 442.476 79.7259 441.844 79.7259C441.212 79.7259 440.605 79.5951 440.158 79.3624C439.711 79.1297 439.46 78.814 439.46 78.4849" fill="#FA9E9F" class="WPocKTdg_51"></path>
<path d="M454.454 78.4849C454.454 78.1558 454.705 77.8401 455.152 77.6074C455.599 77.3746 456.206 77.2439 456.838 77.2439C457.47 77.2439 458.077 77.3746 458.524 77.6074C458.971 77.8401 459.222 78.1558 459.222 78.4849C459.222 78.814 458.971 79.1297 458.524 79.3624C458.077 79.5951 457.47 79.7259 456.838 79.7259C456.206 79.7259 455.599 79.5951 455.152 79.3624C454.705 79.1297 454.454 78.814 454.454 78.4849" fill="#FA9E9F" class="WPocKTdg_52"></path>
<path d="M447.667 75.9109C447.221 76.5479 444.946 79.2199 447.346 80.2979" stroke="#1F161E" stroke-miterlimit="10" stroke-linecap="round" stroke-dasharray="6 8" class="WPocKTdg_53"></path>
<path d="M452.152 83.422C453.138 83.1797 453.997 82.5753 454.558 81.729" stroke="#1F161E" stroke-miterlimit="10" stroke-linecap="round" stroke-dasharray="4 6" class="WPocKTdg_54"></path>
<path d="M464 77.25C464 76.4156 464.332 75.6154 464.922 75.0254C465.511 74.4355 466.312 74.104 467.146 74.104C467.98 74.104 468.781 74.4355 469.371 75.0254C469.961 75.6154 470.292 76.4156 470.292 77.25C470.292 78.0844 469.961 78.8846 469.371 79.4746C468.781 80.0646 467.98 80.396 467.146 80.396C466.312 80.396 465.511 80.0646 464.922 79.4746C464.332 78.8846 464 78.0844 464 77.25" fill="#F8CDBA" class="WPocKTdg_55"></path>
<path d="M476.626 123.14C476.381 126.14 475.426 140.991 475.782 142.94C471.216 144.529 429.407 164.356 422.174 166.533" stroke="#1F161E" stroke-miterlimit="10" stroke-linecap="round" stroke-dasharray="79 81" class="WPocKTdg_56"></path>
<path d="M428.07 118.454C427.107 121.817 423.863 137.083 426.143 144.175" stroke="#1F161E" stroke-miterlimit="10" stroke-linecap="round" stroke-dasharray="27 29" class="WPocKTdg_57"></path>
<path d="M438.742 159.594C440.919 161.123 461.785 170.359 490.635 166.876" stroke="#1F161E" stroke-miterlimit="10" stroke-linecap="round" stroke-dasharray="54 56" class="WPocKTdg_58"></path>
<path d="M436.741 144.175C438.141 144.398 433.579 140.757 430.994 142.112C428.409 143.467 424.926 149.601 425.639 151.021C425.735 151.278 425.888 151.511 426.086 151.702C426.285 151.892 426.523 152.036 426.784 152.123C427.045 152.209 427.322 152.236 427.595 152.201C427.868 152.166 428.129 152.07 428.36 151.921C429.065 151.473 434.306 143.783 436.741 144.175Z" fill="#F8CDBA" class="WPocKTdg_59"></path>
<path d="M479.152 335.297C479.898 335.841 486.51 340.315 486.565 343.134C486.62 345.953 480.404 355.298 479.152 355.564C477.9 355.83 477.008 354.775 477.008 352.886C477.008 350.997 479.37 347.686 479.054 346.219C478.738 344.752 475.685 342.061 474.118 342.012" fill="#1F161E" class="WPocKTdg_60"></path>
<path d="M444.559 352.266C444.559 353.566 445.31 361.692 443.808 362.449C442.306 363.206 425.728 363.649 424.977 362.901C424.226 362.153 423.769 360.566 424.433 360.114C425.097 359.662 431.508 358.378 432.379 357.779C433.25 357.18 434.452 353.969 434.012 352.266" fill="#1F161E" class="WPocKTdg_61"></path>
<path d="M14.157 291.899H119.402V345.284H14.157V291.899Z" fill="#B37361" class="WPocKTdg_62"></path>
<path d="M171.252 266.88C171.709 269.601 179.47 331.813 180.727 332.842C181.984 333.871 195.334 336.151 196.477 334.442C196.706 331.721 197.021 288.334 197.729 284.453" fill="#0A1A41" class="WPocKTdg_63"></path>
<path d="M21.096 253.9C15.713 251.25 26.936 303.791 56.472 303.791C86.008 303.791 135.724 258.799 143.772 258.799C161.541 258.799 203.606 293.685 206.904 293.685C209.429 291.16 214.48 286.74 214.48 284.977C214.48 283.214 174.206 216.947 144.071 216.947C132.388 216.962 33.249 259.903 21.096 253.9Z" fill="#0C2769" class="WPocKTdg_64"></path>
<path d="M37.717 254.793C43.622 253.454 50.969 249.987 57.473 246.444C39.78 252.229 25.281 255.968 21.096 253.9C18.244 252.5 20.051 266.559 26.756 280.105C25.543 277.488 23.812 257.971 37.717 254.793Z" fill="#0C2769" class="WPocKTdg_65"></path>
<path d="M50.736 162.62C55.389 162.745 79.613 162.032 86.253 168.356C91.178 173.047 106.493 213.392 108.853 227.556C98.568 232.789 24.378 268.311 1.41601 252.692C0.910009 240.555 3.26601 192.308 18.282 167.007C23.774 163.349 46.262 162.505 50.736 162.62Z" fill="#00BA96" class="WPocKTdg_66"></path>
<path d="M60.172 151.076H46.022V166.286C46.022 170.096 60.172 170.063 60.172 166.286V151.076Z" fill="#F8CDBA" class="WPocKTdg_67"></path>
<path d="M46.022 160.257C46.022 158.57 50.697 154.33 53.587 154.483C53.658 152.605 46.987 149.906 46.987 149.906L46.024 152.506L46.022 160.257Z" fill="#1F161E" class="WPocKTdg_68"></path>
<path d="M74.992 151.076C75.3098 149.604 75.4704 148.103 75.471 146.597C75.471 135.375 66.703 126.275 55.878 126.275C45.053 126.275 36.285 135.375 36.285 146.597C36.2857 148.103 36.4463 149.604 36.764 151.076H74.992Z" fill="#1F161E" class="WPocKTdg_69"></path>
<path d="M69.827 137.379C67.427 137.014 65.0321 135.126 63.3611 133.89C53.8371 140.867 47.736 140.96 47.077 140.96C46.418 140.96 43.7351 144.813 42.5001 145.249L42.3911 145.184C42.7581 147.212 43.5429 149.141 44.6957 150.849C45.8485 152.557 47.3439 154.007 49.0871 155.106C50.8303 156.205 52.783 156.93 54.8212 157.233C56.8595 157.537 58.9386 157.414 60.9265 156.871C62.9144 156.328 64.7676 155.377 66.3684 154.079C67.9691 152.782 69.2824 151.165 70.2248 149.332C71.1672 147.5 71.7181 145.491 71.8424 143.434C71.9668 141.377 71.6618 139.317 70.9471 137.384C70.5749 137.429 70.1988 137.427 69.827 137.379V137.379Z" fill="#F8CDBA" class="WPocKTdg_70"></path>
<path d="M39.486 123.026C39.486 121.493 40.095 120.023 41.1789 118.939C42.2629 117.855 43.7331 117.246 45.266 117.246C46.799 117.246 48.2691 117.855 49.3531 118.939C50.4371 120.023 51.046 121.493 51.046 123.026C51.046 124.559 50.4371 126.029 49.3531 127.113C48.2691 128.197 46.799 128.806 45.266 128.806C43.7331 128.806 42.2629 128.197 41.1789 127.113C40.095 126.029 39.486 124.559 39.486 123.026" fill="#1F161E" class="WPocKTdg_71"></path>
<path d="M47.84 140.648C47.2165 140.679 46.6286 140.949 46.1983 141.401C45.7679 141.853 45.5278 142.454 45.5278 143.078C45.5278 143.703 45.7679 144.303 46.1983 144.755C46.6286 145.208 47.2165 145.477 47.84 145.508" stroke="#1F161E" stroke-miterlimit="10" stroke-linecap="round" stroke-dasharray="8 10" class="WPocKTdg_72"></path>
<path d="M66.366 140.959C67.079 141.911 68.913 143.582 66.366 145.351" stroke="#1F161E" stroke-miterlimit="10" stroke-linecap="round" stroke-dasharray="6 8" class="WPocKTdg_73"></path>
<path d="M58.643 146.624C58.6114 147.232 58.7714 147.835 59.1004 148.348C59.4294 148.86 59.9109 149.257 60.477 149.481" stroke="#1F161E" stroke-miterlimit="10" stroke-linecap="round" stroke-dasharray="4 6" class="WPocKTdg_74"></path>
<path d="M51.661 145.629C51.661 145.32 51.8972 145.024 52.3177 144.805C52.7381 144.587 53.3084 144.464 53.903 144.464C54.4976 144.464 55.0679 144.587 55.4883 144.805C55.9088 145.024 56.145 145.32 56.145 145.629C56.145 145.938 55.9088 146.234 55.4883 146.453C55.0679 146.671 54.4976 146.794 53.903 146.794C53.3084 146.794 52.7381 146.671 52.3177 146.453C51.8972 146.234 51.661 145.938 51.661 145.629" fill="#FA9E9F" class="WPocKTdg_75"></path>
<path d="M68.3311 145.629C68.3311 145.32 68.5673 145.024 68.9877 144.805C69.4082 144.587 69.9784 144.464 70.5731 144.464C71.1677 144.464 71.7379 144.587 72.1584 144.805C72.5788 145.024 72.8151 145.32 72.8151 145.629C72.8151 145.938 72.5788 146.234 72.1584 146.453C71.7379 146.671 71.1677 146.794 70.5731 146.794C69.9784 146.794 69.4082 146.671 68.9877 146.453C68.5673 146.234 68.3311 145.938 68.3311 145.629" fill="#FA9E9F" class="WPocKTdg_76"></path>
<path d="M85.741 204.673L100.865 200.782C102.318 203.253 109.393 227.531 109.393 227.531L86.045 237.371C86.351 232.773 87.27 211.71 85.741 204.673Z" fill="#F8CDBA" class="WPocKTdg_77"></path>
<path d="M32.71 200.869C32.71 202.698 31.17 209.658 30.261 212.929" stroke="#1F161E" stroke-miterlimit="10" stroke-linecap="round" stroke-dasharray="13 15" class="WPocKTdg_78"></path>
<path d="M85.741 204.673C85.376 201.794 83.241 185.573 79.613 177.031" stroke="#1F161E" stroke-miterlimit="10" stroke-linecap="round" stroke-dasharray="29 31" class="WPocKTdg_79"></path>
<path d="M85.741 204.673L100.865 200.782C102.318 203.253 109.393 227.531 109.393 227.531L86.045 237.371C86.351 232.773 87.27 211.71 85.741 204.673Z" fill="#F8CDBA" class="WPocKTdg_80"></path>
<path d="M207.357 292.399C207.694 292.943 212.201 298.473 213.795 298.533C215.389 298.593 225.072 292.033 224.647 290.625C224.222 289.217 218.147 290.135 217.104 289.64C215.563 288.669 214.274 287.347 213.343 285.781" fill="#1F161E" class="WPocKTdg_81"></path>
<path d="M183.547 333.419C183.433 334.019 182.818 341.147 183.923 342.301C185.028 343.455 196.549 345.458 197.223 344.146C197.897 342.834 192.869 339.28 192.483 338.203C192.056 336.436 192.056 334.593 192.483 332.826" fill="#1F161E" class="WPocKTdg_82"></path>
<path d="M165.483 229.055H114.232L126.432 196.722H177.683L165.483 229.055Z" fill="#969696" class="WPocKTdg_83"></path>
<path d="M71.525 227.836H122.776V229.055H71.525V227.836Z" fill="#969696" class="WPocKTdg_84"></path>
<path d="M30.261 212.929C29.276 216.608 24.492 232.391 26.44 235.112C28.388 237.833 77.185 231.667 90.24 227.601C93.565 226.512 96.031 223.661 97.506 223.291C99.3999 222.97 101.345 223.361 102.969 224.388C104.592 225.414 105.779 227.005 106.301 228.853C101.087 231.378 25.808 269.813 1.41503 252.707C-3.19497 249.407 4.89303 209.13 5.26303 207.1C9.38403 207.595 30.261 212.929 30.261 212.929Z" fill="#F8CDBA" class="WPocKTdg_85"></path>
<path d="M86.438 228.582C87.907 228.234 89.192 227.891 90.248 227.564C93.573 226.475 96.039 223.624 97.514 223.254C99.4079 222.933 101.353 223.324 102.977 224.351C104.6 225.377 105.787 226.968 106.309 228.816" stroke="#1F161E" stroke-miterlimit="10" stroke-linecap="round" stroke-dasharray="24 26" class="WPocKTdg_86"></path>
</g>
<defs>
<clipPath id="clip0">
<path width="499.095" height="420.699" fill="white" d="M0 0 L499.095 0 L499.095 420.699 L0 420.699 Z" class="WPocKTdg_87"></path>
</clipPath>
</defs>
<style data-made-with="vivus-instant">.WPocKTdg_0{stroke-dasharray:1322 1324;stroke-dashoffset:1323;animation:WPocKTdg_draw 2000ms linear 0ms forwards;}.WPocKTdg_1{stroke-dasharray:658 660;stroke-dashoffset:659;animation:WPocKTdg_draw 2000ms linear 11ms forwards;}.WPocKTdg_2{stroke-dasharray:133 135;stroke-dashoffset:134;animation:WPocKTdg_draw 2000ms linear 22ms forwards;}.WPocKTdg_3{stroke-dasharray:133 135;stroke-dashoffset:134;animation:WPocKTdg_draw 2000ms linear 34ms forwards;}.WPocKTdg_4{stroke-dasharray:133 135;stroke-dashoffset:134;animation:WPocKTdg_draw 2000ms linear 45ms forwards;}.WPocKTdg_5{stroke-dasharray:133 135;stroke-dashoffset:134;animation:WPocKTdg_draw 2000ms linear 57ms forwards;}.WPocKTdg_6{stroke-dasharray:213 215;stroke-dashoffset:214;animation:WPocKTdg_draw 2000ms linear 68ms forwards;}.WPocKTdg_7{stroke-dasharray:206 208;stroke-dashoffset:207;animation:WPocKTdg_draw 2000ms linear 80ms forwards;}.WPocKTdg_8{stroke-dasharray:72 74;stroke-dashoffset:73;animation:WPocKTdg_draw 2000ms linear 91ms forwards;}.WPocKTdg_9{stroke-dasharray:955 957;stroke-dashoffset:956;animation:WPocKTdg_draw 2000ms linear 103ms forwards;}.WPocKTdg_10{stroke-dasharray:288 290;stroke-dashoffset:289;animation:WPocKTdg_draw 2000ms linear 114ms forwards;}.WPocKTdg_11{stroke-dasharray:347 349;stroke-dashoffset:348;animation:WPocKTdg_draw 2000ms linear 126ms forwards;}.WPocKTdg_12{stroke-dasharray:133 135;stroke-dashoffset:134;animation:WPocKTdg_draw 2000ms linear 137ms forwards;}.WPocKTdg_13{stroke-dasharray:133 135;stroke-dashoffset:134;animation:WPocKTdg_draw 2000ms linear 149ms forwards;}.WPocKTdg_14{stroke-dasharray:133 135;stroke-dashoffset:134;animation:WPocKTdg_draw 2000ms linear 160ms forwards;}.WPocKTdg_15{stroke-dasharray:133 135;stroke-dashoffset:134;animation:WPocKTdg_draw 2000ms linear 172ms forwards;}.WPocKTdg_16{stroke-dasharray:142 144;stroke-dashoffset:143;animation:WPocKTdg_draw 2000ms linear 183ms forwards;}.WPocKTdg_17{stroke-dasharray:16 18;stroke-dashoffset:17;animation:WPocKTdg_draw 2000ms linear 195ms forwards;}.WPocKTdg_18{stroke-dasharray:16 18;stroke-dashoffset:17;animation:WPocKTdg_draw 2000ms linear 206ms forwards;}.WPocKTdg_19{stroke-dasharray:16 18;stroke-dashoffset:17;animation:WPocKTdg_draw 2000ms linear 218ms forwards;}.WPocKTdg_20{stroke-dasharray:27 29;stroke-dashoffset:28;animation:WPocKTdg_draw 2000ms linear 229ms forwards;}.WPocKTdg_21{stroke-dasharray:160 162;stroke-dashoffset:161;animation:WPocKTdg_draw 2000ms linear 241ms forwards;}.WPocKTdg_22{stroke-dasharray:16 18;stroke-dashoffset:17;animation:WPocKTdg_draw 2000ms linear 252ms forwards;}.WPocKTdg_23{stroke-dasharray:16 18;stroke-dashoffset:17;animation:WPocKTdg_draw 2000ms linear 264ms forwards;}.WPocKTdg_24{stroke-dasharray:16 18;stroke-dashoffset:17;animation:WPocKTdg_draw 2000ms linear 275ms forwards;}.WPocKTdg_25{stroke-dasharray:27 29;stroke-dashoffset:28;animation:WPocKTdg_draw 2000ms linear 287ms forwards;}.WPocKTdg_26{stroke-dasharray:160 162;stroke-dashoffset:161;animation:WPocKTdg_draw 2000ms linear 298ms forwards;}.WPocKTdg_27{stroke-dasharray:16 18;stroke-dashoffset:17;animation:WPocKTdg_draw 2000ms linear 310ms forwards;}.WPocKTdg_28{stroke-dasharray:16 18;stroke-dashoffset:17;animation:WPocKTdg_draw 2000ms linear 321ms forwards;}.WPocKTdg_29{stroke-dasharray:16 18;stroke-dashoffset:17;animation:WPocKTdg_draw 2000ms linear 333ms forwards;}.WPocKTdg_30{stroke-dasharray:16 18;stroke-dashoffset:17;animation:WPocKTdg_draw 2000ms linear 344ms forwards;}.WPocKTdg_31{stroke-dasharray:16 18;stroke-dashoffset:17;animation:WPocKTdg_draw 2000ms linear 356ms forwards;}.WPocKTdg_32{stroke-dasharray:24 26;stroke-dashoffset:25;animation:WPocKTdg_draw 2000ms linear 367ms forwards;}.WPocKTdg_33{stroke-dasharray:24 26;stroke-dashoffset:25;animation:WPocKTdg_draw 2000ms linear 379ms forwards;}.WPocKTdg_34{stroke-dasharray:24 26;stroke-dashoffset:25;animation:WPocKTdg_draw 2000ms linear 390ms forwards;}.WPocKTdg_35{stroke-dasharray:72 74;stroke-dashoffset:73;animation:WPocKTdg_draw 2000ms linear 402ms forwards;}.WPocKTdg_36{stroke-dasharray:174 176;stroke-dashoffset:175;animation:WPocKTdg_draw 2000ms linear 413ms forwards;}.WPocKTdg_37{stroke-dasharray:176 178;stroke-dashoffset:177;animation:WPocKTdg_draw 2000ms linear 425ms forwards;}.WPocKTdg_38{stroke-dasharray:73 75;stroke-dashoffset:74;animation:WPocKTdg_draw 2000ms linear 436ms forwards;}.WPocKTdg_39{stroke-dasharray:15 17;stroke-dashoffset:16;animation:WPocKTdg_draw 2000ms linear 448ms forwards;}.WPocKTdg_40{stroke-dasharray:73 75;stroke-dashoffset:74;animation:WPocKTdg_draw 2000ms linear 459ms forwards;}.WPocKTdg_41{stroke-dasharray:148 150;stroke-dashoffset:149;animation:WPocKTdg_draw 2000ms linear 471ms forwards;}.WPocKTdg_42{stroke-dasharray:19 21;stroke-dashoffset:20;animation:WPocKTdg_draw 2000ms linear 482ms forwards;}.WPocKTdg_43{stroke-dasharray:401 403;stroke-dashoffset:402;animation:WPocKTdg_draw 2000ms linear 494ms forwards;}.WPocKTdg_44{stroke-dasharray:392 394;stroke-dashoffset:393;animation:WPocKTdg_draw 2000ms linear 505ms forwards;}.WPocKTdg_45{stroke-dasharray:305 307;stroke-dashoffset:306;animation:WPocKTdg_draw 2000ms linear 517ms forwards;}.WPocKTdg_46{stroke-dasharray:47 49;stroke-dashoffset:48;animation:WPocKTdg_draw 2000ms linear 528ms forwards;}.WPocKTdg_47{stroke-dasharray:65 67;stroke-dashoffset:66;animation:WPocKTdg_draw 2000ms linear 540ms forwards;}.WPocKTdg_48{stroke-dasharray:28 30;stroke-dashoffset:29;animation:WPocKTdg_draw 2000ms linear 551ms forwards;}.WPocKTdg_49{stroke-dasharray:86 88;stroke-dashoffset:87;animation:WPocKTdg_draw 2000ms linear 563ms forwards;}.WPocKTdg_50{stroke-dasharray:92 94;stroke-dashoffset:93;animation:WPocKTdg_draw 2000ms linear 574ms forwards;}.WPocKTdg_51{stroke-dasharray:12 14;stroke-dashoffset:13;animation:WPocKTdg_draw 2000ms linear 586ms forwards;}.WPocKTdg_52{stroke-dasharray:12 14;stroke-dashoffset:13;animation:WPocKTdg_draw 2000ms linear 597ms forwards;}.WPocKTdg_53{stroke-dasharray:6 8;stroke-dashoffset:7;animation:WPocKTdg_draw 2000ms linear 609ms forwards;}.WPocKTdg_54{stroke-dasharray:4 6;stroke-dashoffset:5;animation:WPocKTdg_draw 2000ms linear 620ms forwards;}.WPocKTdg_55{stroke-dasharray:20 22;stroke-dashoffset:21;animation:WPocKTdg_draw 2000ms linear 632ms forwards;}.WPocKTdg_56{stroke-dasharray:79 81;stroke-dashoffset:80;animation:WPocKTdg_draw 2000ms linear 643ms forwards;}.WPocKTdg_57{stroke-dasharray:27 29;stroke-dashoffset:28;animation:WPocKTdg_draw 2000ms linear 655ms forwards;}.WPocKTdg_58{stroke-dasharray:54 56;stroke-dashoffset:55;animation:WPocKTdg_draw 2000ms linear 666ms forwards;}.WPocKTdg_59{stroke-dasharray:33 35;stroke-dashoffset:34;animation:WPocKTdg_draw 2000ms linear 678ms forwards;}.WPocKTdg_60{stroke-dasharray:44 46;stroke-dashoffset:45;animation:WPocKTdg_draw 2000ms linear 689ms forwards;}.WPocKTdg_61{stroke-dasharray:47 49;stroke-dashoffset:48;animation:WPocKTdg_draw 2000ms linear 701ms forwards;}.WPocKTdg_62{stroke-dasharray:318 320;stroke-dashoffset:319;animation:WPocKTdg_draw 2000ms linear 712ms forwards;}.WPocKTdg_63{stroke-dasharray:133 135;stroke-dashoffset:134;animation:WPocKTdg_draw 2000ms linear 724ms forwards;}.WPocKTdg_64{stroke-dasharray:483 485;stroke-dashoffset:484;animation:WPocKTdg_draw 2000ms linear 735ms forwards;}.WPocKTdg_65{stroke-dasharray:118 120;stroke-dashoffset:119;animation:WPocKTdg_draw 2000ms linear 747ms forwards;}.WPocKTdg_66{stroke-dasharray:335 337;stroke-dashoffset:336;animation:WPocKTdg_draw 2000ms linear 758ms forwards;}.WPocKTdg_67{stroke-dasharray:61 63;stroke-dashoffset:62;animation:WPocKTdg_draw 2000ms linear 770ms forwards;}.WPocKTdg_68{stroke-dasharray:29 31;stroke-dashoffset:30;animation:WPocKTdg_draw 2000ms linear 781ms forwards;}.WPocKTdg_69{stroke-dasharray:110 112;stroke-dashoffset:111;animation:WPocKTdg_draw 2000ms linear 793ms forwards;}.WPocKTdg_70{stroke-dasharray:83 85;stroke-dashoffset:84;animation:WPocKTdg_draw 2000ms linear 804ms forwards;}.WPocKTdg_71{stroke-dasharray:37 39;stroke-dashoffset:38;animation:WPocKTdg_draw 2000ms linear 816ms forwards;}.WPocKTdg_72{stroke-dasharray:8 10;stroke-dashoffset:9;animation:WPocKTdg_draw 2000ms linear 827ms forwards;}.WPocKTdg_73{stroke-dasharray:6 8;stroke-dashoffset:7;animation:WPocKTdg_draw 2000ms linear 839ms forwards;}.WPocKTdg_74{stroke-dasharray:4 6;stroke-dashoffset:5;animation:WPocKTdg_draw 2000ms linear 850ms forwards;}.WPocKTdg_75{stroke-dasharray:11 13;stroke-dashoffset:12;animation:WPocKTdg_draw 2000ms linear 862ms forwards;}.WPocKTdg_76{stroke-dasharray:11 13;stroke-dashoffset:12;animation:WPocKTdg_draw 2000ms linear 873ms forwards;}.WPocKTdg_77{stroke-dasharray:102 104;stroke-dashoffset:103;animation:WPocKTdg_draw 2000ms linear 885ms forwards;}.WPocKTdg_78{stroke-dasharray:13 15;stroke-dashoffset:14;animation:WPocKTdg_draw 2000ms linear 896ms forwards;}.WPocKTdg_79{stroke-dasharray:29 31;stroke-dashoffset:30;animation:WPocKTdg_draw 2000ms linear 908ms forwards;}.WPocKTdg_80{stroke-dasharray:102 104;stroke-dashoffset:103;animation:WPocKTdg_draw 2000ms linear 919ms forwards;}.WPocKTdg_81{stroke-dasharray:36 38;stroke-dashoffset:37;animation:WPocKTdg_draw 2000ms linear 931ms forwards;}.WPocKTdg_82{stroke-dasharray:36 38;stroke-dashoffset:37;animation:WPocKTdg_draw 2000ms linear 942ms forwards;}.WPocKTdg_83{stroke-dasharray:172 174;stroke-dashoffset:173;animation:WPocKTdg_draw 2000ms linear 954ms forwards;}.WPocKTdg_84{stroke-dasharray:105 107;stroke-dashoffset:106;animation:WPocKTdg_draw 2000ms linear 965ms forwards;}.WPocKTdg_85{stroke-dasharray:291 293;stroke-dashoffset:292;animation:WPocKTdg_draw 2000ms linear 977ms forwards;}.WPocKTdg_86{stroke-dasharray:24 26;stroke-dashoffset:25;animation:WPocKTdg_draw 2000ms linear 988ms forwards;}.WPocKTdg_87{stroke-dasharray:1840 1842;stroke-dashoffset:1841;animation:WPocKTdg_draw 2000ms linear 999ms forwards;}@keyframes WPocKTdg_draw{100%{stroke-dashoffset:0;}}@keyframes WPocKTdg_fade{0%{stroke-opacity:1;}94.44444444444444%{stroke-opacity:1;}100%{stroke-opacity:0;}}</style></svg>
