<svg xmlns="http://www.w3.org/2000/svg" width="526.594" height="421" viewBox="0 0 526.594 421"><g transform="translate(-0.003)"><g transform="translate(0.003 1)"><ellipse cx="44.629" cy="9.865" rx="44.629" ry="9.865" transform="translate(190.175 326.716)"/><line x1="25.069" y2="78.46" transform="translate(209.735 336.581)" fill="none" stroke="#000" stroke-linecap="round" stroke-miterlimit="10" stroke-width="4"/><line x2="25.069" y2="78.46" transform="translate(234.804 336.581)" fill="none" stroke="#000" stroke-linecap="round" stroke-miterlimit="10" stroke-width="4"/><line y1="17.919" x2="27.947" transform="translate(217.967 371.359)" fill="none" stroke="#000" stroke-linecap="round" stroke-miterlimit="10" stroke-width="2"/><line x2="27.954" y2="17.919" transform="translate(223.582 371.359)" fill="none" stroke="#000" stroke-linecap="round" stroke-miterlimit="10" stroke-width="2"/><path d="M393.886,356.86c-.113,3.479-.064,15.664-.636,20.875" transform="translate(-115.16 -105.209)" fill="none" stroke="#1f161e" stroke-linecap="round" stroke-miterlimit="10" stroke-width="1"/><rect width="8.953" height="24.404" rx="4.476" transform="translate(126.198 93.084)"/><circle cx="8.981" cy="8.981" r="8.981" transform="translate(121.694 125.5)" fill="#fbdc8e"/><path d="M601.654,327.587H605.9a1.69,1.69,0,0,0,1.683-1.683v-26.08a1.662,1.662,0,0,0-.495-1.188l-5.36-5.36a1.676,1.676,0,0,0-1.188-.5H584.7a1.69,1.69,0,0,0-1.683,1.683v2.517" transform="translate(-170.732 -86.444)" fill="#fbdc8e"/><path d="M77.532,429.961c13.436,2.546,11.039,82.738-14.751,77.887C38.426,503.223,61.14,426.843,77.532,429.961Z" transform="translate(-15.261 -126.589)"/><path d="M3.282,443.812c10.692-6.053,55.449,50.265,34.976,61.848C18.917,516.65-9.737,451.195,3.282,443.812Z" transform="translate(-0.003 -130.539)" fill="#fbdc8e"/><path d="M67.267,578.568h-27a4.42,4.42,0,0,1-4.391-3.932L32.467,544.03a4.427,4.427,0,0,1,4.391-4.95H70.534a4.42,4.42,0,0,1,4.391,4.894l-3.26,30.606A4.427,4.427,0,0,1,67.267,578.568Z" transform="translate(-9.5 -158.57)" fill="#969696"/><path d="M88.812,385.772c10.233,2.97,2.39,64.868-17.205,59.168C53.108,439.566,76.359,382.151,88.812,385.772Z" transform="translate(-18.954 -113.628)" fill="#ab8de5"/><path d="M106.984,455.081c7.072,6.1-21.7,52.726-35.287,41.015C58.862,485.086,98.35,447.67,106.984,455.081Z" transform="translate(-20.253 -133.69)" fill="#fbdc8e"/><path d="M55.434,394.94c15.317,0,29.34,97.8,0,97.8C27.728,492.741,36.786,394.94,55.434,394.94Z" transform="translate(-11.097 -116.36)" fill="#78e5e1"/><rect width="59.614" height="10.947" rx="4.05" transform="translate(14.467 373.891)" fill="#d8d8d8"/><path d="M592.063,298.72H576.505a1.9,1.9,0,0,0-1.9,1.9V331.6a1.9,1.9,0,0,0,1.9,1.9h20.784a1.9,1.9,0,0,0,1.9-1.9V305.855a1.9,1.9,0,0,0-.552-1.344l-5.233-5.233A1.9,1.9,0,0,0,592.063,298.72Z" transform="translate(-168.269 -88.184)" fill="#d8d8d8"/><path d="M606.743,305.113h-5.282a1.061,1.061,0,0,1-1.061-1.061V298.72" transform="translate(-175.822 -88.184)" fill="#969696"/><path d="M615.15,299.18h-5.282a1.075,1.075,0,0,1-1.068-1.068V292.78" transform="translate(-178.281 -86.444)" fill="#64ccc4"/><rect width="40.747" height="16.194" rx="3.03" transform="translate(367.758 175.129)" fill="#78e5e1"/><path d="M546.818,281.095l4.908-14.865H541.91Z" transform="translate(-158.693 -78.669)" fill="#78e5e1"/><path d="M533.4,254.75l-4.116,7.121H537.5Z" transform="translate(-154.995 -75.308)" fill="#fff"/><path d="M560.906,261.871l4.116-7.121H556.79Z" transform="translate(-163.051 -75.308)" fill="#fff"/><circle cx="3.09" cy="3.09" r="3.09" transform="translate(385.034 179.916)" fill="#fff"/><rect width="27.678" height="18.217" rx="2.65" transform="translate(359.145 140.81)" fill="#d8d8d8"/><line x2="12.969" y2="8.535" transform="translate(360.015 141.383)" fill="none" stroke="#969696" stroke-linecap="round" stroke-linejoin="round" stroke-width="0.82"/><line x1="13.839" y2="9.108" transform="translate(372.984 140.81)" fill="none" stroke="#969696" stroke-linecap="round" stroke-linejoin="round" stroke-width="0.82"/><circle cx="3.96" cy="3.96" r="3.96" transform="translate(382.863 136.85)" fill="#fbdc8e"/><text transform="translate(385.677 141.095)" fill="#fff" font-size="4" font-family="Helvetica-Bold, Helvetica" font-weight="700"><tspan x="0" y="0">1</tspan></text><rect width="104.985" height="2.277" rx="1.139" transform="translate(421.608 151.92)" fill="#d8d8d8"/><rect width="9.893" height="45.216" rx="2.56" transform="translate(458.006 106.704)" fill="#969696"/><rect width="4.95" height="34.616" rx="2.13" transform="translate(467.899 117.304)" fill="#d8d8d8"/><rect width="4.95" height="34.616" rx="2.06" transform="translate(472.849 117.304)" fill="#969696"/><rect width="4.95" height="34.616" rx="2.2" transform="translate(476.847 121.199) rotate(-24.66)" fill="#d8d8d8"/><circle cx="2.765" cy="2.765" r="2.765" transform="translate(460.184 134.948)" fill="#d8d8d8"/><rect width="6.336" height="1.329" rx="0.665" transform="translate(459.781 142.133)" fill="#d8d8d8"/><rect width="6.336" height="1.329" rx="0.665" transform="translate(459.781 145.534)" fill="#d8d8d8"/><rect width="6.336" height="1.329" rx="0.665" transform="translate(409.12 213.733)" fill="#969696"/><rect width="6.336" height="1.329" rx="0.665" transform="translate(409.12 216.929)" fill="#969696"/><rect width="19.61" height="1.329" rx="0.665" transform="translate(408.83 222.395)" fill="#969696"/><rect width="19.61" height="1.329" rx="0.665" transform="translate(408.83 225.535)" fill="#969696"/><rect width="19.61" height="1.329" rx="0.665" transform="translate(408.83 228.675)" fill="#969696"/><rect width="1.032" height="25.189" rx="0.516" transform="translate(469.858 122.014)" fill="#969696"/><rect width="7.949" height="3.522" rx="1.761" transform="translate(442.986 153.058)" fill="#d8d8d8"/><rect width="7.949" height="3.522" rx="1.761" transform="translate(497.268 153.058)" fill="#d8d8d8"/><rect width="42.79" height="29.566" rx="12" transform="translate(302.056 156.502)" fill="#d8d8d8"/><rect width="6.435" height="20.048" transform="translate(310.909 161.261)" fill="#ab8de5"/><rect width="6.435" height="6.718" transform="translate(320.237 174.598)" fill="#ab8de5"/><rect width="6.435" height="12.368" transform="translate(329.557 168.941)" fill="#ab8de5"/><path d="M173.574,152.88a27.077,27.077,0,0,0-27.084,27.077h54.169a27.077,27.077,0,0,0-27.084-27.077Z" transform="translate(-42.9 -45.476)" fill="#ab8de5"/><line y1="98.239" transform="translate(130.675)" fill="none" stroke="#000" stroke-linecap="round" stroke-linejoin="round" stroke-width="2"/><path d="M485.088,574.68c0,1.676-.983,12.248.976,13.224s23.492,1.57,24.468.587,1.563-3.034.707-3.621-9.193-2.249-10.325-3.034-2.694-4.95-2.121-7.156" transform="translate(-141.982 -168.995)" fill="#1f161e"/><path d="M351.153,342.836l12.121-4.349c-.523-22.113-5.693-71.522-13.033-78.87-1.725-1.718-35.853-4.717-41.942-4.717-36.334,0-47.111,4.144-49.848,6.888-8.486,8.486-11.131,47.8-11.131,61.573s38.894,20.911,38.894,20.911L331.8,347.4s10,1.032,18.648,1.542C350.643,346.294,351.153,342.836,351.153,342.836Z" transform="translate(-72.426 -75.351)" fill="#78e5e1"/><path d="M445.22,396.185c3.317-.983,36.3-6.364,43.483.707s29.8,108.457,29.8,110.791H500.294l-24.581-52.9" transform="translate(-130.379 -115.88)" fill="#1f161e"/><path d="M273.009,384.331c-.827,4.137-5.8,8.578-5.8,31.115,0,31.165,25.529,31.822,34.693,31.822,28.555,0,74.754-8.486,77.873-10.042,2.072,3.465,40.209,81.324,40.386,83.063h17.559S426.838,403.806,407.2,390.6C400.821,386.353,287.654,381.813,273.009,384.331Z" transform="translate(-78.251 -113.042)" fill="#55b79d"/><path d="M412.777,352.41c-4.611,0-8.415,1.1-18.853,3.147l-.545,19.97c9.9-3.988,12.2-9.533,15.07-9.533,7.171,0,10.919,3.7,15.154,3.7,2.956,0,8.274-2.319,8.274-5.473C431.878,357.615,418.491,352.41,412.777,352.41Z" transform="translate(-115.198 -103.906)" fill="#f8cdba"/><path d="M524.458,553.07c0,1.683-.983,12.248.976,13.231s23.492,1.563,24.468.587,1.563-3.034.707-3.621-9.193-2.256-10.325-3.041-2.694-4.95-2.122-7.156" transform="translate(-153.511 -162.667)" fill="#1f161e"/><path d="M336.23,252.572c0,2.666-15.48,2.744-15.48,0V230.89h15.48Z" transform="translate(-93.929 -68.32)" fill="#f8cdba"/><path d="M331.188,238.7c-1.414,0-10.438,3.988-10.438,6.216V233.15C323,233.15,331.188,238.7,331.188,238.7Z" transform="translate(-93.929 -68.982)" fill="#1f161e"/><circle cx="18.74" cy="18.74" r="18.74" transform="translate(221.51 133.159)" fill="#f8cdba"/><path d="M349.493,187.252c-2.319,3.684-7.171,5.374-12.425,5.374-4.476,0-11-1.3-15.635,1.344-2.51,1.414-5.389,4.632-5.968,11.074,0,1.1-1.252,5.382-1.252,6.76,0,.941-1.061,1.556-2.829,1.556-.912,0-2.716-1.478-2.716-3.734,0-2.609,1.04-3.536,1.04-5.749S307,199.535,307,193.383c0-8.861,5.657-14.32,9.66-14.32,3.649,0,4.795.849,5.254,1.209,0-8.055,10.607-11.732,14.815-11.732,4.809,0,7.072,1.973,7.072,4.483,0,4-1.909,7.4-2.878,8.168a11.88,11.88,0,0,1,7.991-3.048c5.509,0,7.362,3.621,7.362,6.1,0,5.382-6.456,10.367-8.861,10.367a25.692,25.692,0,0,0-2.121-3.67" transform="translate(-89.903 -50.062)" fill="#1f161e"/><circle cx="3.995" cy="3.995" r="3.995" transform="translate(222.146 150.378)" fill="#f8cdba"/><ellipse cx="3.097" cy="1.612" rx="3.097" ry="1.612" transform="translate(256.076 152.111)" fill="#fa9e9f"/><ellipse cx="3.097" cy="1.612" rx="3.097" ry="1.612" transform="translate(236.594 152.111)" fill="#fa9e9f"/><path d="M355.8,213.65c.58.827,3.536,4.3.417,5.707" transform="translate(-104.193 -63.272)" fill="none" stroke="#1f161e" stroke-linecap="round" stroke-miterlimit="10" stroke-width="1"/><path d="M346.266,226.539c-.933,0-2.369-1.16-3.126-2.2" transform="translate(-100.486 -66.402)" fill="none" stroke="#1f161e" stroke-linecap="round" stroke-miterlimit="10" stroke-width="1"/><path d="M382.5,298.62c1.414,3.005,8.238,32,8.238,41.185" transform="translate(-112.012 -88.154)" fill="none" stroke="#1f161e" stroke-linecap="round" stroke-miterlimit="10" stroke-width="1"/><path d="M247.32,348.41c0,32.593.3,42.048,13.387,42.048,30.153,0,75.737-24.751,83.862-24.751,7.178,0,10.926,3.706,15.162,3.706,2.949,0,8.267-2.327,8.267-5.473,0-6.612-13.387-11.817-19.093-11.817-12.849,0-64.125,12.389-65.377,12.389s-3.359-.544-3.359-2.652c0-3.826,2.5-12.665,2.829-13.436Z" transform="translate(-72.426 -102.735)" fill="#f8cdba"/><path d="M304.956,308.21c-.863,2.482-7.588,28.131-8.366,31.257" transform="translate(-86.855 -90.963)" fill="none" stroke="#1f161e" stroke-linecap="round" stroke-miterlimit="10" stroke-width="1"/><rect width="7.241" height="149.636" rx="3.621" transform="matrix(-0.967, 0.254, -0.254, -0.967, 481.341, 417.292)" fill="#969696"/><rect width="7.241" height="149.636" rx="3.621" transform="matrix(0.967, 0.254, -0.254, 0.967, 430.765, 272.578)" fill="#969696"/><rect width="7.241" height="149.636" rx="3.621" transform="matrix(0.967, 0.254, -0.254, 0.967, 380.805, 272.577)" fill="#d8d8d8"/><rect width="7.254" height="149.89" rx="3.627" transform="translate(430.754 414.792) rotate(165.548)" fill="#d8d8d8"/><rect width="7.241" height="149.636" rx="3.621" transform="matrix(0.967, 0.254, -0.254, 0.967, 176.846, 272.582)" fill="#969696"/><rect width="7.241" height="149.636" rx="3.621" transform="matrix(-0.967, 0.254, -0.254, -0.967, 226.804, 417.302)" fill="#969696"/><rect width="356.572" height="10.714" rx="4.53" transform="translate(105.768 266.699)" fill="#d8d8d8"/><rect width="7.241" height="149.636" rx="3.621" transform="matrix(0.967, 0.254, -0.254, 0.967, 125.099, 272.584)" fill="#d8d8d8"/><rect width="7.241" height="149.636" rx="3.621" transform="matrix(-0.967, 0.254, -0.254, -0.967, 175.057, 417.303)" fill="#d8d8d8"/><path d="M493.19,359.858H427.77L439.622,319.1a4.759,4.759,0,0,1,4.582-3.387h55.512a4.681,4.681,0,0,1,4.582,5.947Z" transform="translate(-125.269 -93.159)"/><circle cx="4.003" cy="4.003" r="4.003" transform="translate(339.238 240.619)" fill="#fff"/><rect width="45.902" height="2.864" transform="translate(264.371 263.835)"/></g></g></svg>